<mxfile host="app.diagrams.net" agent="Mozilla/5.0 (Windows NT 10.0; Win64; x64) AppleWebKit/537.36 (KHTML, like Gecko) Chrome/134.0.0.0 Safari/537.36" version="26.0.14">
  <diagram name="第 1 页" id="GnRwEij5WdW4WpLW0Xnm">
    <mxGraphModel dx="1050" dy="522" grid="1" gridSize="10" guides="1" tooltips="1" connect="1" arrows="1" fold="1" page="1" pageScale="1" pageWidth="827" pageHeight="1169" math="0" shadow="0">
      <root>
        <mxCell id="0" />
        <mxCell id="1" parent="0" />
        <mxCell id="LUaTBJ1ciAUJqHl2CHKF-1" value="" style="shape=image;verticalLabelPosition=bottom;labelBackgroundColor=default;verticalAlign=top;aspect=fixed;imageAspect=0;image=data:image/jpeg,/9j/4AAQSkZJRgABAQEA8ADwAAD/2wBDAAgGBgcGBQgHBwcJCQgKDBQNDAsLDBkSEw8UHRofHh0aHBwgJC4nICIsIxwcKDcpLDAxNDQ0Hyc5PTgyPC4zNDL/2wBDAQkJCQwLDBgNDRgyIRwhMjIyMjIyMjIyMjIyMjIyMjIyMjIyMjIyMjIyMjIyMjIyMjIyMjIyMjIyMjIyMjIyMjL/wAARCAAgAfUDASIAAhEBAxEB/8QAHwAAAQUBAQEBAQEAAAAAAAAAAAECAwQFBgcICQoL/8QAtRAAAgEDAwIEAwUFBAQAAAF9AQIDAAQRBRIhMUEGE1FhByJxFDKBkaEII0KxwRVS0fAkM2JyggkKFhcYGRolJicoKSo0NTY3ODk6Q0RFRkdISUpTVFVWV1hZWmNkZWZnaGlqc3R1dnd4eXqDhIWGh4iJipKTlJWWl5iZmqKjpKWmp6ipqrKztLW2t7i5usLDxMXGx8jJytLT1NXW19jZ2uHi4+Tl5ufo6erx8vP09fb3+Pn6/8QAHwEAAwEBAQEBAQEBAQAAAAAAAAECAwQFBgcICQoL/8QAtREAAgECBAQDBAcFBAQAAQJ3AAECAxEEBSExBhJBUQdhcRMiMoEIFEKRobHBCSMzUvAVYnLRChYkNOEl8RcYGRomJygpKjU2Nzg5OkNERUZHSElKU1RVVldYWVpjZGVmZ2hpanN0dXZ3eHl6goOEhYaHiImKkpOUlZaXmJmaoqOkpaanqKmqsrO0tba3uLm6wsPExcbHyMnK0tPU1dbX2Nna4uPk5ebn6Onq8vP09fb3+Pn6/9oADAMBAAIRAxEAPwD3+kLAUtcF4/8AH1x4NvtNtbbS471rxJXy85jC7Cvopznd+lKTSVy6dOVSahDVs7zIFAINeHyfHXUo5Y4h4Ztmd+Qq3x4Hqfkxip/+F26rj/kW7X/wOb/43Wbr01uztjlWMk2o027bntO4ClByK8OuPjtqduFB8NWzs3RFvmyf/HK9e8Par/bnh3TtVMPkG8t0mMe7ds3KDjPfGcZq4zjLWLOavhq1B2qxaNLIoyBWH4m1u40O0s3trNLue6vI7RI5JzEoL5+Yttbpj0rHm8b3NnHqcV/pKRXthNZpJHDd+bEy3MojBDlAcj5iQVHQevFGB2m4c89KWuf8X+IJfC+gtqUFg2oS+fFClusvll2dwgwSCB970pkHiq2u9R0KC0j8231e1muo5t2NgQRnG3HU+Z7YxQB0eaKxfD2t/wBveGbPWhbiEXMPm+V5m7b143YGenpU3h3Vzr/hzTdX8jyPttuk/lbt2zcoOM4GcZxnFAGpRmikoAMijI9aw/Feuy+HdDa+t7VLqczwwxwvJ5YLSSKgy2D0LZ6VyY8a+N/st/P/AMIVb/6I7J5f29t82P4ox5XzD0PeueriaNHSpJL1Gk3sekZFG4DvXnTeMfG6yach8HWhN4Mlhfti34ziX938p69M9KRfGPjZ5NQX/hD7QfYxkE6g2J+M4iPlfMceuOo96x/tLCdKkfvXoPkl2PRtwoyK5TwP4ovfFNheSahpI0y6tJxC1v5u/GY0cE/KMHD4xW/qV3/Z2lXl75e/7PC8uzdjdtUnGecdOuDXapKSuiS5uGcZo3D1ri9O8fJqPhex1f8As5ori4v4LCe0eb5rdpZFXO7b8w2urDgZBHSreh+INc1xzcR6NYxad9pmtzK2osZcRyNGW8vycclDxu/GmB1JIFLWP4e1g67pbXpg8j/SZ4Ngfd/qpWj3ZwOuzOO2a1x0FAC0ZoptAC7hRuFcN4j8Z6rpfiSbSdL0a3vTDapcu0t0YidzONqjY39z9axtN+JPiLVInaHw/pyNE/lyxS6g4eNvQjyquNOT2RyVcbQpNqpNKx6luFJvHv8AlXnX/Ca+KgM/8I9pmeuP7Rb/AONVkn4r68tpqFxJ4cskaw3NPA9+3mKByCB5eCCOQQcGqlRnHdEU8ywlXSFRM9czS5qKFxJCkmMblDdfWsy/1kWWvaVpf2ff/aPnfvN+NnloG6Y5znHUYrI7jYzSZBNc1q/ir+y7/Vrb7EJTp+kHUw3m48zBkGzocfc689elUIfGt7BPbwavo8Vq13Yy3lo1vemZZBGqsyMSiFWww5wRzQB2mRjPalrjNI8ZX11d6HDqejQ2a61A01lJBdmfkR+YVcFEKnbnoGHvXZjgYoAKKKSkAZFLmvHPF3xsuPDPjDUNDi0GO5W0ZQZmuihbKq3TacferEP7RV5tY/8ACLw4U4P+nH/4iuyngcRVgpwg2mTzJPU9+zSZFeB/8NE3oYD/AIReHn/p+P8A8RVvSPj7dalrVjYSeG4Y0ubqO3ZxeEld7Bc42c9ac8vxUFzSg0ClFnuVJkUDpXNeJfFSeH7qzg+yG480mW5ZZNv2e3DIryng5wXXjjIDHPGK4yjpcilzWRDrHneKLzRvIANtaQ3Pm7s7vMaRduMdvLznPes258Qaw3iS+0jStHsrj7DBDLLLc6g0GfM3YACwv02HnIoA6jIFGRnFc5qHiX+w7uwXWreGztLmImS8WfdFDcAbjGxKjgqGKseuCCBkZvaDqc2r6RHfzWL2aTZeGF2y5iz8jMMDaWXB284zigDWooooAKTIoP0rxjVvjhfafqF/Cnh+2eG1uZYBI96Qz7HK5wEPJx0pOSW5MpKO57RmkyK8TX446u8Yf/hGLZM84a+PH/jlRxfHbVJpXRPDVqQpwX+3Ntz6f6us/bQ7maxFJpvmPcNwpa808EfE678V+JjpFzpEVn/ozzrJHcmTlSowRtH96vSx0FaRkpK6NIyUldCZGcZ59KWuFvfHGpWtvrGo/wBiW7aVpV3JbzTDUMTMExuZYzHtPXgb66XVLnVreJH0uws7ogEyLcXbW+0dRjEb5PXrimUamR60tcLpfxCMlnpd5rdlbadFqtqbqyS3uJrqaUAKSNiwjkB14BPsMA43JfGWg292LWW+ZJNyI7GCTy4mcAqsj7dqMcjhiDzQBvUVial4u0PSb1rS9vTHLGFMpEMjpCD0MjqpWPPbcRW31oAKKKKACvF/jfZ6lNqmhz6fpl3ebYbhGNvA0gQkxkZ2jjvXtFNI/XrUyipKzNaFaVCoqsN0fJ1tpGqQAs2i6w8rfff7BLk/+O9KfNZawkRMegavI3ZfsEo/9lr6worleCpt3dz3Y8TYyEOSCS+T/wAz5Jh0fVkRpJNF1d55Bgn7BNgew+XpX0r4GgmtvAegwXETxTR2MKvHIpVlOwcEHofauhorenRjTd0eZjMwqYtRjNJW7fqcn490i41jSrCKDTDqUcOowzz2oaMeZEud332VT1HGa5O68K6wbTV5NH8ONpdjKbFodIWaENJLFcrJJKAr+WnyDGN3O0E89fWKK1OA4vVjrfiGwt4f+EcvLFrfUrK4xcXFud6JOruRskblQueevbJqpZeFtV0z4kW01vAreHoo7qaJ965glnMZeMLnO3chYYGBvI7Cu/ooA4XwY2vaV4d0zQr7wxfQNBCYnu/tFs0annBwsu7H4Vu+DdPutJ8FaJp97F5V1bWUUU0e4NtYKARkEg/hW7RQAUlLRQBxXxSt7y48DzrYLMbhbq2dWhhMrJiZDuCgEtjrgelc9L4okbUtNnjm1lbSBGF3B/YM/wDpLFRtIOz5cHJxXqpz/wDqoHSvOxuWUcY4up0v26+qfy7Fxm47Hkw8TXQi1hWu9ZL3Jb7Aw8Pzj7IMfLn9382DzzQ3ia6MWjqt3rKvbspv3/sCf/SgBzgbPlyfSvWqK4v9XcH5/wDkva38v9PXcv20jiPh+8lzP4jvvs91DDc6kHh+0wPEzKIIhnawB6gj8K6fW7aa88P6jbQJvmmtZI41yBlipAGTx1q8Qe3WnV7VKkqUI047JWMm7nmOo+DtaibwxPp1qrZk05dYh8xBs+zujCUZOCVCuhxkkFeuK3PB/g2z0uH7ffaNZx6z9supRcmNGlCvNIVO8ZPMbL3zzjtiuyorQRxHhZ9d0W3/ALKufDF+yG/uX+1rc2xjCSXDuGx5u/AVhkbc8dK7eiigAppz2p1FAHlXiyaTTviHdXMtjqEsE2n26pJb2cky5V5cjKg4PI/OuZ1W5LXK6ppen6xDqUQ2kNpdwEuE/uOAn5HqK952nn0NOrphipwjyo8jEZLh6+IeIk3d6PazX3HjFv4iWa3jeXR9bhkYfNG2mTEqfqFrD8WKms6VcNaabraaiIWjjZdMnHmKRyjZTBU+/Q89q+g6bg5qpYypKPK7HNR4bwlCqqtNyTXmv8iK1VktIUZSCEUEH6VzXii21RPEHh/VNP0qfUUsWuPOjhliRgHQKCPMZQfzrrBwKK5D6A891DTNc1u58Q3h0S4s/tfh5rGCKeeEs82ZSBlHIGd45yBzWnaeC7Sw0SWSKG5m1ZtNa1ElzeSTMuU5RS7EIN3pgcV19FAHJeFPBtnpGnaTc3UFw2qW9kkLG4vJJxAdgDrGGYqgyMfJj06V1tFFABSc0tFAHyz8TvD+uT/FDXLq30XUZ7eR0KSxWrujfuk6EDHY1yB8MeIvLkX/AIR7V8knH+gy/wDxNfaZHtTq9bD5xXoUVRilZX/Eh003c+LT4a8QGRT/AMI/q+ADn/QZf/ia0/DXhvX08WaOz6FqiIuo27Mz2cihVEi5JJGAK+v6aQecd/wrSpnuIqQcGlr/AJW7iVJLUWuHuvCWp6/rOu3d7qV3plvdL9gighWCUTWoXktvRsbmeTgYOMZ5ruR0orxTQ830SLxXomrfa77w9d6i7aZBYvLb3NuNzQyzDed8g+8rI3/AsdQRSX2hPeeLb3VtV8CS6tFdWdqsIZrR2tnXeXU75Rg/MvKkjj2r0migDidb8N3Pi2Cz0S5spdM0CO2WSZFkQO0uMRxDYxCiM/MeoJCAZANb/h86v/ZKRa1Cq30DmJ5UK7Zwp4lUA8Bhg4OCDkYxiteigAooooAQ18qaroWrDxVq8k+j6rIov7hodljKy4MjHcCFwc9jX1ZSVFSmpqzMqtJVY8rPkm40/XJ3EKaHrCREfPJ9glJ+gG2pDp2qwW+yDw9rB2jCp9gl/wDia+s6K5/qdO1jm+oUrJanz98HdI1S38fvd3mn38SmwlWSW4tpIkBLx4UbgPevoEdKaRzTq6YxUVZHZCCguVHkuo+ELud/ESDwb5+qXl9NNYawZrdBBuC+XJvD+aNrDdgL/hXoFjoP2IyXLXl9cXksO2US3kskRfjJWNmKLz6AYzW1RVFHA+H/AA3qlnJ4Ha6s9n9l6TPb3RLoxilZYABwTnOx+Vz+tZ0/g67S+1e1u9J1bU7S/vJbhJLbWWgg2SNuKSRmRcYyRlVbIA716fRQB5rqPhO8j1nW/N0vVtTs9Um85TZaw1sgDRqjJLH5iA/d+8A2VIBzivRbWFbe0hgRSixxqgUtuwAMYz3qWigAooooA//Z;" vertex="1" parent="1">
          <mxGeometry x="150" y="110" width="501" height="32" as="geometry" />
        </mxCell>
        <mxCell id="LUaTBJ1ciAUJqHl2CHKF-2" value="" style="shape=image;verticalLabelPosition=bottom;labelBackgroundColor=default;verticalAlign=top;aspect=fixed;imageAspect=0;image=data:image/jpeg,/9j/4AAQSkZJRgABAQEA8ADwAAD/2wBDAAgGBgcGBQgHBwcJCQgKDBQNDAsLDBkSEw8UHRofHh0aHBwgJC4nICIsIxwcKDcpLDAxNDQ0Hyc5PTgyPC4zNDL/2wBDAQkJCQwLDBgNDRgyIRwhMjIyMjIyMjIyMjIyMjIyMjIyMjIyMjIyMjIyMjIyMjIyMjIyMjIyMjIyMjIyMjIyMjL/wAARCAG3AzwDASIAAhEBAxEB/8QAHwAAAQUBAQEBAQEAAAAAAAAAAAECAwQFBgcICQoL/8QAtRAAAgEDAwIEAwUFBAQAAAF9AQIDAAQRBRIhMUEGE1FhByJxFDKBkaEII0KxwRVS0fAkM2JyggkKFhcYGRolJicoKSo0NTY3ODk6Q0RFRkdISUpTVFVWV1hZWmNkZWZnaGlqc3R1dnd4eXqDhIWGh4iJipKTlJWWl5iZmqKjpKWmp6ipqrKztLW2t7i5usLDxMXGx8jJytLT1NXW19jZ2uHi4+Tl5ufo6erx8vP09fb3+Pn6/8QAHwEAAwEBAQEBAQEBAQAAAAAAAAECAwQFBgcICQoL/8QAtREAAgECBAQDBAcFBAQAAQJ3AAECAxEEBSExBhJBUQdhcRMiMoEIFEKRobHBCSMzUvAVYnLRChYkNOEl8RcYGRomJygpKjU2Nzg5OkNERUZHSElKU1RVVldYWVpjZGVmZ2hpanN0dXZ3eHl6goOEhYaHiImKkpOUlZaXmJmaoqOkpaanqKmqsrO0tba3uLm6wsPExcbHyMnK0tPU1dbX2Nna4uPk5ebn6Onq8vP09fb3+Pn6/9oADAMBAAIRAxEAPwD3+iiigAooooAKKKKACiiufn8beFYLiS3n8SaRFNE5SSOS9jVkYHBBBPBBoA6Ciud/4T7wf/0NWif+B8X/AMVR/wAJ94P/AOhq0T/wPi/+KoA6Kiud/wCE+8H/APQ1aJ/4Hxf/ABVH/CfeD/8AoatE/wDA+L/4qgDoqK53/hPvB/8A0NWif+B8X/xVH/CfeD/+hq0T/wAD4v8A4qgDoqK53/hPvB//AENWif8AgfF/8VR/wn3g/wD6GrRP/A+L/wCKoA6Kiud/4T7wf/0NWif+B8X/AMVR/wAJ94P/AOhq0T/wPi/+KoA6Kiud/wCE+8H/APQ1aJ/4Hxf/ABVH/CfeD/8AoatE/wDA+L/4qgDoqK53/hPvB/8A0NWif+B8X/xVH/CfeD/+hq0T/wAD4v8A4qgDoqK53/hPvB//AENWif8AgfF/8VR/wn3g/wD6GrRP/A+L/wCKoA6Kiud/4T7wf/0NWif+B8X/AMVR/wAJ94P/AOhq0T/wPi/+KoA6Kiud/wCE+8H/APQ1aJ/4Hxf/ABVH/CfeD/8AoatE/wDA+L/4qgDoqK53/hPvB/8A0NWif+B8X/xVH/CfeD/+hq0T/wAD4v8A4qgDoqK53/hPvB//AENWif8AgfF/8VR/wn3g/wD6GrRP/A+L/wCKoA6Kiud/4T7wf/0NWif+B8X/AMVR/wAJ94P/AOhq0T/wPi/+KoA6Kiud/wCE+8H/APQ1aJ/4Hxf/ABVH/CfeD/8AoatE/wDA+L/4qgDoqK53/hPvB/8A0NWif+B8X/xVH/CfeD/+hq0T/wAD4v8A4qgDoqK53/hPvB//AENWif8AgfF/8VR/wn3g/wD6GrRP/A+L/wCKoA6Kiud/4T7wf/0NWif+B8X/AMVR/wAJ94P/AOhq0T/wPi/+KoA6Kiud/wCE+8H/APQ1aJ/4Hxf/ABVH/CfeD/8AoatE/wDA+L/4qgDoqK53/hPvB/8A0NWif+B8X/xVH/CfeD/+hq0T/wAD4v8A4qgDoqK53/hPvB//AENWif8AgfF/8VR/wn3g/wD6GrRP/A+L/wCKoA6Kiud/4T7wf/0NWif+B8X/AMVWlpusabrMDz6Xf2t9Ej7GktplkUNgHBKk84I/OgDQooooAKKKKACiiigAoorP1LWNN0aBJ9Uv7Wxid9iyXMyxqWwTgFiOcA/lQBoUVzv/AAn3g/8A6GrRP/A+L/4qj/hPvB//AENWif8AgfF/8VQB0VFc7/wn3g//AKGrRP8AwPi/+Ko/4T7wf/0NWif+B8X/AMVQB0VFc7/wn3g//oatE/8AA+L/AOKo/wCE+8H/APQ1aJ/4Hxf/ABVAHRUVzv8Awn3g/wD6GrRP/A+L/wCKo/4T7wf/ANDVon/gfF/8VQB0VFc7/wAJ94P/AOhq0T/wPi/+Ko/4T7wf/wBDVon/AIHxf/FUAdFRXO/8J94P/wChq0T/AMD4v/iqP+E+8H/9DVon/gfF/wDFUAdFRXO/8J94P/6GrRP/AAPi/wDiqP8AhPvB/wD0NWif+B8X/wAVQB0VFc7/AMJ94P8A+hq0T/wPi/8AiqP+E+8H/wDQ1aJ/4Hxf/FUAdFRXO/8ACfeD/wDoatE/8D4v/iqP+E+8H/8AQ1aJ/wCB8X/xVAHRUVzv/CfeD/8AoatE/wDA+L/4qj/hPvB//Q1aJ/4Hxf8AxVAHRUVzv/CfeD/+hq0T/wAD4v8A4qj/AIT7wf8A9DVon/gfF/8AFUAdFRXO/wDCfeD/APoatE/8D4v/AIqj/hPvB/8A0NWif+B8X/xVAHRUVzv/AAn3g/8A6GrRP/A+L/4qj/hPvB//AENWif8AgfF/8VQB0VFc7/wn3g//AKGrRP8AwPi/+Ko/4T7wf/0NWif+B8X/AMVQB0VFc7/wn3g//oatE/8AA+L/AOKo/wCE+8H/APQ1aJ/4Hxf/ABVAHRUVzv8Awn3g/wD6GrRP/A+L/wCKo/4T7wf/ANDVon/gfF/8VQB0VFc7/wAJ94P/AOhq0T/wPi/+Ko/4T7wf/wBDVon/AIHxf/FUAdFRXO/8J94P/wChq0T/AMD4v/iqP+E+8H/9DVon/gfF/wDFUAdFRXO/8J94P/6GrRP/AAPi/wDiqP8AhPvB/wD0NWif+B8X/wAVQB0VFc7/AMJ94P8A+hq0T/wPi/8AiqP+E+8H/wDQ1aJ/4Hxf/FUAdFRXO/8ACfeD/wDoatE/8D4v/iqdB428Kz3EdvB4k0iWaVwkccd7GzOxOAAAeSTQB0FFFFABRRRQAUUUUAFFFFABRRRQAVzXgpVOhXJKgn+1dR7f9Pk1dLXOeCP+QDc/9hXUf/SyagDodif3V/KjYn91fyp1FADdif3V/KkKJg/Kv5U+kPQ0AU9NRP7KtPlX/Up29hVvYn91fyqtpv8AyCrT/rin8hVugBuxP7q/lRsT+6v5Uu4eopaAG7E/ur+VGxP7q/lTqKAG7E/ur+VGxP7q/lTqKAKWnIn2Z/lX/Xy9v+mjVb2J/dX8qrad/wAez/8AXeX/ANGNVugBuxP7q/lRsT+6v5U6igBuxP7q/lRsT+6v5U6igBuxP7q/lRsT+6v5U6igClpyJ9mf5V/18vb/AKaNVvYn91fyqtp3/Hs//XeX/wBGNVugBuxP7q/lRsT+6v5U6igBuxP7q/lRsT+6v5U6igBuxP7q/lRsT+6v5U6igClaIn2m++Vf9eO3/TNKt7E/ur+VVrT/AI+b7/ruP/RaVboAbsT+6v5UbE/ur+VOooAbsT+6v5UbE/ur+VOooAbsT+6v5UbE/ur+VOooApWiJ9pvvlX/AF47f9M0q3sT+6v5VWtP+Pm+/wCu4/8ARaVboAbsT+6v5UbE/ur+VOooAbsT+6v5VzvhoAa74tAGB/aqf+kdtXSVznhv/kPeLf8AsKp/6R21AHR0UUUAFFFFABRRRQAVzfiUA674SBGR/ar/APpHc10lc54k/wCQ94S/7Cr/APpHc0AdDsT+6v5UbE/ur+VOooAbsT+6v5UbE/ur+VOooApXaJ9psflX/Xnt/wBM3q3sT+6v5VWu/wDj5sf+u5/9FvVugBuxP7q/lRsT+6v5UuR6ilzQA3Yn91fyo2J/dX8qdRQA3Yn91fyo2J/dX8qdRQBSu0T7TY/Kv+vPb/pm9W9if3V/Kq13/wAfNj/13P8A6LerdADdif3V/KjYn91fyp1FADdif3V/KjYn91fyp1FADdif3V/KjYn91fyp1FAFLUUT7Mnyr/r4u3/TRat7E/ur+VVtR/49k/67xf8Aoxat0AN2J/dX8qNif3V/KnUUAN2J/dX8qNif3V/KnUUAN2J/dX8qNif3V/KnUUAUtRRPsyfKv+vi7f8ATRat7E/ur+VVtR/49k/67xf+jFq3QA3Yn91fyo2J/dX8qdRQA3Yn91fyo2J/dX8qdRQA3Yn91fyo2J/dX8qdRQBS1JE/sq7+Vf8AUv29jVoImB8q/lVfUv8AkFXf/XF/5GrQ6CgBNif3V/KjYn91fyp1FADdif3V/Kuc8aqo0K2IUA/2rp3b/p8hrpa5zxv/AMgG2/7Cunf+lkNAHR0UUUAFFFFABRRRQAUUUUAFFc0vjXSTq+qWBaVV023a5uLplHlbVJDhTnJKkEHjGQRnIIp+keK7fV75LNtP1CwuJYftMC3kSp58QIBZcMem5cg4YbhxQB0Vc54I/wCQDc/9hXUf/SyaujrnPBH/ACAbn/sK6j/6WTUAdHRRRQAUh6GlpD0NAFXTf+QVaf8AXFP5Cs7xfGsvgzW42GVewuFI9QY2rR03/kFWn/XFP5Cs7xfv/wCEM1zy9vmf2fcbc9M+W2M1MvhZM/hZ8uzzeQFgt41aVhhVHAUep9AK+ofCCsPBmhq7b2GnwBm9T5a818vxxx2MDyTSZY/NJK3Un/D0FfUHhBt/gvQ5MFd1hAcMORmNetcODtd2+883L7c0uXbv3N2iiivQPUCiiigCpp3/AB7P/wBd5f8A0Y1W6qad/wAez/8AXeX/ANGNVugAooooAKKKKACiiigCpp3/AB7P/wBd5f8A0Y1W6qad/wAez/8AXeX/ANGNVugAooooAKKKKACiiigCpaf8fN9/13H/AKLSrdVLT/j5vv8AruP/AEWlW6ACiiigAooooAKKKKAKlp/x833/AF3H/otKt1UtP+Pm+/67j/0WlW6ACiiigArnPDf/ACHvFv8A2FU/9I7aujrnPDf/ACHvFv8A2FU/9I7agDo6KKKACiiigAooooAK5zxJ/wAh7wl/2FX/APSO5ro65zxJ/wAh7wl/2FX/APSO5oA6OiiigAooooAqXf8Ax82P/Xc/+i3q3VS7/wCPmx/67n/0W9W6APA/jVcGPxjaQwjfPJYIQvYDzJOT7U74K2q2/i+7YnfK9k5kc9SfMj/Ie1P+MrRw+LoJnIX/AEBAWPoJJP8AGovgt50vjW6nkJRDp7hIj1x5kfzH39u1edr9Y00V/vPKTf1nTRX+898ooor0T1QooooAqXf/AB82P/Xc/wDot6t1Uu/+Pmx/67n/ANFvVugAooooAKKKKACiiigCpqP/AB7J/wBd4v8A0YtW6qaj/wAeyf8AXeL/ANGLVugAooooAKKKKACiiigCpqP/AB7J/wBd4v8A0YtW6qaj/wAeyf8AXeL/ANGLVugAooooAKKKKACiiigCpqX/ACCrv/ri/wDI1aHQVV1L/kFXf/XF/wCRq0OgoAWiiigArnPG/wDyAbb/ALCunf8ApZDXR1znjf8A5ANt/wBhXTv/AEshoA6OiiigAooooAKKKKACqOq293daVdW9jdi0u5YmSK4Kb/KYjAbGRnFXqKAPH9Q8G+Jnu9R0mOSxNu/h1rSN4LKWJHO5yqb2lYBy2CxOcgnjJzXU2lzdeIvF2j6gml39jBptpP8AaDeW7Q/vZdgEa7vvY2sSwyvA55rt6KAM7U9Jt9XijS5kvI1Q7gba8ltyfqY2Un6Gue8DabBH4fljD3RWPUr9ATcyEkC7lAyS2SeOSeT1NdlXOeCP+QDc/wDYV1H/ANLJqANj+zoP79z/AOBMn/xVH9nQf37n/wACZP8A4qrdFAFT+zoP79z/AOBMn/xVIdOgwfnuf/AmT/4qrlIehoAytOsYn062YvccxKTidwOnoDVHxRbw2nhTWLkPN+5sp3+eZ3XiNjypJBHsRWzpv/IKtP8Arin8hVDxZz4Q1of9OM//AKLapn8LJn8LPmiLU725bzp4bMRdY4msoSR/tH5eD7dq+jvDNrHceF9Jmdpgz2kLEJM6rkoDwAcAew4r5imlkuJGt7dtu3iWUfw+w/2v5V9R+EEWPwZoca/dTT4FGeeka1xYRycnzP5Hn4FycnzPpsaP9nQf37n/AMCZP/iqX+zoP79z/wCBMn/xVW6K7z0ip/Z0H9+5/wDAmT/4qj+zoP79z/4Eyf8AxVW6KAMmxsIXt2Je4/10g4ncdHYetW/7Og/v3P8A4Eyf/FUad/x7P/13l/8ARjVboAqf2dB/fuf/AAJk/wDiqP7Og/v3P/gTJ/8AFVbooAqf2dB/fuf/AAJk/wDiqP7Og/v3P/gTJ/8AFVbooAqf2dB/fuf/AAJk/wDiqP7Og/v3P/gTJ/8AFVbooAybGwhe3Yl7j/XSDidx0dh61aOnwAE77n/wJk/+KpdO/wCPZ/8ArvL/AOjGq0fumgDxKf4xQw7UXQbiSZ/uoNVkGfcnbwPevSfDF5F4i8O2uqmGe3affmIXkj7drlfvcZ6Z6V80QQraRvPO4aVhmSRuB9B6AV9EfCuUXHw50qUIyhvOIDDBx5z4P49a48PWlUm03dI8/CYidSbi3dJb+Z1H9nQf37n/AMCZP/iqX+zoP79z/wCBMn/xVW6K7D0Cp/Z0H9+5/wDAmT/4qj+zoP79z/4Eyf8AxVW6KAMm2sImubsGSf5ZgBidx/Ap555q3/Z0H9+5/wDAmT/4qi0/4+b7/ruP/RaVboAqf2dB/fuf/AmT/wCKo/s6D+/c/wDgTJ/8VVuigCp/Z0H9+5/8CZP/AIqj+zoP79z/AOBMn/xVW6KAKn9nQf37n/wJk/8AiqP7Og/v3P8A4Eyf/FVbooAybawia5uwZJ/lmAGJ3H8Cnnnmrf8AZ0H9+5/8CZP/AIqi0/4+b7/ruP8A0WlW6AKn9nQf37n/AMCZP/iqP7Og/v3P/gTJ/wDFVbooAqf2dB/fuf8AwJk/+KrD8LxrHrPixFLEDVE+8xY/8edt3PNdPXOeG/8AkPeLf+wqn/pHbUAdHRRRQAUUUUAFFFFABXOeJP8AkPeEv+wq/wD6R3NdHXOeJP8AkPeEv+wq/wD6R3NAHR0UUUAFFFFAFS7/AOPmx/67n/0W9W6qXf8Ax82P/Xc/+i3q3QB4L8ZbcT+N7OSRi0aWCFU7bvMk+Y+vbFL8G7gSeObuFAWCWD7mHQN5kfH1pnxoeZ/GlrbwgoDp6M8voPMk4Hvx+FTfBmOODxbcRRgACwfjuf3keTXnP/eNe55D/wB797voe7UUUV6J64UUUUAVLv8A4+bH/ruf/Rb1bqpd/wDHzY/9dz/6LerdABRRRQAUUUUAFFFFAFTUf+PZP+u8X/oxat1U1H/j2T/rvF/6MWrdADCcdfzo49RXkvxtaOP+xJJNoVRcZJ7D93XE/C5pLr4iaTcNujiUzeWnQt+5cZb+grmliLVOS3bX1OSWK5avs7aaa37n0nRRRXSdYUUUUAVNR/49k/67xf8Aoxat1U1H/j2T/rvF/wCjFq3QAUUUUAFFFFABRRRQBU1L/kFXf/XF/wCRq0OgqrqX/IKu/wDri/8AI1aHQUALRRRQAVznjf8A5ANt/wBhXTv/AEshro65zxv/AMgG2/7Cunf+lkNAHR0UUUAFFFFABRRRQAUUUUAFFFFABXOeCP8AkA3P/YV1H/0smro65zwR/wAgG5/7Cuo/+lk1AHR0UUUAFIehpaQ9DQBU03/kFWn/AFxT+QrP8XqX8Ga4m4qW0+cbl6j923IrQ03/AJBVp/1xT+QrP8Xsy+DNcZULMunzkKOpPltxUy+Fkz+F2Pl5mh061VI0JJ+VEX7zH/PU19Q+EN3/AAhehlwBJ/Z8G4DoD5a5r5et7dk3XNyymZhyf4UX0H+NfUHhAq3g3RZFbcr2EDA+xjWuHBW5pdfM8zAW55W17s3aKKK9A9UKKKKAKmnf8ez/APXeX/0Y1W6qad/x7P8A9d5f/RjVboAKKKKACiiigAooooAqad/x7P8A9d5f/RjVablT9Kq6d/x7P/13l/8ARjVab7p+lAHx8iNfus0qlbcHMcZ6t/tN/QV9JfDM/wDFvdMx0zN/6NevnGad5Zja2xw/8cnURj+p9q+ivhdCkHw60uJM7V87knJz5rkn8687CfxNe2x5OB/i66aaLyujtKKKK9E9YKKKKAKlp/x833/Xcf8AotKt1UtP+Pm+/wCu4/8ARaVab7p+lADdwHXilyMcV8isYdPtlSNCeyIv3mP+epr6H+Fnm/8ACutL84gynztwHQfvn4/DpXNRxHtJWtZHJh8T7aTXLZep2tFFFdJ1hRRRQBUtP+Pm+/67j/0WlW6qWn/Hzff9dx/6LSrdABRRRQAVznhv/kPeLf8AsKp/6R21dHXOeG/+Q94t/wCwqn/pHbUAdHRRRQAUUUUAFFcl4x8SWulfZNJfVLbTbnUN3+l3EyxCCJcb3BYgF+QFHqc9FNcl4U1OTxVaeG9H/t27khWyurm9ltr5vOlkSSNER5VO8YEu4jOT8vagD1quc8Sf8h7wl/2FX/8ASO5pngq7ubjR7qC7ne5ksL+4shPJy8qRyEKWPdtuAT3IrL1nVr258TeGIpdA1G2SPVJCs0sluVk/0W4GF2yk8g55A4HrxQB3VFU/tc//AED7n/vqP/4qj7XP/wBA+5/76j/+KoAuUVT+1z/9A+5/76j/APiqPtc//QPuf++o/wD4qgBbv/j5sf8Aruf/AEW9W6ybq6lNxaE2VwMTEgEpz8jcD5qtfa5/+gfc/wDfUf8A8VQB4l8arpbfxZakgs5skCIOrne/ApnwWgZPGV3cTkNO9g4OOiDzI+B/nmrPxVtLe58X293cTxWcq2CIFnDE7RJIcjYGAHPrnim/CYqviy4uLW6hvITYuoSBXDk+ZH83zqo2jGOCc5rzkn7fTvr/AJHlJP61ePfV/oe60VT+1z/9A+5/76j/APiqPtc//QPuf++o/wD4qvRPVLlFU/tc/wD0D7n/AL6j/wDiqPtc/wD0D7n/AL6j/wDiqAFu/wDj5sf+u5/9FvVusm6upTcWhNlcDExIBKc/I3A+arX2uf8A6B9z/wB9R/8AxVAFyiqf2uf/AKB9z/31H/8AFUfa5/8AoH3P/fUf/wAVQBcoqn9rn/6B9z/31H/8VR9rn/6B9z/31H/8VQBcoqn9rn/6B9z/AN9R/wDxVH2uf/oH3P8A31H/APFUALqP/Hsn/XeL/wBGLVusm+upmgUGyuF/exnJKf314+9Vr7XP/wBA+5/76j/+KoA8p+ONslxLoG8kqv2g7OzH91gn6VyXw1uQfiXpVvGu/aZjIw6L+5fA+p9K674yJLero8fnJYN+/wDmuQWyP3eSuwNyPfHXvzXNfDqztdO8a6Z5N7BcPmXbFGHDyHynycsoBOMk5PavOqr/AGhN91+h5NVXxSb11Vl92p9DUVT+1z/9A+5/76j/APiqPtc//QPuf++o/wD4qvRPWLlFU/tc/wD0D7n/AL6j/wDiqPtc/wD0D7n/AL6j/wDiqAF1H/j2T/rvF/6MWrdZN9dTNAoNlcL+9jOSU/vrx96rX2uf/oH3P/fUf/xVAFodKWuV8U+L18L6ZDe3Nlt82YQIJ5NoLFWIH7tXOflPbHXn1ytB+JC61qtvYCzt/Nm3fLBcu54UtxuiQHp3I/pUSqRi+VvUzlVhGSi3qz0Ciqf2uf8A6B9z/wB9R/8AxVH2uf8A6B9z/wB9R/8AxVWaFyiqf2uf/oH3P/fUf/xVH2uf/oH3P/fUf/xVAC6l/wAgq7/64v8AyNWh0FZeo3MzadcqbK4UGJgWLJgcdeGqyLufA/4l9z/31H/8VQBcoqn9rn/6B9z/AN9R/wDxVH2uf/oH3P8A31H/APFUAXK5zxv/AMgG2/7Cunf+lkNa/wBrn/6B9z/31H/8VXP+MLiWTRbVXtJ4wdU075mKYH+mQ+jE0AdZRRRQAUUUUAFFFFABUU0nlQu+x32KW2oMs2Ow96lqvcT/AGe1ln8uSTy0L7Il3O2BnCjuT2FAHPHxpbwNPHqGlanp8sdpLdxx3CR5mjiAL7CjsMjI4JB5q9oeuTa1Gsp0TUrGF4lljluzDtkB6YEcjHODnkCuPSCG58UPqVrpmu3OnvY3CaiupQTE7WwRHAs3zgk5yqfLgDuBVzw1YwReL1n0DR7zS9HFk6Xiy2z20c025PL2xuAdwAky2MYIGTQB39c54I/5ANz/ANhXUf8A0smrS1PSbfV4o0uZLyNUO4G2vJbcn6mNlJ+hrnvA2mwR+H5Yw90Vj1K/QE3MhJAu5QMktknjknk9TQB2VFVP7Og/v3P/AIEyf/FUf2dB/fuf/AmT/wCKoAt0h6Gqv9nQf37n/wACZP8A4qkOnQYPz3P/AIEyf/FUAGm/8guz/wCuKfyFUfFpA8IaySQALGfJ/wC2bVJp1jE+nWrl5+YlJxO4HT0Bqj4ms4Y/C2rP+9fbZTHbJKzqfkPBUkgj2PBqZ/CyJ/C7nzDzqZ7izU/Qyn/4n+dfU/hPA8IaIAMD7DDgf8AFfNVxrt0jLb20NkZ2HA+xxbUX1Py/pX0Z4XtEm8KaNJLLO0jWULMVkZASUXOFUgAewGBXHhN3bY8/A/E7bW0X6nSUVU/s6D+/c/8AgTJ/8VR/Z0H9+5/8CZP/AIqu49Mt0VU/s6D+/c/+BMn/AMVR/Z0H9+5/8CZP/iqADTv+PZ/+u8v/AKMardZNjYQvbsS9x/rpBxO46Ow9at/2dB/fuf8AwJk/+KoAt0VU/s6D+/c/+BMn/wAVR/Z0H9+5/wDAmT/4qgC3RVT+zoP79z/4Eyf/ABVH9nQf37n/AMCZP/iqALdFVP7Og/v3P/gTJ/8AFUf2dB/fuf8AwJk/+KoANO/49n/67y/+jGq03Cn6VlWNhC9uxL3H+ukHE7jo7D1q0dPgwfnuf/AmT/4qgGfJ2YNNtgFBPOAByzsf5k19E/Cwyt8ONKMyqshMxKg5A/fPgflXgtvqN63766isjJ1VRZQ/ux6A7c/WvdvhysWpeBdOuy7/ALwzD9y7RrxK44VSAOnYc9a87CcvtHbV9zysDy+1dnd21Z3FFU/7Og/v3P8A4Eyf/FUv9nQf37n/AMCZP/iq9E9Ut0VU/s6D+/c/+BMn/wAVR/Z0H9+5/wDAmT/4qgAtP+Pm+/67j/0WlWj901lW1hE1zdgyT/LMAMTuP4FPPPNWjp0GD89z/wCBMn/xVAM+Tre3Ks1zcspnYcn+FF9B/jX0T8LZkn+HOlyISVYzY464mcZrwCPWb2+kLLFZi0HHzWUJ8381+7/Ovfvh7BHd+B9OmkLozeYNsLtEoxI44VSAOnYV52Gt7V662+48rBpKs7vW33eR2tFU/wCzoP79z/4Eyf8AxVL/AGdB/fuf/AmT/wCKr0T1S3RVT+zoP79z/wCBMn/xVH9nQf37n/wJk/8AiqAC0/4+b7/ruP8A0WlW6ybawia5uwZJ/lmAGJ3H8Cnnnmrf9nQf37n/AMCZP/iqALdFU/7Og/v3P/gTJ/8AFUf2dB/fuf8AwJk/+KoAuVznhv8A5D3i3/sKp/6R21bH9nQf37n/AMCZP/iqw/C8ax6z4sRSxA1RPvMWP/HnbdzzQB09FFFABRRRQBG8UcuPMjR8dNyg1zCeBtPt9O021s7y+tJtNDi2u4HQTBX++pypVgcDgr/CPSurooAztH0m20TTY7C03mNCzM8jbnkdmLM7HuxYkk+9ZviT/kPeEv8AsKv/AOkdzXR1zniT/kPeEv8AsKv/AOkdzQB0dFFFABRRRQBUu/8Aj5sf+u5/9FvVuql3/wAfNj/13P8A6LerdAHgfxpt3uvGtojMBbiwQso6ufMk4Pt/Opfg5LF/wm1xbKRuXTnbAHQeZGPwqH40zsvjK0t4AGnewQjPRB5knzH/ADzUnwVtltvFl0AS7mycu56sd6cmvNf+8e930/zPJf8AvS5u+i/U95ooor0j1gooooAqXf8Ax82P/Xc/+i3q3VS7/wCPmx/67n/0W9W6ACiiigAooooAKKKKAKmo/wDHsn/XeL/0YtW6qaj/AMeyf9d4v/Ri1boA8e+OVwlsmhu+ST54VV5LH93wK474W27n4i6XdXGDMfNAXqIx5T8D39TXZ/GxI2m0KRgCyC42k9s+Vn+VcX8MLh7r4k6U0WBboZgWI++fJcYHsPWvNqf7xp3V/wANDyan+9e73V392h9J0UUV6R6wUUUUAVNR/wCPZP8ArvF/6MWrdVNR/wCPZP8ArvF/6MWrdAHm/wAZSo8J2hbGBfIcnt+7krzT4YyyXnxH0mRCVt0MuOOZD5LjP0/nXo/xrgW58IWUbMwX+0EJA/iHlycH2/wrz34bTxr8SdHtlBLfviQo4QeS/J9PSvPq2+sK2+h5da31qNtXp8kfR1FFFegeoFFFFAFTUv8AkFXf/XF/5GrQ6Cqupf8AIKu/+uL/AMjVodBQByXj/wASXvhfRIL2xjgklkuVhImBK7SrHsRzlRXn+l/FzX9R8SabpgtNOIubqKGZljkHlxswBOd/3sE4rovjWZ/+EPskt9u9tQRdzdFHlyc4715J4USKz8T6Ku7G/UbcbmPzMxkXr6muGtVlCqkn20PNxFaUKySfbQ+p65zxv/yAbb/sK6d/6WQ10Y6Cuc8b/wDIBtv+wrp3/pZDXcekdHRRRQAUUUUAFFFFABRRRQAUUUUAFc54I/5ANz/2FdR/9LJq6Ouc8Ef8gG5/7Cuo/wDpZNQB0dFFFABSHoaWkPQ0AVNN/wCQVaf9cU/kKz/F+/8A4QzXBGQJP7PuNpPQHy2xWhpv/IKtP+uKfyFZ/i+RYvBmuSN91NPuGOBngRtUy+Fkz+F2Pl5Eh0+2Z3ckn5ndvvMf89BX1B4RYv4L0NipUtYQHaeo/drwa+XYYZLhxcXC7dvMcR/h9z/tfyr6l8J8+D9FP/TjB/6LWuHCW5pX1Z5uAtzyu7vqbVFFFegeoFFFFAFTTv8Aj2f/AK7y/wDoxqt1U07/AI9n/wCu8v8A6MardABRRRQAUUUUAFFFFAFTTv8Aj2f/AK7y/wDoxqtN90/Squnf8ez/APXeX/0Y1Wm+6fpQDPj9mbUnKKStqpwzjgyH0H+z6nvX0j8MkVPh7paqAFAlAA6f616+cZ5xDtt7dFMzDCqOAo9T6AV9FfCyN4vhxpSSSF3HnFmPcmZzXnYT4+yt/TPJwH8TsraL57naUUUV6J6wUUUUAVLT/j5vv+u4/wDRaVab7p+lVbT/AI+b7/ruP/RaVab7p+lAM+Q57gowtrcK0zDgfwovqf8ACvon4WRGH4c6UhcuR5xLN1JMzk187osOnW7PIxJPzO7fec/56Cvoj4WO8vw60qR0KM3nHaeoHnPjPvivOwfxu21jyMB/EfLtbfuztKKKK9E9cKKKKAKlp/x833/Xcf8AotKt1UtP+Pm+/wCu4/8ARaVbPSgBnUdKUdK8D1jx/wCLrPxNq8A1cJbxXk0cEK28RCRq5C8lck4A6mvQ/hf4jv8AxN4du7u/uvtMkV68Afy1TgIhwNoAPLHmsIV4zm4I5qeJhOo4RT0+47uuc8N/8h7xb/2FU/8ASO2ro65zw3/yHvFv/YVT/wBI7atzpOjooooAKKKKACiiigArnPEn/Ie8Jf8AYVf/ANI7mujrnPEn/Ie8Jf8AYVf/ANI7mgDo6KKKACiiigCpd/8AHzY/9dz/AOi3q3VS7/4+bH/ruf8A0W9W6APCfjNJHB4tt5ZCABYJk9z+8kwKh+C6TP40uriYlAdPdUi9B5kfJ9+Pwp/xktxJ44tJnJYJYJtU9A3mSc/Wk+DVwJ/G95HGpaNLBwz9t3mR/KPXvmvOX+8adzyF/vfu99T3qiiivRPXCiiigCpd/wDHzY/9dz/6LerdVLv/AI+bH/ruf/Rb1boAKKKKACiiigAooooAqaj/AMeyf9d4v/Ri1bqpqP8Ax7J/13i/9GLVugDxv46QtcnQYy+2H/SDIB1P+rwM+nXNcr8Np4oviLo9uByfNwoH3QIX5PoO1dV8c52iOgxxJumkFwFB6DHlZJPoM1yvwttlg+IGmEkvK5lLuepPlP8AkPavOq/7wuburHkVv96XN3Vvw1Po6iiivRPXCiiigCpqP/Hsn/XeL/0YtW6qaj/x7J/13i/9GLVugDzP42NKvhCyECBpG1BFBPRf3cnJrz34WWyW3j7SsMWdzKXdurHynr0P41Spb+ELWaRsIt8g/wDIcleb/C+OWb4i6Tczgrgy+XFn7oML8n3P6V59W/t10WnzPLr3+sx6K6+Z9J0UUV6B6gUUUUAVNS/5BV3/ANcX/katDoKq6l/yCrv/AK4v/I1aHQUAea/GmZLfwdaSucf6coAHJJ8uTAA7mvIPCMLy+MNGubkfP9ug8uPqIx5i/mfevYvjKit4UstwDbb9GGex8uQZ/WvHfDE7XPjPRRA22GPULffJj72JF+Vfb1NedX/jaeWp5OJ/j6eV2fVQ6Cuc8b/8gG2/7Cunf+lkNdGOlc543/5ANt/2FdO/9LIa9E9Y6OiiigAooooAKKKKACiioppPKhd9jvsUttQZZsdh70AS0VzEXjK0juJINUsL7SWW2ku1N6ibXijxvIKOw+UEEg4PPSpdI8V2+r3yWbafqFhcSw/aYFvIlTz4gQCy4Y9Ny5Bww3DigDoq5zwR/wAgG5/7Cuo/+lk1dHXOeCP+QDc/9hXUf/SyagDo6KKKACkPQ0tIehoAq6b/AMgq0/64p/IVQ8Wf8ihrP/XjP/6Lar+m/wDIKtP+uKfyFZvi9PM8Ga3HkjdYTjI6jMbdKmfwsip8LPlySR7x2ghYrGDiSUdvZff37V9SeEUWPwZokajASwgUD0AjWvl+SSOyhSKJMueI4h1Y/wCHqa+n/CIb/hC9E37fM/s+33bemfLXOK4sHu7bHnZfu7aL+tTdooorvPUCiiigCpp3/Hs//XeX/wBGNVuqmnf8ez/9d5f/AEY1W6ACiiigAooooAKKKKAKmnf8ez/9d5f/AEY1Wm+6fpVXTv8Aj2f/AK7y/wDoxqtN90/SgGfIccUdlE8sj5c/NJKerH/D0FfRPwtkaX4c6XIUZdxmIVuuPOfH6V85xpJduJ5wVjB/dRHt7t7+3avpD4ZMG+HumlSMZmHH/XZ687C/xXfex5GC/jO+rt/lodhRRRXonrhRRRQBUtP+Pm+/67j/ANFpVo/dNVbT/j5vv+u4/wDRaVab7p+lAHyBBC9xKtzcLt28xRH+H3P+1/Kvo/4YyLJ8PdMZSGGZhkeomcGvm+SR72RoLdisanEso7f7K+/v2r6P+F8SQ/DvSo4wFVRKAP8Atq9edhf4mvbY8nA/xXfe23ZXOyooor0T1gooooAqWn/Hzff9dx/6LSrZ6Gqlp/x833/Xcf8AotKtnoaAPlPxWXvfF+twRllgS/uFkccFj5jZVf6mvY/gzGkXg+6RFAVb1gAOn+rjryHxfciHxXq8ca755L6fag/66Nkn0HvXrXwViaHwheiSQvI+oOzN2z5cfT0HFedQv7XstTycN/H7LW3+Z6bXOeG/+Q94t/7Cqf8ApHbV0dc54b/5D3i3/sKp/wCkdtXonrHR0UUUAFFFFABRRRQAVzniT/kPeEv+wq//AKR3NdHXOeJP+Q94S/7Cr/8ApHc0AdHRRRQAUUUUAVLv/j5sf+u5/wDRb1bqpd/8fNj/ANdz/wCi3q3QB4H8afOl8a2sEYKIdPQvKOuPMk+Ue/v2qX4NLHD4unhQBf8AQHIUegkj/wAab8aroQeL7RQN8r2SBEHUnzJPyHvTPgrbmPxjdyzHfPJYOC3YDzI+B7V52v1jXRX+88l3+ta6K/3nvlFFFeiesFFFFAFS7/4+bH/ruf8A0W9W6qXf/HzY/wDXc/8Aot6t0AeefEvxvqXg4aYNMt7aea8Evyzqxxt2c8MMD5ufwqt8PvHuseKNakstSgsUCWzS7raN1ywZR/Ex4+Y1m/G90iGiSOQoUXGWPYfu6wfgq8s/jO6nOUhOnuEQjlv3kfzH09hXHKc/b8q2/wCAedKrU+s8ido3X5bHvlFFFdh6IUUUUAVNR/49k/67xf8Aoxat1U1H/j2T/rvF/wCjFq3QB5D8b5FhXRZJGAUCfk/9s64r4XrJP8RtKuJcoimbyo+hGYXGT747dq7H4328c83h9nJIj+0MF7E/u8E/T+tch8NLrzPiXpUMQ3BPN81uy/uXwB6mvOn/ALzpvdfoeRU/3v3d7q/lsfSNFFFeieuFFFFAFTUf+PZP+u8X/oxat1U1H/j2T/rvF/6MWrdAHm3xmjSTwpYlkB26gjDPY+XJz+teb/DS4ab4l6XHGoaJDMJHPTPkvwPU+tei/GuOSXwfZxRybA2oJvI67fLkzj36V578Mmgg+IOjQLhSxmCqPaFya8+tb6xHq9Dyq9vrUer0+R9HUUUV6B6oUUUUAVNS/wCQVd/9cX/katDoKq6l/wAgq7/64v8AyNWh0FAHmfxqhNx4Osog5RDqCb8dSvlycZ7dq8l8NSxW3i3QYETltQt1VFHRfMXJ+gr1v41ytD4QsjHGXkfUEVR2z5cnX0HFeS+ELfyfFejySNvme+g3P/20XAHoPavOxP8AGV9tDyMV/HXNtpZH1MOlc543/wCQDbf9hXTv/SyGujHSuc8b/wDIBtv+wrp3/pZDXonrnR0UUUAFFFFABRRWDqXizStLujZyS3FzeqATa2VtJcSqDyCyxg7ePXFAG9Ve4n+z2ss/lySeWhfZEu52wM4UdyewrH0/xhpOoXaWZa5s7yT7lvf20ls7/wC6HA3f8BzXQUAeSa1olx4ju9S/sK01jF5pt3DcPq6SoqO2DGkPnfMuWHIT5MAZ6CuktLm68ReLtH1BNLv7GDTbSf7Qby3aH97LsAjXd97G1iWGV4HPNdvRQBnanpNvq8UaXMl5GqHcDbXktuT9TGyk/Q1z3gbTYI/D8sYe6Kx6lfoCbmQkgXcoGSWyTxyTyeprsq5zwR/yAbn/ALCuo/8ApZNQBsf2dB/fuf8AwJk/+Ko/s6D+/c/+BMn/AMVVuigCp/Z0H9+5/wDAmT/4qkOnQYPz3P8A4Eyf/FVcpD0NAGVp1jE+nWzF7j5olJxO4HT0Bqj4ptVtfCesTw+a8sdlO6K87srERsQCCSCPY8Vs6b/yCrT/AK4p/IVn+LWVfB+tsxAUWE5JPYeW1TL4WTP4WfNsOoXUUZmuBYNLg5f7FCAo64B29B719EeF4Ibvwpo9yWmzNYwSfJK6LzGp4UEADnoBxXzGqtqJDsCLVTlVPBkPqfb0HevqbwmD/wAIjo2f+fGD/wBFrXFhLuT5nr+R52Bb55czu/yL/wDZ0H9+5/8AAmT/AOKpf7Og/v3P/gTJ/wDFVborvPTKn9nQf37n/wACZP8A4qk/s6D+/c/+BMn/AMVVyigDJsbCF7diXuP9dIOJ3HR2HrUesfZ9J0S/1F/tDraW8k5U3Ui5CKWxnPHTrV7T/wDj2f8A67y/+jGqh4tAPhDWQRkGxnBB7/u2pSdk2TN2i2eW23xhW5Qyf8I9cxoT8m7VZMsPUjbxXqekrDqej2d/i5j+0wRzbPtUh27lBxnPOM18tzzPK5trY4f+OTqIx/U+1fUPhAKngvRIwSQmnwLk9TiNetcmGqTnJ87+RxYOtUqSfO/RGj/Z0H9+5/8AAmT/AOKpf7Og/v3P/gTJ/wDFVborsO8qf2dB/fuf/AmT/wCKo/s6D+/c/wDgTJ/8VVuigDJsbCF7diXuP9dIOJ3HR2HrVo6fDg/Pc/8AgTJ/8VS6d/x7P/13l/8ARjVab7p+lAM+TpdcvJ5zb2yWY2n95L9jiIX2Hy8n+Ve9/Dq1juPAunSsCjEy5WBjEg/ev0VMKPwHXmvnpnh0+2WNFJJ+VEH3mP8Anqa+ifhZ5n/CutK84jzCZi23oP3z8fh0rz8K25+VjysC26j7W+/zOo/s6D+/c/8AgTJ/8VR/Z0H9+5/8CZP/AIqrdFegeqVP7Og/v3P/AIEyf/FUf2dB/fuf/AmT/wCKq3RQBk21hE1zdgyT/LMAMTuP4FPPPNWjp8IUnfc/+BMn/wAVS2n/AB833/Xcf+i0q0fun6UAz5Tl1qSzjSOK3s9x/wBXElnEOf8Avngepr3P4cQPdeAdMnu3fz3MpfyGaJP9a/AVSAOPbnr1NfPcEBg3XFw4aZhlmPAUeg9AK+ivhXMtx8OdLlUHaTNjcMZHmvXn4SV5tb6bnlYGV6jW+m/mdR/Z0H9+5/8AAmT/AOKpf7Og/v3P/gTJ/wDFVbor0D1Sp/Z0H9+5/wDAmT/4qj+zoP79z/4Eyf8AxVW6KAMm2sImubsGSf5ZgBidx/Ap555q1/Z8H9+5/wDAmT/4qltP+Pm+/wCu4/8ARaVbPSgD5m8Q3zWfiXWWItTtvZx5klrEW2iRsAsVycDuSSa9L+EUrat4Vu7idGixeuqCImEFPLjIJVMDOSffGK8j8TwvdeM9aaddsEeoXGyP+9iRvmb29BXsXwadX8KXoDA7b91OOx8uM4/WvPoP9603fc8rDP8AftN3evojvP7Og/v3P/gTJ/8AFVieF41j1nxYiliBqifeYsf+PO27nmunrnPDf/Ie8W/9hVP/AEjtq9A9U6Oiiq17e2unWkl3e3EVvbxDLyysFVR7k0AWaK5X/hPNKJ3C01p7b/n6XSLkxY9c7OR74xW7p2p2WqWaXVjdRXED52vG+RkdR7Edx2oAu0UUUAFc54k/5D3hL/sKv/6R3NdHXOeJP+Q94S/7Cr/+kdzQB0dFFFABRRRQBUu/+Pmx/wCu5/8ARb1bqpd/8fNj/wBdz/6LerdAHhPxjjiXxpBcMFDDTkUseyiSQ1D8FZpbnxpdS422/wBgcICOWPmR/N7D0o+NFs1x41tA7D7OthGSg/ibzJOvsOOKl+Ds0beOLq3Xl0092bA4X95HgH3/AMK83T6z3d/uPI/5i+7v9yPd6KKK9I9cKKKKAKl3/wAfNj/13P8A6LerdVLv/j5sf+u5/wDRb1boA8d+ONss8vh8uSVT7QdnZj+6wT9Kyfg5co3ji7gXLMmnuWI6D95HgH3rV+OTTFtAihGN/wBo3OeigeV+Z54rL+C8Mdt4ruY0GAbFyeclj5keSfevPl/vKv8AL7jy6lvra5n2t9x7vRRRXoHqBRRRQBU1H/j2T/rvF/6MWrdVNR/49k/67xf+jFq3QB438dFmc6BFD8ocXAeTuo/ddPc1yvwxSG18f6PCuFz5u0d2PkuTXWfHS5W2XQiQXZvPCIvVj+74Fcj8LbZl+ImmXE53TN5o9lHlPwP8e9ebV/jq+1189jya3+9K+iuvm9D6Qooor0j1gooooAqaj/x7J/13i/8ARi1bqpqP/Hsn/XeL/wBGLVugDzL41zm38H2bLGzu1+iqo7ny5PyHFed/Cy2MfxC02eUh7h/Ny3ZR5T8L6CvSfjKyp4RtCxG1b5SSe37uSvM/hhJLd/EfSZwWS3Xzto6GT9y4yfb0/OuCrf26t5f8MeXWv9ZVtNrv9D6UooorvPUCiiigCpqX/IKu/wDri/8AI1aHQVV1L/kFXf8A1xf+Rq0OgoA84+MzrH4RtHchVF6pJPQfu3rxzwoHvPF+iTyhlhjv7do0PBY+YuGb+gr2D40Qxz+E7FZBuC6gj47EiOTr615F4buC/jTRYIACV1C3MjHoq+YvH1PpXnV/42m+nyPJxP8AvHu76fI+qB0Fc543/wCQDbf9hXTv/SyGujHSuc8b/wDIBtv+wrp3/pZDXonrHR0UUUAFFFFABXGeJfEupaNf3w02wtJoNPsRqWoNM7I8iEuAqYGN22F+W44UV2dcH4x0/wANXV5qlxqmn3tzPaaM1xcmC7lhV4FMhWNgjqGJPm4yD0Oe1AF3RdR1/wDt6HTPEKabKbqza9t2s43XyijorI24ndjzUwwx0PFdfXn/AIQs9Ps/EhV/D+o6VqTWLNA15qT3Ykg3pvC5kcLhvKz0PIr0CgAooooAK5zwR/yAbn/sK6j/AOlk1dHXOeCP+QDc/wDYV1H/ANLJqAOjooooAKQ9DS0h6GgCrpv/ACCrT/rin8hWf4tVX8Ha0rAFWsJwQe48tq0NN/5BVp/1xT+QrO8Xh28Ga4Ebax0+cK2Oh8tuamfwsmfws+XZ53LfZrbBlI5JHEY9T7+gr6h8IDZ4L0Ncs23T4Fy3U/u15NfL48nTrUkknnJJ5Zyf5k19Q+EGZvBehsy7GOnwEjPQ+WvFcWC3dtjzcv8AilyrT8zcooorvPUCiiigCnp//Hs//XeX/wBGNWd4vVm8Ga4quVY6fOA2Oh8tua0dP/49n/67y/8Aoxqz/F7bPBmuNtZtunznC9T+7bgVMvhZM/hdj5eJg021AUFuwA5Z2P8AMmvqHwfuPgvQy67XOnwFlznB8teK+XbeBy32m5wZSOFB4jHoPf1NfUXhEq3g7RXDAq1hAQR6eWtcODtzS6vueZgLc8ur6s3KKKK9A9UKKKKAKmnf8ez/APXeX/0Y1Wj90/Squnf8ez/9d5f/AEY1Wm5U/SgGfIdvblWa5uWUzsOT/Ci+g/xr6K+FkyT/AA60uRCSredg464mcZr5xBbUWyMi0U/Qyn/D+dfSPwxAHw90sAAAebgD/rq9edhf4rvvb7jycD/GfNvb7vI7CiiivRPWCiiigCpaf8fN9/13H/otKtNyp+lVbT/j5vv+u4/9FpVpvun6UAz4/UNqThnBW1U5RTwZD6n/AGfQd6+kvhmB/wAK+0z/ALa/+jXr5wnuGMn2W2wZiPmYjiMep9/QV9E/C2IQfDrSowWYr52WY5JJmckn8TXnYT+J200R5OB/idtNF89ztaKKK9E9YKKKKAKlp/x833/Xcf8AotKtnoaqWn/Hzff9dx/6LSrZ6UAfKvi2Z5fGGs21ufn+3T+ZJ1EY8xvzPtXr/wAFYY7fwfdxIvH25yT1LHy48knua8k8VyQ2fifWm2436jOQFHzMxkbp6mvWvgmJ/wDhEL0zsu9tQdtq9FHlx8Z7152H/iu22vzPJwv8Z20WvzPTK5zw3/yHvFv/AGFU/wDSO2ro65zw3/yHvFv/AGFU/wDSO2r0T1jo6zddvotK0K/1KeLzY7K3e6ZP73lqX49/lrSrM14WB8PakNUQtpxtZPtSgkZi2HeMgg/dz0NAHJHWfHFzfzabFDodteW1sl5I582WORXLBIwMqVOY3y3P8OBzXW6Ffx6toNhqkUIiW+t47raO29A3Pqea85vdF0e21IxWPhTXL25/s6G6uCmuzRvHGxk2xndMNxBR+Bkc+9ejaB9gHh3Tf7LUrp32WL7KpJOItg2DJJP3cdTQBleLrmXT7Zb3+3NS06BVK7LHT1utzYJyw8tyBgf7I96w9K1XxH4oeG1h1WHTJrfSra7uHtYo5llnm34GW3DYBHk7Tk7uG4rqtVstduLgNpesW9lCY9rJNZeed2T8yneuDyOCCOKwoPA0+jpB/wAI/rT2Mos1s7iSe2E/nKrMyvjK7XBd8HkfNjHAoA3fCurya/4W03VJUWOa4gVpUX7ofo2PbIOK57WfENleeJvDFvHDqSvFqkhYzabcRqcWtwPlZkAbk9ieOegrqtH0q30TR7PTLUN5FpCsSFjkkAYyT6nqazfEn/Ie8Jf9hV//AEjuaANj+0YP7lz/AOA0n/xNH9owf3Ln/wABpP8A4mrdFAFT+0YP7lz/AOA0n/xNH9owf3Ln/wABpP8A4mrdFAGTc38TXNoRHP8ALMScwOP4GHHHNWv7Rg/uXP8A4DSf/E0t3/x82P8A13P/AKLerdAHhXxcjuL/AMU25sfJVjZoGaeVYig3yfNtcgn24xnPPFO+Emn/ANkeJLh3KODaOGMUizOzF0OSEJPbr06VF8aJo7bxXbySHA+woAAMljvfAHqai+C0creNLq5nJVm091SPPCL5kf5ngZNef/y/7a/eeVf/AGna2v3s9x/tGD+5c/8AgNJ/8TS/2jB/cuf/AAGk/wDiat0V6B6pU/tGD+5c/wDgNJ/8TR/aMH9y5/8AAaT/AOJq3RQBk3N/E1zaERz/ACzEnMDj+BhxxzVr+0YP7lz/AOA0n/xNLd/8fNj/ANdz/wCi3q3QB5F8X2+2DR2hKqy+eNtw4gLE7MBfMK5PHasX4RWNxYeLLq+vWjd3snQR28qzbAZIzjCEntycelbPxsjjaXQZGUFlFyFJ7Z8rP8qwfgvcm48aXZjX/R1sJBvP8TeZH09hzzXA2vrGi7a/I8yT/wBr0Xa7+R7j/aMH9y5/8BpP/iaP7Rg/uXP/AIDSf/E1borvPTKn9owf3Ln/AMBpP/iaP7Rg/uXP/gNJ/wDE1booAyb6/he3UBLj/XRnmBx0dT6Va/tGD+5c/wDgNJ/8TS6j/wAeyf8AXeL/ANGLVugDyL4vRDUX0aSPYhhFx81wRDjPl9N+M9OcVyfw9t7uP4gabdPJb/ZIvNP7m4jmeQmJxwqEnAz/AF6Cul+Odubl9ARnIhX7QZEH8f8AqsD6da5X4bTxr8SNIt1BLfvSQo4QeS/J9PSvOqcv1ja70+R5NXl+tqyu7r5H0F/aMH9y5/8AAaT/AOJpf7Rg/uXP/gNJ/wDE1bor0T1ip/aMH9y5/wDAaT/4mj+0YP7lz/4DSf8AxNW6KAMm+v4Xt1AS4/10Z5gcdHU+lWv7Rg/uXP8A4DSf/E0uo/8AHsn/AF3i/wDRi1boA8y+LkKax4Ws4E3KEvkkInBhVgEkGCXwDyQce1cP4Ahls/HumMTBIiebvENxHIygxPj5FJY846D1Pau4+Nfn/wDCH2Qgxva/RdzdFHlyc471598LoI7Xx7pKKeWMpJY/MzeS+SfU1wVuX28b+R5ddx+sR5tXdW/zPoL+0YP7lz/4DSf/ABNL/aMH9y5/8BpP/iat0V3nqFT+0YP7lz/4DSf/ABNH9owf3Ln/AMBpP/iat0UAZOo30T6dcqEuPmiYDMDgdPUirQ1GDA+S5/8AAaT/AOJpdS/5BV3/ANcX/katDoKAPMvi6JtS8K2kNl+7k+2oWef90FXy5MkF8Anpx+PavM/DWlnT/EOj5ltQq30JOLqNnY7wTgBssx9Bye1enfGu4S28HWcjZOb9FVVGSx8uTAFeReELeRvGGj3VzgzG9gCqORGPMXge/qa8/EW9qubbT5nlYq3tlzbafNn07/aEGPuXP/gNJ/8AE1z/AIxvIptGtUVZwTqunfehdR/x+Q9yMV1g6Cuc8b/8gG2/7Cunf+lkNegeqdHRRRQAUUUUAFcprNhrEWuf2z4fNjdT/ZxZ3lnduUDqpLoQ6g7WG9uCMEP24rq6wtU8KaTql2b2SKaC9IAN1ZzyW8pA6AtGQWA9DmgCjpFhq8muHXPERsraYW5s7W0tZC6xqzBmLOwG5mKJwAAAvfNdHczC1tZpjHJII0Z9kS7nbAzhR3PoKydP8I6Pp10t4I7i7vE+5cX91JcyJ/umRjt/DFal3cLZ2k9yYppfJjaQxwoXd8DOFUcknHA7mgDK03xNHf6qNOuNN1DTbt4WmhjvEQeaikBipRmHBZcgkHkcVHoHipvEKRT22hanBZTBil3ceQIzgkdFlL8kf3axfCt+2sa1JrGqWepw6m8DR29rNp9xFFZwZBKb3QK0jEKWOecADgZNTTtPsT4o0abwvoF/pYikkOoyy2clrG8JjYbGDgeY28oQRnGDzQB6RXOeCP8AkA3P/YV1H/0smrS1PSbfV4o0uZLyNUO4G2vJbcn6mNlJ+hrnvA2mwR+H5Yw90Vj1K/QE3MhJAu5QMktknjknk9TQB2VFVP7Og/v3P/gTJ/8AFUf2dB/fuf8AwJk/+KoAt0h6Gqn9nQf37n/wJk/+KoOnQYPz3P8A4Eyf/FUALpv/ACCrT/rin8hWb4vcR+DNckwSF0+4bC9TiNulT6dYxPp1s5e45iUnE7gdPQGqfiW0ig8L6tKrTFks5mAeZ2UkITyCcEex4qZ/CyZ/C7nzHBA8soubkYf+CPqIx/U+9fUfhIg+D9FIOQbGEgjv8i18znWry8lKW6WYt1OJJPsUJ3n+6uV/M19H+GbSGTwrpD/vU3WUJ2xysij5BwFBAA9hwK48IveevTbsefgl7711tt2Okoqp/Z0H9+5/8CZP/iqP7Og/v3P/AIEyf/FV3HpFuiqn9nQf37n/AMCZP/iqT+zoP79z/wCBMn/xVABp/wDx7P8A9d5f/RjVR8Wf8ijrP/XjP/6LapLGwhe3Y77j/XSDidx0dh61R8T2cUfhbVmHmsVspjtklZ1PyHgqSQR7EYNTP4WRU+B3PmJmOokopItQcMw4Mh9B/s+p719S+Egq+DtEVVAVbCAADsPLWvmufXLmELBbwWRlI+RRaRAKPU/LwBX0Z4XtEl8KaPJLJMZHsoWfZK6KWMa5woOAPYcCuPCWu7bHBgd3y7dv1Okoqp/Z0H9+5/8AAmT/AOKo/s6D+/c/+BMn/wAVXcekW6Kqf2dB/fuf/AmT/wCKo/s6D+/c/wDgTJ/8VQAad/x7P/13l/8ARjVab7p+lZVjYQvbsS9x/rpBxO46Ow9atHT4ACd9z/4Eyf8AxVAM+Tp7gq4trcK0zDgfwovqf8K+ifhZD5Pw40tCxcjziWPUkzOTXgo1WSzhaSVLLd1Z/sUILn8F617r8N4/7Q8B6ZdXCyRSSeblI5DGABK4HyqQAcAZwOtefhLcz5drHlYBLnfLtb7zuaKp/wBnQf37n/wJk/8AiqX+zoP79z/4Eyf/ABVegeqW6Kqf2dB/fuf/AAJk/wDiqT+zoP79z/4Eyf8AxVAC2n/Hzff9dx/6LSrTfdP0rKtrCFrm7Bkn+WYAYncfwKeeeatHT4MH57n/AMCZP/iqAZ8nAQabbEkk85JPLOx/mTX0T8LGkf4c6U0qBHJmJXrj98+P0rwS31C+kJmuorENnMafYoT5Y+u3OfWvefh0sWo+BdOumd8uZQfJkaNOJXHCqQB07CvOwvL7R2d2eVguX2rs7u2rO2oqn/Z0H9+5/wDAmT/4ql/s6D+/c/8AgTJ/8VXonqluiqn9nQf37n/wJk/+Ko/s6D+/c/8AgTJ/8VQAWn/Hzff9dx/6LSrZ6Vk21hE1zdgyT/LMAMTuP4FPPPNWv7Og/v3P/gTJ/wDFUAfMniO3x401yeUhn+33Aj9EXzG6e57mvW/gtOlx4QvpIwSo1B0DY4bEcfI9v8K8s8Rapdy+LdYt4o7ZbWC+njYy2kbtJh2GMspJHqTya9W+FCrfeF7l5P3ZS7ZAsH7lQAifwpgd+tedRt7bV6/keVh1H6w7vXX5HpNc54b/AOQ94t/7Cqf+kdtWv/Z0H9+5/wDAmT/4qsTwvGses+LEUsQNUT7zFj/x523c816J6p09UNVs7bUNHu7C6bZb3cLW0hBxw42YHvzgVfqteWVrqNpJa3tvFcW8o2vFKgZWHuDQBx3k/EH7D/ZGzRM7PJ/tfzpN23GN/k7fv45xu259q6zSbO20zSbXTbRt0NlClsvOSAihQD74ArDHgLSAdi3GsJbf8+q6tciH6bd/T26VvWGm2el2aWlhbRW9un3Y4kCgep+p9aALlFFFABXOeJP+Q94S/wCwq/8A6R3NdHXOeJP+Q94S/wCwq/8A6R3NAHR0UUUAFFFFAFS7/wCPmx/67n/0W9W6qXf/AB82P/Xc/wDot6t0AeDfGO3R/HNpO2SyaegUHoP3kmSPem/Bi6Nx44vFjUmFLBwZOxbzI+B69+aT40xzT+M7WFSUgOnoXYHlv3knyj09zU3wb8qPxjPAmAf7PchR/dEkY/rXm/8AMTrq7/ceQ7fWtdXf7j3aiiivSPXCiiigCpd/8fNj/wBdz/6LerdVLv8A4+bH/ruf/Rb1boA8c+OkL3B0CMvth/0gyAdT/qsDPp1zWZ8HJIl8Z3FupUMNOdgo7KJIxWl8c52iOgxxpumkFwFB6DHlZJPoM1lfBW2EHi26JbfK9k5dz1J8xPyHtXBL/eVf5fceXP8A3pc3dW+7c95ooorvPUCiiigCpqP/AB7J/wBd4v8A0YtW6qaj/wAeyf8AXeL/ANGLVugDxv45yyI2gxwpmWT7RgnoAPKyT+fSuU+Flslt4/0sAlndpS7t1Y+U9df8cZkt00WSQ4UCf/2nXF/C+KWb4jaTdTgrgy+XFn7gML8n3P6V5tT/AHjsrr5nk1f967K6+b0PpSiiivSPWCiiigCpqP8Ax7J/13i/9GLVuqmo/wDHsn/XeL/0YtW6APNPjTMlv4PtJHPH25QB1JPlyYAHc15v8LoJJPiNpV1cDEn73YmeEBif8z6mvTPjKit4Ustyglb9GGex8uQZ/WvNPhndNc/ErSvJC+QhmDOf4j5L8L9O5rgqfx1byPLrX+srl8rv9D6SooorvPUCiiigCpqX/IKu/wDri/8AI1aHQVV1L/kFXf8A1xf+Rq0OgoA84+MoB8KWW4Ahb9SCe37uSvHPC0sl54y0UxsUt49QtyXHWQiReB/s+p716/8AGyD7R4Qsoi7Kp1BCwX+IeXJx/KvJfDk8cHjDQbeNNztf242r/CvmLkn0Arzq/wDGVtXp8jyMT/vCtq9PkfUw6Vznjf8A5ANt/wBhXTv/AEshrox0rnPG/wDyAbb/ALCunf8ApZDXonrnR0UUUAFFFFABXMeNHnXS7XEl4lgbtBqL2W8Srb7WyQU+YDfs3FeQu6unrmPF9rqd62iW+mXt5Zs+oZmuLVd2xBBMQXHQpvEYIPByB1IoAwfh9q1zq/8AYzRTXstva6KsN+8quEN1mPaBu+84Ak3EZ6jJr0WuL0vUtfuPGdrYarYzW/2bTrkzSw7jaXLmSDy3Q9mwJPlb5lyeoOT2lABRRRQAVzngj/kA3P8A2FdR/wDSyaujrnPBH/IBuf8AsK6j/wClk1AHR0UUUAN4NNLAZyad0+tct4sdBLaKW+chyFz1A25/mPzrSlT9pNRva5xZhi/qmHlX5ea1tL23dje01h/ZloO4hT+QrP8AF6eb4M1yM/dfT51OODgxtWN4ajQ6wJNimQQsofHIBIyM+hwPyFbPi8uPBmuFAC/9nz7QT1PltilXp+z0v0IweM+uUHUS5dWt+x8wTSraxLDAgaQjEca8D6n0Ar6f8Iqy+C9DD4Z/7Pg3EdCfLXNfMEUS2sTzTuGkYZkkbgfQegFfT/hBxL4L0ORScPYQMM9cGNa8vB25nb7zLL7c0rfebtFFFeieqFFFFAFPT/8Aj2f/AK7y/wDoxqz/ABfv/wCEM1zy9vmf2fcbc9M+W2M1oaf/AMez/wDXeX/0Y1Z/i6RYvButyMcKthcEn0Ajapl8LJn8LPl+OKOygeWWTLn5pJW6sf8AD0FfT/hB9/gvQ5ApG6wgOG6jMa9a+XI43u2E86lYwcxxHt7t7+3avqbwoc+ENF9rGH/0Ba4sH8cr7nm4D45Xd3/WhtUUUV3nqBRRRQBU07/j2f8A67y/+jGq0fumqunf8ez/APXeX/0Y1Wm5U/SgGfIEEL3Eq3Nwu3bzFEf4fc/7X8q+j/hjIr/D3TGUhhmYZHqJnBr5veR72Q29uxWNTiWQdvZff37V9H/C+JIfh3pUcYCqvmgD/tq9edhf4mvbY8nA/wAV33tt2VzsqKKK9E9YSmgjmlzWL4j1C9sNNLaebcXTHCG4RmTOCeQpB7etVCLk+VbmNetChB1JuyW5fs/+Pi95/wCW4/8ARaVaPRvpXA6D4svbu4SC8hgt7+Vg89uCSQN3l7l5+6dhIPvXfE/Kac4Sha/Uyw+Lp4jmUOlvxVz5BeRr+RooyRbqcSSDq3+yv9TX0f8ADGNI/h1pSIoCgSgAf9dXr50lmS1RIIUBkYfu414H1PoBX0T8LUkT4c6WJH3yfviWxjkzOa8vCfHptb+mcmA/iaaK2n37naUUUV6J6wUUUUAVLT/j5vv+u4/9FpVs9DVS0/4+b7/ruP8A0WlWz0oA+WPF85j8W6xFEoedr6bC9lHmNy3oK9a+CkPkeD71Wdndr92Zj3Plx/kOK8m8TLDa+KtenZvvX9w7Ox5/1jYH0HQCvWvgnJJN4OvXdNmdQfYO+3y48Z9+tedh/wCM7bankYX+O+XbX5nplc54b/5D3i3/ALCqf+kdtXR1znhv/kPeLf8AsKp/6R21eieudHRRRQB5Lc61JpPjW5bVrnWDPNFqEQt4hMyMheL7KIFUbdxTd8w53bsnivSNBS8i8O6ZHqTbr9bSJbkk5JlCDfz35zXIWUvifRYr/VJFvNSspb+882ykU/aLeMTyCN4M/eTYFOz05U84PTeE3u5PB2hvfGY3jafAZzPnzDJ5a7t2ed2c5z3oA26KKKACuc8Sf8h7wl/2FX/9I7mujrnPEn/Ie8Jf9hV//SO5oA6OiiigAoopr/cb6UCbsrlK7P8ApFjgjic/+i3q4Bx1zXlOo2H262dI5mt7jpHcIBvQ5DfiMquR3Art/B0l4/he0OoJGl2DIsgjOVJDsAR7EAHHbOK6K2H9kr3ueNlubxx0uVRs7PrrvbseTfGq58nxhaRoN872KbU/7aScn0FHwWtRB4vu5HO+aSxfe/8A20j4HoKk+MnlReMIJ32g/wBnoCx/uiSQ/wBai+CzzT+NLqZspAdPcIhHLfvI/mPp7CvGX+8adzRf71por6+fke+UUUV6J6wUUUUAVLv/AI+bH/ruf/Rb1bqpd/8AHzY/9dz/AOi3q3QB5D8b5EiTRJJGAUC45/791g/BYzS+NLqeQsiHT3CRHqR5kfzH39u1bfxut0ml8Ps5JEf2ghexP7vBP0/rWP8ABq5WTxxeQoCwj0997joG8yP5frXBL/edP60PLl/vei10v5aHvNFFFd56gUUUUAVNR/49k/67xf8Aoxat1U1H/j2T/rvF/wCjFq3QB478bYY5J9AdhkxC4Kg9Mny+cev+Nch8M7hpviXpcUShokMwkc9M+S/A9T611vxzSaVtAijOxD9o8xwfmA/dcD3Pr2rlvhk0MHxB0aBcKWMwVR7QuTXm1P8AeF11XyPIq/70r6u6+R9G0UUV6R64UUUUAU9Q/wCPZP8ArvF/6MWrZ+tczc+KdHubq502K8/0y0nj86IxOrABwcjI+YcHkZFbdpe297GZIJNyg4JwRz+NU4SSu1oYxxFKU+RSTl2vr9x598bImn8H2UQcqh1BC+3qV8uTgHt2rz74aPFD8RNGt1wC3mhVA6AQvz9K9C+NcrQeD7Ixxl5H1BFUds+XJ19BxXnnwst/J+IGmSOd8z+buf8A7ZPwPQV51b+PG/kcGI/3mPM9Lqx9H0UUV3nqhRRRQBU1L/kFXf8A1xf+Rq0OgqrqX/IKu/8Ari/8jVodBQB5p8a5JI/B9l5Me+RtQRRnoP3cnJ9q8l8I26W3inSCz7pJL+DfIx5Y+YoH4egr1340yJD4PtZZGCot6uc/9c5K8c8JxyXXjDRbmYFUW/gMUR7fvF+Zvf0HavOr/wAXstPmeTif4/ZafPyPqwdK5zxv/wAgG2/7Cunf+lkNdGOgrnPG/wDyAbb/ALCunf8ApZDXonrHR0UUUAFFFFABXLauljd319ps+oataGKJNTnmtrpo1iTDRhQQcgHy2baBjIJ611Ncv4h8IjXrmSaPVLqxFxa/Yr1IVQ/aIMk7csDtPzONw/vGgDH8E3UcmqncPEkMlxZ/aLVdVvvPSaAsvzhQx2sMrkHBAf3r0CspdIjXX4NTEhAgs2tIoQuFVWZWY5/4Ag/CrtzMLW1mmMckgjRn2RLudsDOFHc+goAsUVgab4nivtVGnXOm6hpt28LTRR3iIPNRSAxUozDgsuQSDyOKq6Z420/U720hS0vobe+Z1sbyaILDdFQSQhDEjIUkbguQOM0AdTXOeCP+QDc/9hXUf/SyaujrnPBH/IBuf+wrqP8A6WTUAdHRRRQA3HauG+IWltfjT5oJjb31sZGt5hyATtyrDurYGR/hXdd65fxZ/rLT6N/St8Kk6qT/AK0PIzypKngZzjvp+aMbwXqkN7rt5a7GhurYMrxScMV3Da49VI5z74rp/FzKng3W3YgKthOSfQeW1YPhm2hOvC6Ma+etu8YfHzbSVJGfTIFb/izB8H60CMg2M4IPf921LGX5texGUODwknFWV2fLCI1+yyyqRbg5jjPVvdv6CvqfwmT/AMIho2f+fGH/ANAWvluedpZTbWxw/wDHJ1EY/qfavqDwgip4M0SMEkJp8C5PXiNeteVhL3d/uNsBfmd9NNEb1FFFd56gUUUUAU9P/wCPZ/8ArvL/AOjGqh4s58IayP8Apxn/APRbVf0//j2f/rvL/wCjGrO8XqX8Ga2u4qWsJxuHUfu25FTP4WRU+Fny7NLJcSG3t2244klH8PsPf+VfUXhBVj8GaJGv3U0+3UZPYRrXy+7Q6fbKiKST8qIPvOf89TX1D4Q3f8IXoZcASf2fBuA6A+Wua4sHu7bHnZfu7bfmblFFFd56g0+1AHHSkwc//WrmPGut3fh7S4b6CKR4ROq3BjUFo48MS+09cELnHOMntVJX0MqtX2cHNq9uxuWBxbv/ANd5f/RjVcJwp4rjfD2rT3l5bhblZbafdICoXDBgWyCB3JzXY9uadSm6dk+quc+ExkMXGUoJqzad+6PkZ3jsYkhiTLH5Y4l6k/4epr6I+FgkX4c6UJXDSfvixUYH+ufj8OlfOsEHkbrm4dWmYZdjwFHoPQCvor4VTLP8OtLmUMFYzEbhjjzX5ry8J/EdtdNzmwH8V2101fmdpRRRXonrDe3SsDxT/wAecJ/6af0Nb/Ncl4/t72fR7drC48m5huBKoblJMKwKP/skH8Dg9q1oO1SLPOzaCng6kW7abnMjSoLzW9NvNzw3NtcRssqcEruG5D6qw4x+NepdV/CvMdBvvt8tq8kLQXHmKZLeQjeh3FfxGVbB7gV6f/Bj2rfGWumutzzeHvaKnOnP7Nl+B8iQwpao88zhpWH7yQ8D6D0Ar6K+Fkon+HWlSbGUMZiAwwcec+D+PWvnGNWvmWWQFbccxxnq3+0f6CvpL4ZHPw90zHrL/wCjXrwsL/Fd97Hbgf4zvvb7ttDr6KKK9E9YKKKKAKlp/wAfN9/13H/otKtnpVS0/wCPm+/67j/0WlWz0oA+VfE1u8/jTWpLgARx6hceWnUcSN8x9/T0r2H4NSI/hW+2sG26g6nHY+XHx+teO+LZnuPGOtW1u2Ct9OJZR/D+8bge/wDKvYfgtEkHg67ijGFF8x/8hx151D+Nr56Hk4b/AHj3vOyPSq5zw3/yHvFv/YVT/wBI7aujrnPDf/Ie8W/9hVP/AEjtq9E9Y6Os3W54LTRrm8uZZore0X7VI0LbW2x/OR9DtwR3BI71pVVvrKDUtOurC5Xdb3MTwyKDjKsCCPyNAHn3iGKOHUENs/i68urqJ7+W0s9S8sW0ORngsB1bARSc4OOld3pEtvNo1hNazyz2728bRTSsWeRCoIZieSSMEmsfSvC02nm+nuNZub2/ubZbRLmaNAYYk3bQFUAE5cknucVt6Xp8Wk6RZabASYrSBIEJ6lUUKP0FAF2iiigArnPEn/Ie8Jf9hV//AEjua6Ouc8Sf8h7wl/2FX/8ASO5oA6OiiigApG+6fpS01/uN9KEJ7HkGkav9v321zF9m1G3x59uTnHoyn+JD2Nel+Hsf2LB9W/ma851LT2uUaa0kS3v1TZFcFMlRuVtp9VJUAj0zXeeDp7i48L2kl5bfZ7gmQSRbtwBDsMg9wcZHsRXpYttQs+/6HxvD8YSxXtYaLlenb3unl/TPJfjPa/aPHFm0jZhWwQiPsW8yTk+vbinfBy4R/HN3AuWZNPcsR0H7yPAPvUfxpeVvGlrbQAqzaejNJjhF8yT8zwcCpfgxAlt4ruI0GB9hckk5LHemSfevm3/vHvd9D3H/AL2ubvov1Pd6KKK9I9cKKKKAKl3/AMfNj/13P/ot6t1Uu/8Aj5sf+u5/9FvVugDxv46CZzoEUPyhxcb5O6j9109zWZ8GYYrfxXPFHgAWDnHc/vI8mtX453CWw0IkF2fzwiDqx/d8Csb4LQOvjG7nuDumewcHHRR5kfA/zzXnyv8AWNdvz0PLnf62r6K6+eh73RRRXoHqBRRQeAaAKeof8eyf9d4v/Ri1Z56iuXvfEYZ2gFsD5cw539dr/T2rZ0rUjqVu0hj8sq20gNnsD6e9ayo1IrmktDgoZlha9T2VOV5a9H03PLvjncfZv7CAXfK/nhEHVj+7/T1Ncl8LLYx/EPTZ5SHuH83J7KPKfhfQV2XxsMYOiSNtGwXHzHsP3ef5VxPwvklu/iPpU4JS3Xzto6GT9y4yfb0/OvJqf7xp3V/8jCr/AL1ppqrv7tD6Uooor0T1gpG+6fpS0h6GgT2PK9d01LnU5byHEeoQmVbeYjhS24YYfxLkg49QK6T4f3s+oaPcNd2rW11DcGGaM8ruCKcqe6kEEH3rnzqVtf6pqUUTHzrW6eKWNxhlIY4OPQjkHuDXYeFs/Yph28z/ANlFeliEvZXXkfGZPKUcc6dRapyt3X/Adzl/jNIkfg+1dyFUXqkk9B+7krzT4XtLdfEbSbhtyQqZfLToW/cuNzf0Fek/GiCOfwnYiQbguoI2OxIjk6+tedfDW5B+JelW8a79pmMjDon7l8D6n0r56r/vCtvofQVv96Vlrp8kfSFFFFd56gUUUUAVNS/5BV3/ANcX/katDoKq6l/yCrv/AK4v/I1aHQUAebfGeGOXwpYh1B2agjgH18uT/GvIfDVw0vjTRYYMbU1C3Mrnov7xeB7n9K9d+NiTSeD7JIXCFtQQM3cL5cmce9eR+GPJs/FGhQgY36hboqjkkmRef6k152It7ZdXoeRiv94XV6WR9TjpXOeN/wDkA23/AGFdO/8ASyGujHArnPG//IBtv+wrp3/pZDXonrnR0UUUAFFFFABXNeMtRudK0mK6srww3gnAt4Ps5m+2PtbEO0fNzycgjG3PQGulrmfGN9PZafZGO+On2896kN1fhVJtoirfMCwKrlgqbiCBvzQBn+Ftb1fV9duk1z/iVXkMJ2aJtDYTK/vvN/5a88fJgLnB5NdZd3C2dpPcmKaXyY2kMcKF3fAzhVHJJxwO5rh/BHiSfXZ9FVb9L4roSyX7Ltbyrhmj2hmA4Zh5mV/2AcV6FQB594duW8Q6ncajqdtqltqc9q8FtbzadcRRWUJwSvmOgVpGIUsc9gBwMmnpUV/eWPg7QH0q+trjRJonvZpYGWFRDC0Y2SH5X3kjG0ngnOK9NooAztT0m31eKNLmS8jVDuBtryW3J+pjZSfoa57wNpsEfh+WMPdFY9Sv0BNzISQLuUDJLZJ45J5PU12Vc54I/wCQDc/9hXUf/SyagDY/s6D+/c/+BMn/AMVR/Z0H9+5/8CZP/iqt0UAU/wCz4P79z/4Eyf8AxVcd45064EdrNps/l3ke8oZiZAw+XKEtkqDgZK4PA64rvO9cx4t/1lp9G/pW+GipVUn5/keTndWVHAzqR3VvzRi+Eby11TVLuBHlWS2LRzJvaN1wwweCDtI5B6EVveKLRYfCesPFJMsi2UzKXkZwCI2xlWJBHseDWP4ZsrceJvt4iAufsrQmQcEoWU4PryOPTn1roPF7bPBmuNtLbbCc4HU/u24FLFJp/InKZxnhZSi3u9/62Pm59XksoMiGzJJ6LZQ7nY+wXqa+ifC1qtz4S0eebzklksoHdUmdVDGNSQACAB7DivmW3gfd9oucGUjhQeIx6D39TX1F4RZX8G6KykENYQEEdx5a15WDd5NXua4B3nJXv5mh/Z0H9+5/8CZP/iqX+zoP79z/AOBMn/xVW6K7z0yp/Z0H9+5/8CZP/iqP7Og/v3P/AIEyf/FVbooAybGwhe3Yl7j/AF0g4ncdHYetUfFFslr4U1i4j855IrKd1VpmYEiNiAQTg/Q8Vsaf/wAez/8AXeX/ANGNVHxYQPCGtEkACxnyf+2bVM/hZM/hZ81W+oXYTz7pLAzYJyLKEBB6A7c4r6M8L28N34T0i5LzfvbKCT5JnVeY1PABAA9hxXzBzqfTItFP0Mp/w/nX1R4Sx/wh+igDAFjBgf8AbNa4sI25Pmev5Hn4FtzlzPXt2L39nQf37n/wJk/+Ko/s6D+/c/8AgTJ/8VVyiu89Ipf2fDnl7j/wJk/+KrF8SW8cNjGVaU5kH35WYdD2JrpR6muS8e6lHpOkW1xPHIbY3KpLIgyIgVb52/2c4B9M5rWhb2ivsefmim8HUUN7aWOe0S0vIvFdkkBQ6ZIpjeJcRtBtjbayFcEg4CkHpxjjIr0M6fCB9+5/8CZP/iq4/wAPMr6vaujBlbJBByCMGu7PKn6VpioqMlbsjiyKtOrQqOe6k1+CPk+PVru+cs8NmLTsj2MJMnucrwPSvffh7Cl54H0+aTzFY+aCIpGjUYlccKpAHTsK+dp52Lm2tsGYjkkcRj1Pv6Cvor4WxCD4c6VGGZtvnZZjkkmVySfxrxsK256vpsdGClJ1NX00X6nUf2dB/fuf/AmT/wCKo/s6D+/c/wDgTJ/8VVyivQPVKP8AZ8PXfc/+BMn/AMVWN4ktkhsoyjSnLj78rMOh7E10tcj4+W+OkW8umvGbiK4DmKTgTLtYFM9ic5B9QO2a2oP95G55+apywc0nZ232OcWwM+rWVxbyrb3CzxrJKI1LSRbwWj3YyAecYIwea9FOnw4zvuMY/wCfmT/4qvPdBv49Qa0uUR490g3RSrtZWDbSCPUEEfhXpvVPbFa4tRTTj1uebkE6rhOFV3asvwR8pT67eSTG3tks94++5s4iEH/fPJ9q94+Hdslx4E06Ryys3m5ELGJc+a/IVMKPU4HXmvnvMOn2wABPOAByzk/zJr6I+Fhlb4c6UZlCufOyAcgfvnwPyrxMLJub7WO3Aycqj7W+/Y6j+zoP79z/AOBMn/xVL/Z0H9+5/wDAmT/4qrdFegeqVP7Og/v3P/gTJ/8AFUf2dB/fuf8AwJk/+Kq3RQBk21hE1zdgyT/LMAMTuP4FPPPNWjp8AH37n/wJk/8AiqW0/wCPm+/67j/0WlWz0oA+ZPE2ryWHiHVY44bVj9tnVF+yxszHe3Ulck+pP1NenfCJZb7wrdS3r4m+3ONtv+5RRsj4wmAfqef0rybxHbbPGOu3Mr73N/cYJ4CJ5jYA/rXrXwUnW48IXsqqwT+0HVSf4h5cfI9v8K8+hK9Vrc8rCybrtLXe7PQP7Og/v3P/AIEyf/FVieF41j1nxYiliBqifeYsf+PO27nmunrnPDf/ACHvFv8A2FU/9I7avQPVOjooooA8z1LxZ4istQ1O207/AE3So7grLq5tGb+zSWO9Ni/6/Z0yv3f4s4Nd/pjI2lWbJdm9QwIVusgmcbRh8rwd3XjjmvOX8XNZeLb1dW8RLZRCLUENk3loLfy3iEDqCNzO6szjJOc4A4Nd/wCHnupPDWlPfReVeNZwmePbt2SbBuGO2DnigDUorA1yXXoTJPptzpFvaQQGSRr6ORizDJPKsoRcAfN83fjislPFOq6vD4fg0i3trW91SwOoSm8VpEt4gE42qVLEtIoHI4BPtQB2tc54k/5D3hL/ALCr/wDpHc1P4Y1ibWtKeW6iSG8triW1uUjJKCSNypKk87TgEZ7GsHWPE2g33iXwzbWet6dPPDqcjSxxXKMyAWlwpLAHI5IH1NAHdUVU/tOx/wCfy3/7+ij+07H/AJ/Lf/v6KALdI3Kn6VV/tOx/5/Lf/v6KRtTsSpH2y36f89RQhPY8t0nVo9VgfKNBdQnbcWz/AH4X9D6g9QRwRXpHh/8A5AsH/Av/AEI15rqOns7yX9gIY9UEflpK4+V13BtjY7HbjPUZOK7nwnq8M/hq0kugLKc7w9vO4DIQ7A/UcZB7gg969DFTvDlbu7/ofI5FQtifawTUeVqz6Pmv93Y8t+NFylv4qtXbJJskCqOSx3ycCmfBWJ/+Ezuric/vWsHAUH5UXzI+B6n1NWPipp76l4xtryyhlulSxSMPCpdVO+QkcdDgj8MUnwnS8tPGN3Je2ktnaLZPGJblDHvffGcDOOwP1/Cvnkn9Y0XXVntJP61eK66s91oqp/adj/z+W/8A39FH9p2P/P5b/wDf0V6J6pboqp/adj/z+W//AH9FI2p2O04vLfOP+eooE9EJdEfabHkf68/+i3q5mvNbqa4urdoXvLpAwIDxTujqcYyrA5B5610vhW7a18O2kGqarHcXce9WlkcB2G9tpbJ67dufetqtB09b3PMwGZxxb5VFp2vr62OH+NqJ5uhSMBlFuME9gfKz/KsH4LTyXXjW8cKBbrYOFY9XPmR8j2/nW38ZLSTWm0RbItdQxeeZltxv6+XtBx0HB+uKz/hVBLpviydr23ltYmsXUPNGUTO+P5cnjPXj2NeS1/tN7X/TQJr/AGu9r7fLQ9xoqp/adj/z+W//AH9FH9p2P/P5b/8Af0V6B6hbpD0NVf7Tsf8An8t/+/opDqdiQf8ATLf/AL+igT2PKNRgn0PXtQvY5C+lTSTT3UTkkwP8zF07kMRyvqcjvXfeEJ47jTGmhdXikfcjochgQMEGudvGVr24IYMpkbBByCMmtTwXb6doml3VvFMkEUty0oieQAJlVyFB6LkE49Sa9CvZU7J6aHyGU3njXKcWpJy1to15+Zx/xythcPoAdj5S/aCydmP7vGfYc8Vyfw2uV/4WVpFsilz++LkdEHkvjP19K6z4yi51IaJHpMTXbjzxJJCvmLED5fLY7nnA74PpXOfDjSrjSvGmmzXFtPDEpkMk0yFQSYnGWY+pIr56qn7dN91b/M9utF/WVJ6q6t+Gp9DUVU/tOx/5/Lf/AL+ij+07H/n8t/8Av6K9E9Ut0jfdP0qr/adj/wA/lv8A9/RSHU7Eg/6Zb/8Af0UCex5nrmmB9Zm1K1wuowiVI2JIWUHdhZMdVDYPtiuo8A6kNU0WeYwyQTx3DRTwSD5o5AqkjPcYIII6gisWedJ7u4dNwUTOAWUjOGIyM9QeoPQjmui8N3NrbWcwlnhiLyZwzgE/KBn9K9HEKPs7p9j47J3U+uONWL0crN30Xb0Oa+NazHwfZrAQrNqCAsf4B5cmSB3P+NeffC+OK18e6REpxuMuMnlj5Lkn3NehfFycXnhS3WyVryRLxHMVsPMfGxxnA7ZI5968/wDhvpV9Z+O9N1HU7WWAL5mWkQqkQMTjGTxkkgZrwKqk6yfTQ9+sm8RF9Lr5s+jKKqf2nY/8/lv/AN/RR/adj/z+W/8A39Fdx6Zboqp/adj/AM/lv/39FH9p2P8Az+W//f0UAGpf8gq7/wCuL/yNWh0FZeoahZyabcol3AzNEwAEgJJxVkanY4H+mW//AH9FAro8/wDjZcLb+D7N9rOxv0VFXqzeXJxXkfg+2ceL9HuLghp2vYBx0QeYvA/x717B8VmXUvDVrFZYupFvVcpD87AbHGcDtyPzryjw7p2qS+LtJnnsLu2s7e/gd2kiZN22RTk5HCjGfevOrqTraLtdnl4lSdf3Vppd/ofT46Cuc8b/APIBtv8AsK6d/wClkNbH9p2P/P5b/wDf0Vz/AIxvbWfRrWOK5idzqunYVXBJ/wBMhr0T1Tq6KKKACiiigAriPFs3iOzvLUWOtabFbajdpZxQXWnlwhKEtvk8wZzsbA28llX3rt65rxnKTpVvYDTbTUG1G5W1WK9OIFJVm3PweBs4wM7itAGdoH9raT4tOhXt9pc1vJYvdxx2Nh9nIYOikuN7Y+9x/e56bee2rj/CPh6+0C4nEmmaBZW0qZY6asgkdwRjcWHIA3V2FABRRRQAVzngj/kA3P8A2FdR/wDSyaujrnPBH/IBuf8AsK6j/wClk1AHR0UUUAMGc9OK4b4hW98zafd6dL/pFt5v+jucJOh2ZU+h4GG7H2Jruh1rmPFg/eWn0b+lb4VXqpf1seRndR08DOS1239UZng69t77Urj7NIHMO+KUd1dWAII/zkc10Xiz/kUNax/z4z/+i2rmvC2nW6eKJNRjUrcSWpil2nCuMqQWHcjBAPoSK6Lxegk8Ga5Gwyr2E6n6GNqWLvza9iMo9n9UlyXtdny2zHUSUUkWoOGYcGQ+g/2fU96+pfCSqvg3RQq4UWEAAHYeWtfLs8/kBbe3RWmYYVRwFHqfQCvqHwiGHgvQ1Z9zDT4AzY6ny15rysHe76I2wF7voun+Zu0UUV3nqDBWXq+rtpjRAQiQyZPLYxjHsfWtXgCuU8XSxrc2MLSgSSJIyITywG3JA9sj862w8IzqKMtjzM3r1cPgp1aTtJW8+q/Qq6J4wWfxCdCns2tppGeWF2kysykF228clSSCOuAD0Nbfi5FfwbriNgq1hOCPUGNq5zRIY5NesnkjDPGzNGxHKkqwJHpwSPxro/F4c+DNdEZAf+z59pPQHy2xRiqapuy7GWV4yWLoTlN6ptfckfL1xOyYt7ZVMzDgfwoPU/4V9QeDwy+DNDVmLFdPgBY9SfLXmvl9Vh061ZpHJJ+Z3b7zH/PQV9QeEG3+C9DbaVLafAdrdR+7Xg15ODtd22Ly+3NLl279zdooor0D1RK53xYqyafGjqGVnwVIyCMGuiNcp451G30zTbSa6ZlhkulhMmPljJVsFj2GQBn1IrWg0qibPOzaMpYOpGKu7HM+G4bzTfF9lBCgk0qVSiKODaFIyAPdSF+oJ969OOQua4fQP+QzbfU/yNdyfu4xWuLVpL0Rw5BUdShNta8z+ei1fmfIoEOm2xOSTnJJ5Z2P8ya+ifhY0j/DnSmmQJIfOJXOcfvnx+lfOsEEkkv2q5GH/gj6iMf1PvX0Z8L5Ul+HmmPGQVJmAI9pnBrxMJb2j6u250YH+M+rtq/0Oyooor0T1xnPasHxV/x5wj/pp/Q1vgVyPj6W+g0e2n0+JZnjuA0sJ4aSPa2VU9m6EfTHetqDtVizzc2g54KpFPddTl10ySTxJp2o2c4hnSaOKdXJKSw78lSOzDLFT6nHQ16qMbOPSvM9DvINSNnd2zFopZFI3DBBBwQR2IIII9RXpnVMA1tjErprrc83h6U/ZzhPeNl57LT5HyJb27F/tNzjziOFB4jHoPf1NfRnwuljl+HmlvGdykzAH6TOP6V84FjqTFUJFqpwzjgyH0H+z6nvX0j8MFVPh5paqAqjzQAOg/evXhYX+I772+47sD/GfNvbbsdhRRRXonrDaQdTSmqWo3v2Gxe4Cb9uMLnGckDr+NOKbaSM6lSNOLnN2SV36IdaH/Sb3/ruP/RaVbPGa4fSPGRn1RrC6s47e/nYStCJ9+E3eWGU7Ru+6D0GNwBrtyeD61UoOPxGdHE061/Zu9rfifK3ilHvvGOtxuGS1j1C4BB4MhEjf+O/zr2X4NBR4SvAuMC+YYHb93HXj3jC5ZfF+sW0ADXBvZz7IPMbk/4d69c+Cdutt4PvI9zOxv3Z3bqzeXHzXl0P42um9kcOG/j66b2X6nplc54b/wCQ94t/7Cqf+kdtXR1znhv/AJD3i3/sKp/6R21eiesdHVHUYb2fT5Y9PuorW7JGyaWDzlXkZym5c5GR1HXNXqKAPL4/+Eq1O11LVG1rw60ul3E0Eb3OlYYGIkEs3mnywSCR14IPfFd7oV7JqXh7Tb6Vtz3NpFMzeX5eSyAk7cnb16ZOPU1w91olx4p1m91KDw14ZYW91JbeZqIdppTE23c4VcYOMgHPGD3r0K0E4s4BdCIXAjXzRDnYGxztzzjPTNAHMeLNJ8QazqFpDbQ6dc6HGvmT2lzdyQNcSg8B9sT5jHB28ZPXgYM2o6Vrcuo6ZrdjFpyanb28ttcWssz+S8chRiFkCbgVaNSDs5yeldVRQBh+GNHm0bSniu5UmvLm4lurl4wQhkkcsQoPO0ZAGewqt4kVRrvhLCj/AJCr9v8Apzua6Wuc8Sf8h7wl/wBhV/8A0juaAOiwPQUYHoKWigBMD0FIwG08DpTqa/3G+lCE9jyjS9Tg1W0E8AZWDFZIZBh42HVWHYivQvD4B0WHju38zXmd/p8kFxNqumwq2otGEaNm2pMAwOG/2sBgG7bvSvQvB97HqPhezukSSMOZAY5V2sjB2VlI9QQR+Feli2+Sz3v+h8dkFOLxPtKfw8r9U+bb/JnknxphlufGdrFnbbfYELlTyx8yT5fYetTfBx4l8Z3FuCoYac7BR2USRiofjVcGPxjaQwgPcSWCbV7AeZJyfanfBW1+z+LrpmbfK1k5dz1Y+Yn5D2r5x/7xr30/zPcf+9Lm76L9T3nA9BRgegpaK9E9YTA9BSMBtPA6U6mv9xvoaEJ7HjelahdC6bStUUC+ij3rMq4juEyBvHockAr2J44NeoeHh/xJoPq38zXn2o2Meo2clvI0kW/G2SNtrowIYEH1BAP4V23g5btPC9ol+8cl0pkV5IxgOA7ANj1IwT7k16WLuoWff9D47IJQqYn2kdHyu6/7e3Xl5dDz345SyIdBigXMsn2jBPQAeVkn8+lZXwVtltvFl0Nxd3snZ2bqx8xOa2fjhMlumiyyHCgTj/0XWD8FVmk8Z3VxNlAdPdUi9B5kfJ9+Pwr52V/rHZfnoe9K/wBb7K6+eh75gegowPQUtFegeoJgegpCBg8CnUjfdP0oE9jx+9F3oviC/keQzaRPNNPI7n5rRss7fVDg/Qn0rvvCZWTTpJEZWRnyCDkEYFc3qCh7y6R1DK0jAgjIIya2PAWmxaTpNzbQSSGA3LPFG5yIlKr8i/7OckemcV6WITjSsttD43KKsauOblpJOXz219fzOO+OEyWseiu5wP34AHVj+7wAO5rjPhdDJL8RtKurnh/33lx5yEHlP+Z9TXZ/G2FJJ9AkYZaMXG0ntny/8K434ZXRufiVpXkgCBDMGc/xHyX4X6dzXzlT/eNO6ue7U/3r3e6u/u0PpHA9BRgegpaK9E9YTA9BSEDaeB0p1IehoE9jyXWtNMeu3OrWAYXg8wPCGAW5xu2Kx7ENjDdhkdK63wDqkGraJLPDvUrOY5IpFw0ThRlGHYisK4uYbm9uzBIrhLiSJivO1lchgfcEV0/hREjs7gpGql5t7kDG47QMn1OAB+FeliFaldbaHxuUVXLHOFRe8nJJ+XZ/oc58ZAD4UsiQPlvlIPp+7krzT4Y3El18SNKaM4tkMwLH/lofJcYHsPWvRvjZB9o8IWcRdlU6ghYL/EPLk4/lXnvw2mii+I2j24HzN5uAB90CF+T6DtXztW31hW1eh79a31qNtXp8j6NwPQUYHoKWivQPUEwPQUYHoKWigDzvxRZW19rL+fGHMMsc0Z6FXUKQQf8AORxU3w9uL95NQs9Si/0i2EYFwowk6Hdhh6Hg5XsfYiqms6nbyeL9R007o7iEI4VxjzUKL8yeoBJB9CK6Dwn/AKy7+i/1r0qqToXXZHxeDnUhmns5recmvLS916o5z41QLceEbKJmYJ/aCFgvG4eXJwfb/CvJfDlzs8Y6FbQruc39uGUdETzFyT/SvWvjY0y+D7IQIGkbUEUE9F/dycmvJPCcMdp4n0YF8u+oQBnY8sxkUf5FfOYj+Mr+Wh7uK/3hX12sj6mwMdBXOeNwP7BtuP8AmK6d/wClkNdIOgrnPG//ACAbb/sK6d/6WQ16J650dFFFABRRRQAVyPjKzudWSLTn8LjWLAFZizagLfbINwxjqcDn059q66igDifCOitp2qyynws2kgwFfPbVDc7vmU7dpJx0zn2967KRvLjZ9rNtBO1Rkn2FSU1mCqWIJAGcAZNAHO6f4utr+01e4awv7RtK/wCPiC5RFk/1YkGAGI5Vh1IqfQtfl1yOOb+xNRsreSFZoprsw7ZAcEYCSMc4OeQK5nRNUhuNb8WvPo+tfZ7+RZYll0yeMTRpaxoy5ZQMkqwAJBPal8PWNvH4wguPDuj3mlaUtnIl8JbV7WOaQsnlbY3AJYYfLAdDjJoA9CrnPBH/ACAbn/sK6j/6WTVpanpNvq8UaXMl5GqHcDbXktuT9TGyk/Q1z3gbTYI/D8sYe6Kx6lfoCbmQkgXcoGSWyTxyTyepoA7Kiqn9nQf37n/wJk/+KpP7Og/v3P8A4Eyf/FUAWjnBrhfiH/aMLade6f8AvTAJPNtDx56HZ0PZhjj1yR3rsP7Pg/v3P/gTJ/8AFVzviaBYWtghlIIbO+Rn/u+pNb4ZN1El/Wh5WczjDBTlLbTpfqip4RuILvUpGhkWQIHjbac7WVsEH3BFbni/d/whmuBNvmf2fPs3dM+W2M1zXhrTYhr0s0bGFJYW82OIBPMfcMOzLhiQMjrjn2re8UW8Np4U1i5DzfurKd8PM7rxGx5Ukgj2IpYq99exlk6prCy9m7q73XnsfM0ccdlC8sr5c/NJK3Vj/h6CvqDwg2/wZocmCN1hAcN1GY16182Rane3J86eGzEXWOI2UJI/2j8vB9u1fR3hq1iuPC+kzM0wZ7OFiEmdVyUB4AOAPYcV5WEtzy1uzfBW55a3Z0VFU/7Og/v3P/gTJ/8AFUf2dB/fuf8AwJk/+KrvPTLP4VxPxB0qPVY7H52guYS729yn34n+XkeoPQjoRXV/YIc/fuP/AAJk/wDiq53xLFFA9qiu5Zg52tKzHA29Mk+o/MVvhleol/Wx5WdTcMFOSdrW/NGD4T1ISeJYdNuiE1GKMPIACFlBTlo89VDZHtiuy8XyCLwZrkh+6mnzscDPAjauY0izguNdtJJYlaSIvskHDplCDtYcjPfHWuh8S2kcHhfVZUaYslnMwDzOykhCeQTgj2PFPGXv73Y5sldJ0Kjp3tzO/rZXt5HzDDC9zKtxcrtK8xRH+H3P+1/KvqXwmf8AikNF97GH/wBAFfND61e3Upitls1jU4kl+xxH/gK5Xk+vpX0d4ZtIZPC2kOfNUtZQnEcrIo+QcBQQAPYDAryML8T9Nux2YJe+9em3Y6Siqf8AZ0H9+5/8CZP/AIqj+zoP79z/AOBMn/xVd56Rb7c1zfi+FLjS0gmRXhkfa6MMhgQcgitn+z4P79x/4Eyf/FVzfi6Wz0uzs2mnkjE9ysCmWV2UsVYgckgZ29fw71rQdqiPPzRN4Opa+3Tc5rwx9r0zxZYaf5Jk0yRTHbSLy0BSM/I/qCFJDepwe1eo5+XjvXCaLGsmrQKSwBJ+6xU/dPcc12R0+HB+e4/8CZP/AIqtMUmpK/Y48jnGdGbj/M79Luy1Pkp5GvnaKIkW68SSDq3+yv8AU19I/C9Ei+HelJGoCqJQAOg/evXgM2uTWyLDDb2RlPCRrZxAfU/LwBXu3w4tmuvAemTXMjmZvNLGFjEv+tfoqkAfl79a8bC/Hptb+mb4G3P7u1v6Z3NFU/7Og/v3P/gTJ/8AFUf2dB/fuf8AwJk/+Kr0D1S2Tiuf8U/8ecI/6af0Nan9nw/37n/wJk/+Krl/HLTaVo8F1aQS3SpcL58Zmdn8ra2SgJwWBwcdwCK2oO1SLPPzSn7TBzhe10cylhdx+JNOv9PmCjzo4rq3fhHjMmSw9HG5jnv0NesYATjpivNdIurfUHtLm2mEkErqVdGIyCR+IP6iu/8A7PgxnfcY/wCvmT/4qtcXun6nnZDL93KPVWWqs9up8nz3Hkbbe3QNMwwqDgKPU+gFfRXwsjeL4c6Usj73/fEse5MzmvBV1Oa0haWcWJfGXkNlCpb8l/Kvdfhuo1LwFpl3Os0Tyeb8iSGMACVwPlUgDgA9K8TCcvO+U7MClzu3bfudzRVP+zoP79z/AOBMn/xVH9nQf37n/wACZP8A4qvQPVLWeay/EGf7Fn47r/MVZOnw5+/c/wDgTJ/8VWJ4rsJR4bu/sN3Lb3R2+VJJI0i53rwVYkEHp688c1pSdqkbd0cmOipYaopOycXr20OWXTba/wBU02WVSJba6jlikQ4YEMMjPoRwR3FenV5ZoN613c20F5GLe/yrS24flRvK7lI52kqSD9K9I/s+HA+e4z/18yf/ABVb4vVp+p5OQrkhOndu1vyW3kfM3igQ2XijXZScbtQuHdjySTI3H9AK9b+CbTS+Dr2SeMIW1Byq9wvlx4z715hr17eDxXrHmx2bRx30ywq9rE5AEjAMWKklj65/WvUfhNJHqvhm8ldzmO+aM/ZyYlyI4z0TAJ56/h2rw6HL7Z21Z2YXl9u7O711PSq5zw3/AMh7xb/2FU/9I7atf+zoP79z/wCBMn/xVYnheNY9Z8WIpYgaon3mLH/jztu55r0T1Tp6r3cs0VpNJbw+dMiM0cW8L5jAcLk9MnjNWKKAPLbjw1Lc3lxeyfDsm4uZDLM414rvY9ScHFei6ZF5GlWcJt/sxjgRfI3+Z5WFA27v4sdM98VdooAKKKKACuc8Sf8AIe8Jf9hV/wD0jua6Ouc8Sf8AIe8Jf9hV/wD0juaAOjooooAKRuUYe1LTX+430oQnseVadqFtqlnHd2j7on45GGUjqrDsR3FegeHhnRof+BfzNeX3dg2nXN1q+mwNLO6AS2qttWYhh8w/2woYD1yM16R4QvYNR8MWd5bMWil34yuCMOQQR2IIIPuK9LFyfJZ73/Q+N4fpR+s+0p/Dyv1T5tn+j6nk/wAZWji8XwTOQuLBAWPoJJP8ai+C3nS+NLqeQlEOnuEiPXHmR/Mff27U74yWon8b2crsWjjsEKx9t3mSfMfXtil+Ddwsnji8hQFhHYOXcdA3mR/L9a+cVvrGm9z3F/vemrvr5HvNFFFeieuFI33D9KWmv9xvoaEJ7Hj2k6pLPO+nagiw6nCu50X7kidA6Hup9OoPBr03w8f+JNAPdv5mvPNSsPt1s6Rytb3GMRXEYG9DkN+Iyq5HcCu48HPeP4XszqCRpd/vBIIzlTh2AYexABx2zivSxd1Cz7/ofG5B7OeK9pDT3Xdf9vbry/I8/wDjbDHJNoEjAExi4IB6ZPlc49f8ax/g3cCfxveRIpaNLB90nbd5kfyj175rW+OUcsjaBFGdiH7RvcHkD91wPc+vasz4NCOHxfPCmF/4l74Uegkj/wAa+dlb6zrr/wAMe9O31tX1eny0PdqKKK9A9UKQ9DS0h+6fpQJ7HkF3Ne6X4jvYrx2n064nmljuGxm2OWdlf/YwDtbt0Pau/wDCo/0KY/8ATT+grl9ThjuLi8ilRXikd0dGGQwJIINbPgHT20vRbi0+0PNCLgmASctHHtXCZ74OcE9sDtXpYhNUrdND43KJU6mOcnpJOXz219fz3OL+OcUk50CNW2wn7R5hHUj91wPrzzXK/DR4oPiJo1uuAW80KoHQCF+fpXU/HK4+z/2CqAyTSfaBGnr/AKvJPoBXK/Cy28n4g6a7nfM/m7n/AO2T8D0FfOVf94V+6/Q9yt/vS5trq3ntqfR9FFFeieuFIfumlpD0NAnseQ6vprWPiC91fT9wLGQ3Vog4uCA20j0fOBnuOtdn4F1G11XQ2urSTfE0pHIwykAZVh2I7isO7eOS+uTG6uBM6krzyHII+oIIrofCFvDbWl35MSxma4MrlRjc21Rk++APyr0sRG1LTbQ+Myerz45qp8Sckn5aaP8AR/I5r42SSR+D7LyY98jagijPQfu5OT7V578LbRbfx9pjFi8rmUu56k+U/wCQ9q9F+NMiQ+ELWWRgqLerkn/rnJXmvwvSW4+I2k3Mu5I1M3lR9CMwuMn3x27V87Vv7ddFp8z6Cvf6yuiuvn5H0nRRRXoHqBRRRQB5v4r022vtd82VSsttMksUiHDKQFyM+hHBHcVb+HuoXNy+oWl/B5N9aiMS7QdkindtdT6HaeOoIINVtYv7afxRqVkj4uLcoZEYYOGjUhh6jnGfUEVu+E/9Zdj2X+telVSeHuuyPi8HOUc19nUX2528tL6eTTOe+NMqW/g+0lkO1VvlH/kOSvHvCUL3HjHRbm4XG2+gMUR/h/eLyff+VexfGWNH8K2O5Q23UEYZ7Hy5Of1rx7wzcPP400WO3IEceoW/mP1BxIvyj39fSvnK/wDG08tT3sT/ALx7vldn1UOlc543/wCQDbf9hXTv/SyGujHSuc8b/wDIBtv+wrp3/pZDXonrHR0UUUAFFFFABRRRQAUUUUAFFFFABXOeCP8AkA3P/YV1H/0smro65zwR/wAgG5/7Cuo/+lk1AHRGkyPUUjnCnHXHFfME3irWoYi8muakF/6+pMk+g561z1q6pNK17nqZblcsepuMlFRte/nf/I+jdQ1f7C0SpZXV0XlVG+zhP3YP8bbmX5R3xk+1cZ451XUFvbaa1sZpLS1VjcIQuZlfHzRkMSWTacqQMhuM1l+Bp74aFBq2s+IZAt+PJhtrpl/dyCRwuHY5ZiAOPw5wMaXlS2Nla6bd6t/aN9bqzTSuFVyGYlSyg8DAIHrtNeRlmaYitmioNrlu1onfRN77aOyfqfP8RU40MFVur2aWvXVL1NTwrIkupM0bq4CMpKnPIIBH4EEVueLBnwfrOf8Anxn/APRbVyng7S1svFNzd20rRwXMLGa36qZcp+8HoSMg+vBrqfF6l/BeuLuKk2E4yOo/dtyK+lxd3LXt+hw5RGCwkuR3V2fLk0slxIbe3bbjiSUfw+w9/wCVfUXhBVj8GaJGv3U0+3UZPYRrXy+7RafbKiKST8qIPvMf89TX1D4QLf8ACF6GXAEn9nwbgOgPlrmvKwW7tsbZfu7bfmblFFFd56glcL8QtMbUF0+a2mNvf2xka3mHIUnbkMO6nAyPb2rue9cz4t+/afRv6VvhUnVSZ5GeVJU8DOcd1b80c54R1JbrXorSYrHfwqGuIQeFLJnKn+JckjPqDXXeL13+C9cTcRu0+cErwRmNulcto2n20/ijT710/wBIty/lupwcMjAqfUc5x6gGup8XFl8F64VXc40+chfU+W3FPGXvr2ObI3B4eo6envP77LbyPmB3jsoEjijy33Y4l6sf8PU19QeEAw8F6Hvx5n9nwFtvTPlrnFfL0EJgDT3EgaVhlmPAUeg9AK+oPCDiTwZokinKvYQMD7GNa8fB25pW+868vtzStr5m7RRRXoHqiYzXM+NbW3v9HW1uYhLDI+GU9+DXTVzPi+5gt7SzEsioZrgRJuONzbWOB74B/KtKDXtFc87NuZYOo4b2OS8MXE+n+LLDSrhJJLZ0K2lzksWKRnckh7H5WYHofqK9RJ+U8cVw2gf8hq2+p/8AQTXctkqfpW2LVpL0RxZDNToTdrPmd/N2Wp8jQwpao88zhpWGZJDwPoPQCvoj4WSib4daVIEZQxmIDDBx5z4P49a+co0a+YSyKVtxzHGerf7R/oK+kvhkc/D7TMesv/o168TC/wAV33sb4H+M772+7bQ6+iikyPUV6J64nQc1geKT/oUP/XT+hrUl1G0hmkhkuI1kjjEjoW5VDkBj6D5W59j6VyfjLX7ZNAtNSswL6zM4Mslu24JHtbMgx94AgZx2ye1KhiqMa6g5K99r6nn5tSnUwVSMVq0c5b2t5Y+IdOuNPCvaPPHFcWhwoAaTJkX/AGgWJI7j3Ar1rjbjtivONMninuLSaJ1kieRGVlOQwJGCDXovVOPSu3GJJq3meZw9UlKlJTWqt67dT5Cjje9kW4nUrGpzFEe3u3v7dq+kPhkwPw900qQRmbp/11evnCaZ7iVra3ONvEso/h9h/tfyr6N+FsSQfDrSooxhV84Y/wC2r14WF/ia9tjtwP8AF1000Xlc7OiiivRPWEFZXiHjRpx7r/MVqHrWB4wW8fwxeCwdEugY2QyDKkh1JB9iARntnNaUnapH1Rx4+PNhakb2vF/kcWNKgvNb0y83PDdW1xGyypwSu4bkPqrDjH416kORn2rzHQb77fLavJC0Fx5imS3kI3odxX8RlWwe4Fenjhfwroxlrprrc8jh5zVOdOf2bL8D5V8WSSXXjDW7aAlUW/nEso7fvG+Vff1PavY/gtGkPg+7ijUKq3rYx/1zjryLxdcJbeKdYVV3ySX8+yNRyx8xifw9TXrXwUjkTwfe+dJvkbUHY46D93HwPavCofxey1O3Dfx+y1+fmemVznhv/kPeLf8AsKp/6R21dHXOeG/+Q94t/wCwqn/pHbV6J6x0dFFFABRRRQAUUUUAFc54k/5D3hL/ALCr/wDpHc10dc54k/5D3hL/ALCr/wDpHc0AdDn8qRiB1IH1pccV5p8aJkg8J2kkjYUXqD3J2PwPeonJxi5JXN8LRVetGm3ZPr2O/vLw2du0ywSz4ZF8uLbu+ZgM/MQMDOTz0Bxk8VUGsbtQks/sN2sax7hckJ5TE/wj5t2fquPevnvwHlfGen3l3MtuQZEi3EARlo2UdeCSSB+OK9XTT7xtKt9EXxW7atbstxNcBE85495OGTPCnhc+3fpXzOY5xXo14wptJaXum+uruu2n3nbjst+qS5JO91daWdvS+hStLy3v7SK6tZRLDINysOhFd14cVU0WEIoA3OcAY5LEn9a8wnszodxdanZRyyW8i7prGIA7n3LmRB2bbuyB97A716X4Tu4L7w3aXVtKskEoZkYdxuNfdYqV6aT3/wCAfnGQUVHFc9PWDi/k+bZ/1qeP/Glp5PGlrbQgoDp6M8voPMk4Hvx+FTfBiGO38WTwx4UCwc47n95Hk0341XKW3i21JBZ2skCIOrHe/ApnwVgZPGV3cXB3TSWDqcdEHmR8D/PNfO/8v9dFf7z3f+YrXRX+9nvlFFFeiesFI33T9KWmv9xvpQJ7HkGkav8Ab99tcxfZtRt8efbk5x6Mp/iQ9jXpfh7/AJA0H1b+ZrznUtPa5RprSRLe/VNkVwUyVG5W2n1UlQCPTNd54NnubjwvaSXdt9nuCZBJHu3AEOwyD3BxkexFeli21Cz7/ofG8PxhLFe1houV6dve6eX9M89+ONwIP7BAXfI5uAiDqT+7/T1rF+CtsY/GV3NKQ88lg+5uwHmR8D2re+NYRRobtt+UXHzHsP3ef5Vg/BWaW48Z3UuNtt9gcICOWPmR/N7D0r56X+86eV/uPflf63pptf7tj3yiiiu89QKQ9DS0jEbTyOlK6W4PY8hnvbyy8T3dlfjzILm5lktLlFwAMsxif0IAOD3A9RXfeFsizm/66f0Fcrq1vHdy3ttOu+KVnjdfVSSCPyNbXgCzutP0ae3ubo3KpckQSMPnMWxcBz3YHcM9wB3r08RdUrdND4zKHTqY5zWkk5XXfbVfqjkfjc6IuiSSbVVVnyT2H7uuK+F7S3XxF0q4fckKmXy06Fv3LjLf0Fdl8cLZLiXQN5JVftB2dmP7vBP0rkfhrcg/ErS7eNd5XzTIw6L+5fH4n0r5uf8AvOm918tj3Kn+9e7vdfJaH0hRRRmvSPXEpCeDRuGKx/8AhJNL+ywXH262+z3LBIZfOXbKx6BTnBJweBXNXxVKg17R2vsPlbWh5xqVjLpOvX+p2ZJtZZJZry0VdxZxuIeMf3yQAR0Oc9RXc+Cry31DRmubWVZYZH3K47jArAvGD3lwwP8Ay1b/ANCNbvgyytrGyvBbRCITXRmcDoXKqCcds4H45PevZr2dFSjs0j4vKKyqY58/xJyV+6038/MwPjNDHN4Ssd6g7dQRgD6+XJ/jXm/w1uTJ8S9KhiXei+cZX7L+5fAHqa9G+NiTS+D7KOCQIW1BAzdwvlyZx71558MlitfH+jwKQpYyhR3Y+S5NfP1bfWI312Per2+tRvq9NP1Po6iiivQPVCiiigDzTxZpUN74kW63NDdW0iMksZ+Yrhdyn1UjjH41f+HuqPqA1CG4hNvf23lrcQk5AJ3YZT3VsHB/wqDWLu3n8RajbxyhpbdkEqjqpKKwz9Qf84rZ8Joolu3AG4qgLY5IG7H8z+delVX7i67I+LwdR/2pyVF9udvLS/3M5342RyTeDrJI32Z1BN5HXb5cmce/SvJfDDQ2virQYFU/Nf26Kijn/WLk/QdSa9Z+Nc3keD7JlRndr9FVR3PlyfkOK8l8IQNH4t0eWVg87X0GW7KPMXhfQV85iP4yvtoe9iv465ttPmfU46Vznjf/AJANt/2FdO/9LIa6MdBXOeN/+QDbf9hXTv8A0shr0T1jo6KKKACiiigAooooAKKKjkby42fazbQTtUZJ9hQBJRXPab4ts9QttVmmtbzTxpTYulvUVSg8sSbvlZuNrA+vtTdI8W2urX0do1jqFjLcQG4theRKguIgRlkwx6blyrYbkcUAdHXOeCP+QDc/9hXUf/SyaujrnPBH/IBuf+wrqP8A6WTUAdA3IOfTmvkWCF5pBc3C4b+CLsg9T7/yr66b7p+lfJssscMZkkYBQMkmvPxza5Uut/0PruFIQbqym9FZ+XXf0PVPBL2+q6Bb6dfaJPNFYf6TDcTRAxSSeY5Hlk9WHT8/xdqmqSLa2XiIaHNaJcq66hFNHtuUVGxGxXuq5YkdcMD2qXweNSvvAminTbuKzkS4Mk6SxiQtD5smVx/CWGOa19US6bUWne6imsJEUQRIgzGwzvJb+LOV+mPz+eyXXOVFOzvLq+id/LV6/I+P4sqR9hXm1dOX4OX3oveFyDqfBB/dt/MVs+Lyy+DNcZULMNPnIUdSfLbiuV8G6bLYeKLqWGcmxuIXkaB8kpKWUlkPZWyxI9eR1NdX4sIHg/WiTgfYZ8k/9c2r7fFt82q6Hj5RCMcJLld1d/8ADHy5BAVZri4ZTOw5P8KL6D/GvqHwiyt4N0R05DWEDA+oMa18t5OpHuLRT9DKf8P519TeEhjwfovYCxhwP+ALXlYT4nff8jbA/HLm3t9xtUn1pGJAOOorxvV/ipr1jrV9ZxW9gY7e4eJS8bFiFYgZw3XiuupVjTScj6DBYCtjZONG113dj2TPauE+IVhcXZ067sJ/KvrUSmHcTscHbuRx6HaOeoIBFVfCmsa9rdpNrN9qlqLW8Xy7W3ihKiF1ZkY5Jy2SucZ/KpJF1GLTbGDVr6O9v41YyyomwNk8Hb24498VxZfm9Ktj/qqWt2r/ACb7dNmeHxBTqYbBVH1TS7rdJ+qYzwnfpeavAjYjuYlHnwbstEzJuwfXr16cGus8Wsq+D9bZsACwnJPoPLauS0bTLeTxfp+ojdHcRb0LIceapRvlf1AJBHoRXWeLAr+DdbVsMrWE4IPp5bV7ONvpfscGSez+r1HD+Z38nZf0j5aAbUmDOCLVTlVPBkPqf9n0HevqfwkSfCGjZ/58Yf8A0Ba+W57hjJ9mtsGYj5iRxGPU+/oK+ofCC7fBmhruZtunwLlup/drya8jB3u+nkdeAvzPoraI2z3PpXiWv/FvX9M12+06ztdOdobl4k82NzhVYqCxDD0/GvbCQMk18v8AiCCOPxZrjoDuk1C4dieSf3jfoK0xdV04po+yyDBQxdaVOok1br016eZ6b4e19/GttLPrejRzzadItxBJDCdnmAEgJuY/OOvXoy06/wBL03xFoqand6JJZXd8oWYTx7LhNuduT1BGAQevSsvwBBqU+gL/AGbfRWwj1ISXSvGHMkW1cqP7pPr7V0epi+XUWuZdSgk0ufYlrbhAGEgVix3/AMWQCce3tz8tgp82cRTlu+7+attq9fkePxVBUKNeNFWUdrdCj4X1CS08WWWj3wkZyn+jXTci42xnfn0bIY47jmvTySVJUdq4bQ0VtbtCwGVZipI6Haw4/Amu6PAJ7AV99i01JeiPmshnGdCbSt7zv62Wp8iTTvJKba2OH/jk6iMf1PtX0T8LYkg+HWlxJnavnck5JPnOT+tfO/7jT7YKMnnAxyzk/wAya+ifhYZW+HOlGZQrnzsgHgfvnx+leJg/jdtrfedGA/iPl2t952XSvBPiN4i1PTvGmppFq17BBGYwscU7KoJjQ4Cg9ST+te9kV85fEq33/ErVppTuCmLy17L+5TJ+tbYt2gm31PteHYc+KceVO8XvstVqdD4G1a6l0f7RqOn3mqXGoX32KSTmUwwbQQJGY/cBZye3zH8elllhtJZNCtNHntLOyVDFN5YWGTcCSqHuQevvn8cP4aLd/wBiaiVu444pJNlurKDsl2ct7ggr8v8Asn1rX1bULnQvDlidZuRe3CSql5cQxhVQMGxIyjovABOO+a+WwdSP9sxb7rq+2/bRafM8fiqg1Sr0qert5GdZQXOk67pq2FuJNLknSKS3jGGhZpSfMX1XLfMOwAI6GvXCMKfXFed6e4e8tnjYMGkUqwOQRkV6IuQnPXHNfoGMjZq3mfLcPVHOlLmWul330W/mfIzNDp8CJGpJPCIPvMf89TX0R8LDL/wrrSvOZfNzMW29B++fj8OlfOtvAyM1zcsrTsOT/Ci+g/xr6K+FkyT/AA70uVCSredg464mcZrwsJ/EfXTc7MB/FdtdNWdpRRRXonriVleIf+QLN9V/mK1e9YHjBrtPDF29ikclypjZEc4DgOpK57EjIHuRV0napF+aOTHx58LUj3T/ACOIGkrc+IdM1GCZre7gnRWkXkSRbwWRh3B5x6HmvVAOPwrzLQb6PUmtLmNHj3yDdFKu1kYPtII9QQR+FemqMKBXTi0rprrc8fh51FTnTqfZsvwR8ueI4I4PGGvXEj7na/uDub+FfMbAHoBXrXwTn+0eEL2UIyqdQcKW/iHlx8/zryDxTE954y1oSKUgj1C4AQ9ZCJG5P+z6DvXsfwaIPhS92kEC/YEDt+7jrwqH8Z31evyO3Df7w76vX5HpFc54b/5D3i3/ALCqf+kdtXR1znhv/kPeLf8AsKp/6R21eiesdHRRRQAUUUUAFFFFABXOeJP+Q94S/wCwq/8A6R3NdHXOeJP+Q94S/wCwq/8A6R3NAHRV5v8AGZFfwxY7lDFL5WGex2OM/rXpHSvN/jO6ReE7SVzhRer/AOgPWOIv7OVj0MqcVjaTltc808G28Fz4ssI7iBZkBaTyyM5ZUZl49QQCPpXpaajEtlD4lXwvfLqN2VtZYhbj7Qke8jLj+6MA/TH4eUeC4L688Y6ZNbTi1kWQtHuTdhdp35HqybgPTPrXtsa341mW7bUYW0l4VWK3CAMsm7lt/cHpj/J+FzVxhXim76bXffVaaa6fce1xHUdTEKVrLl09NdfIwoZ4riCOeCRZIpFDI6HIYHoQa7XwxFHBoMMcUSxoGc7VGBkuST+JJP415cbb/hG5Lm7gZjpO3e9qiEmFywy6AdEwWYr2xkda9S8MzRXHh+1mhkV4pAzK6HIYFjgg1+oYmV6ST3/4B+RZBSccXzQd4OL/APStn5q55F8Yoo/+E1t7hgNy6ci7ieg8yQ/hUXwWuJLrxrduFAtxYOFY9XPmR8j2/nR8abeS68a2iFgLcWCFlHVz5knB9v51L8HJY/8AhNri3UjeunO20DoPMjH4V87p9Z7u/wBx7mn1vu7/AHI91Pt1pCPX8aU1xPxL1zUtB0C2uNMuTbzPcrGz7FbKlGOMMCOoFehOajFyfQ93D4eWIqxpQ3lprsdozhELHsMmqH9rWbXUloDN5ioHYmCQJg+j7dpPsDmvCtN+Ifi7U9dsrJNW/cSXEaTSNbxEEFgCvCj15wePrXo/2XxEdCsrY63a/wBrRSq91cG3G2SLccqE7ZGBn2PTPHz+Y5vUw84qny2fe9156dPx1OrFZdPDNxqNPzW342MPStWj1SBsxtb3UJ23Fs/34n9D6g9QRwRXo3h4f8SaH6t/M15vqGnOzyX+niKPVBH5aSuPlddwbY2Ox24z1GTiu+8HXT3vheznkt5LeRjIHik6owdgR7jIOD3GDX2eKk/ZpP8ArQ/PcgpweK9rT0XK9Oz5vy7fieffHG2FzJ4fV3PlKbgsnZj+6xn2HPFZXwdmjPji6t15ZdPdjgcL+8jwD7/4Vp/HOSbdoMUCnzH+0fPj5UA8rJPvzxWX8FrZLbxXdIuSTYuWY8lj5kfJr56X+8q/y+496p/va5n6L5bnu2K5f4ganqGjeCr++0uURXsZiEblQQu6RFJwQQeCa6jvXI/Ezn4f6l9Yv/RqV2VW4wbXZnu4KnGpiacJbOSX3tHluk/EDxTNf2dvd6m92kkqJKgtogZAWAKjCjGRxXcpfwx2lr4hXwvffb9SeO2uIhAPPRMkbpB2UY/IjPt5FolwkfifSIuTJJeRAAc4G8ZY+wr3KJdQGrXNy+pW76ZNEiWsIjGUfu27PzZ9P8n4fOKr54uevq3qr7aff8j6LiChh6NSMKEUrLWy/M4+C8bT9Zk0W6t1hiMjjT5IlwjxKThPZkUYx3AzXofhXP2Ob08z/wBlFcXPZSXFk1pqEvmzmMxzTINm5ypVmXH3c5OMdM10ngCG/t9FuIdRmWeSO5KRTDhpY9q4Zh2bqD9M96/SNVhYpu+i1PyHKfZ1Me5x0acrrvtqv1Rxnx0MzNoMUHymT7Ruk7KB5X5nniuV+F8UVp490mJSBuMuMnlj5Lkn3Ndb8c7hLZNDd8knzwqryWP7vgVx/wALbdz8RtLurjBlPmhV7Rjyn4Hv6mvBq/x9dFdfPY92r/vSvorr5vQ+ju/WuU+JF7LpngTUryC4lgkj8rDxMVYZlQYBHPOcfjXWVyHxOGfh9qIIB5h6/wDXVK76rtBvyZ7+BjzYqnHvJb6rdHhNt4h8SNI002u6oueFiW8kwo9/m5P8q9jgtdNmnOht4ckWy0tY7i1kaAeSz8keWf7wyc+5Offw6WVIUMkhCqBkk17sLXxD/ZOnWw1i2/tGCWNr6byARLHk7lC/wkjHPHQ9K+Kzicpcjcrb21em2unbb5n1HEWGpYdU40lrq3td7b/ocmDc6ddS6sqSxaZdq93d2s+fMtXKl2KjryeGXsxyO9ejeEJY7jTHnhdZIpH3I6nIYEDkGubuCGuJSCGBYkEcgjNbvgbTrfTNMu4rUMkUt00ojz8sZKrkKOwyCcepNfolrYWHKtLL5aH43lFRVcc3P4k5fP18/PqYHxruFtvB9m+1mY36Kir1ZvLk4rzj4W2zL8Q9MuZyGuG80cdEHlPwP8e9elfGQqvhGzLYwL5Dk9v3cleZ/DGaS8+JGkyIStshlxxzIfJcZ+n868Srf26t5f8ADHv1r/WVbTa7/Q+lKKKK7z1AooooA8x8V6Ss/ij7fbym2u4njDSLz5sfy7kYdxjOPQ81q/D/AFSPVI747GhuYSiXFu/34n+bg+oOMg9CKh1qWOTXL2OOQM8bIJFB5UlVIB9OCD+NaXhGGJbm+mWNRJIkYdwOWA3YBPtk/nXpVY/uLrsj4rBVb5pyVFqpzt5abehifGVgvhG0LYCreqST2/dyV434V33vi/RJTlbePULdkXOC5Ei4J9vQd69h+NMCXHhGxjkztGoI5XPDYjk4Pt/hXkfhy4x400OCJQz/ANoW5k9EXzF6+57CvnK/8bTfT5Hv4n/eFy76fI+px0rnPG//ACAbb/sK6d/6WQ10Y6Vznjf/AJANt/2FdO/9LIa9E9Y6OiiigAooooAKKKKACmswVSxBIAzgDJp1FAHluZvEB8d6db6dqsEmtJ/oct1p88EbYtEj+ZnUBfmUjmtiynuvEPirQrtdJv7GLS7aY3LXlu0QEkiqojTP38YYllyvA55ruqKAM7U9Jt9XijS5kvI1Q7gba8ltyfqY2Un6Gue8D6bBH4eljD3RWPUr9ATcyEkC7lAyS2SeOSeT1NdlXOeCP+QDc/8AYV1H/wBLJqANU6fBgndcf+BMn/xVfLsOpXly/mzRWfldY4msoTj/AGj8vB9u1fVjfcP0r5PZ1RSzEKoGST0Argx03Hl5et/0PrOFqFOrKo6m0badOu56r4cm0vTvDOm6nc2DfatRm+yPJaQYLEyOF37MfKAKXXNTsPDl7DptppzwadaoGuZEj2xw+YfkZR0K5V9xA4JHviX4bS6zN4ejkdLRdLaNvseNwmL+Y+4v2weox2xWlKupPo9mmui0a9YSCcWwJiIzxjdz93GffNfP5POTzhQlK+r0vfo2tPJKz82fI8VThToV5xWnN000cuj/ACNHw7Cs2oMrFgPKP3HKnqO4NaXia0hj8K6u/wC9fFlMdskrOp+Q8FSSCPY8Gub8GWV7ZeJ7oCbzdOnieZVkOXhkLKSo9VOSfbGO9dX4v3/8IZrmwgP/AGfPtJ6A+W2K+1xW/bQ8jKV/ssmpX1ev9dj5tn1u6XEFtFZGYjgfY4tqD1Py/pX0X4XtEl8KaM8sszSNZQsxWVkBJjXOFUgAewGBXzMqxafbM8jkn7zu33mP+egr6g8Hkt4L0RypUtYQNtbqP3a8GvKwbu3bY2wEryl1Xc0Dp8HGHuf/AAJk/wDiq+bvEmqXR8Vata2wtfLivZkeR7aNzw54yynLepOfzr6cPSvmHxGoXxRrGMf8f05OPUyNVY2fJFNH3HDNBVq84y2tr9/4Hf8AgufSNY0WOxutOZpdM/0n/j22wqxdypiAGNw/2QDnPfNP1J/7T06z8Q+HomhnuAWkhu4gj3KIdux2OWU9dpzjn0NWfCh1Y+CtEOkmzP8ApLfaftG7/U+Y+/Zt/i6YzxWpqn9of2nJ9o8j7DtT7Nsz5m7nzN+eP7uMe9fO5NUlUzhR5na8tL9k76eb1XofMcV1Pq9CvKCWktNNLcy/Qh8M3EWo6hbHEkb4zJFuKyREpu2tg5BwRXR+KLRIfCesSRSTeYtlOybpXdQwjbGVJwR7Hg1y+iaXGPGNlqcLmGXDLOq/dnXY20EeqnBB64yOhrr/ABc4j8F65IeQunznAHPEbdK+3xaaa06HiZLJSoVJQk37z36aLQ+b21Z7OAu0dnknkiyhDO30C8k19FeF7VLrwno9xIZkklsoHZVmZQCY1JAAOAPYcV8yQQySSC4uRh/4I+ojH9T719R+E3DeDtGIOQbGDBHf92teRhJXk03dnVgXeUk3dl5tPg677n/wJk/+Kr5w8UazLa+JNSt4orZ5TeSrGpt42YgORksVJ+pPNfTLdK+XvEFukfi7XJeWkkv5zubrjzGwB7CrxklGKZ9xwzTdSvOCS23fTXou52nga8s7XRBNqduZrm/vhZGS0tgoIKggPsA+QZbk561uahFpPmP4ds7OS2exCTxsIB5URYNho9wK7gSe3c+9UPhj/aH9kaj5f2f7P5n7ndu3ebtG7d/s429OetdI51EaDZjWDbf2gWIl+zZ2E/Njbnnpj9a+YwVXmzeMZNvVaX8tNOyWnzPC4rToU6/s+mxl+Gb7PiS10a/dxd+XuSYHy1ucJ87JjoQ2cr6c9DXoo0+Hbkvcf+BMn/xVcdosMcmu2ckkYZ42Zo2I5UlWBI9OCR+Nd4RlSM195io8skvI+byOqqtGclvzP8lt/kfKltqF437+6jsTJ1VRZQ/ux6A7c/Wvd/hyIdR8C6ddln/eGYfuZGjXiVxwqkAdOw56186lm1JiqEi1U4ZxwZD6D/Z9T3r6R+GCqnw70tVAVR5oAHQfvXrxcK37R8z1t9xvgm3VfM9bbdjpP7Pg/v3P/gTJ/wDFV4P8QtRNh4z1JQIfKi8vmWFJG/1adWYEnr6+1fQJHvXzl8SoDN8SdVkkIMSmIxoOmfJTk+p9K2xjtBO9tT7ThxOWLlFRTbi99lqtWdD8Pbmz1nRrt9T08NLp8/2uErbgbRt+UqFGPMyjHjnBWujCaVqWmxa3a2TI9+oDtPFtldACMPnk9O5PHSsPwAurf2HE2l/ZPL/tLF39o3Z8nau7Zj+L0zxW14i1K+0u+aXU2tU0aWWOK2kQN5kchVsmQ9AuRgH3HvXzGCqt5vFc1lfa/Tqreb1+R4/FVOUKWIjDWS7LW5m273Gk65psEdsG0iaWODFuu1rd2kwpwMfIdwGRyMZ716mdPhx9+5/8CZP/AIquGsc/b7fHXzF/mK9CywX14r73FwUWreZ8tw/XlVpSc91bXvovxPlGPV7y/lOIrMWg4+ayhPm/mv3f51778PYI7vwRp00m9WPmDbC7RKMSOOFUgDp2FfO09wVYW1sFM7Dgfwovqf8ACvor4VxGD4c6UhcuR5xLN1JMzk14eFcnPXa236nbgpSlU1eltF+p1P8AZ0H9+5/8CZP/AIqk/s6D+/c/+BMn/wAVVyivRPVKX9nQ/wB+5/8AAmT/AOKrN1y0ji0qZ1aYkbfvTuw+8OxOK3Tz2rA8YzXNt4Xu5rS2+0zRmNhFnBcb13AH125x74rSlb2kb9zkxylLC1FF2dn5dO5xQsriXWLG4tJkhcTxrcAqB5sO/ldw+YEZYrg9frXpH2CHGd9z7f6TJ/8AFV59od7BqTWV5bsWhkkUjcMEENggjsQQQR6ivTF6e1b4uMU049bnkcP1KsoThV3jZeex8yeKdZu4/FOq2dqlq0i3cyl5LaN9i7yMsSuSfryepr1L4TQpd+F7p5flf7a4YwDyAx2JyVj2gn3xn8q8k8UtBZ+J9ckIwG1G4Y45LMZG4Hqa9b+ChmPg+9afCs2oOQo/gHlx4BPc/wCNeHh23V8tfmduFbddpba/M9A/s6D+/c/+BMn/AMVWJ4XjWPWfFiKWIGqJ95ix/wCPO27nmunrnPDf/Ie8W/8AYVT/ANI7avRPVOjooooAKKKKAOb8T+IL7w9FBcQ6Ut3ZtNFFNKbkRmMySrGMLtJblwe31o1XxFfW+tHSdI0ldQu47YXU4kuRAqIWKqAdrZZirYHA45Iqp4+i1a90VNP0vRri/kkuLeZnjmhRYxFPHIQfMdSSQpxjPviq7jXbLxBJ4gtNAmuBqFjHby2ZuYUlglidypY7tpUiQ52kkY6GgDpdF1a31zRrPVLYMIbqISKrjDLnqpHqDkH6VmeJGU674Sww/wCQq/f/AKc7mrXhPSJtB8Ladptw6PcQxfvWT7pcks2PbJOKwNY8M6DY+JfDNzZ6Jp0E82pyLLJFbIrODaXDEMQMnkA/UUAdxketebfGaJJvC9iGXcqX6OB7+XJ/jXf/ANm2P/Pnb/8AfoVwPxY2aX4ZtprTFqxulVniGwkbHJBI7cD8qyr/AMOR35Xb65TvbfrseY+E7mK08UWEk8cjxM5iKohYnepUcDtlhn2zXpiaP4alKeDV024FvYKl7Gp8zywd5IxJnJOSeM9z6ceceBtQ1PU/GNiJbudrUiTbDLIxWQ+U2CwPbOCB+Nen/ZPEX/CPWmbfRf7Y80faPkfyfL3HO3vu246+9fF5ioQrxTm09NtNbuz+Wv3nr8QVZVa6k42XLp1urv03KqssiqysGVhkEHIIrr/ClrBYeHre2to1ihV5GCLwAWdmOPTkmvNWM2gT3Fzc3LzaQw35kYvJA5ZRjPUpyTz93B7V6ToFpZ3OjQSvbwS79xDlQ24ZOOe/FfpOJd6eq1/4B+U5DTjDErkk3FxfSy3/ADVzyP403Dp4ytILdd80lghGfuoPMk+Y/wCeaf8ABa3W28W3XUs1k5d26sd6cmrHxav30bxJAttcPaQfY0cpCxQFt7jOB1PAFQ/COe+1TxdctqdxLND9hcx20zl1U74/mIP8XX6ZIr5//l/21+89vT6zppr97PdcjNeafGuOSbwnZRRP5eb9N7Drt8uTOPfpXoP9m2P/AD52/wD36FcF8VgNO8OW0lkBau12il4RsJGxjjI7cD8q667tTbPo8rjzYunHuzyPw/HHb61pqCMiJLmPgKScbxnjua9Xi1PQYoofF8en3yz6n5dmT5LmTG4gbkzhRlev065FeW6NrWpXPijTLaO8nkU3cQmMkrFdpcZUjPORxivaYrW+/ty482307+yfIXydqHzvNzzu7bf/AK1fG5n7JTjztq/4q+3zdn8j3eIp81SMUkklbTb5HOaZqkGrWgnh3IysUkhkGHjcdVYdiK9E8Pn/AIkkHPdv5mvN9St7td97YEyXaR7VgeUiJxuUnjoGwCA3+1zxXbeE/sWreG7S9ayXMm8Ms0QDqyuylWz3BBFfo2JlL2ajL+tD8kyGlT+se1pN25WrO2nvf1Y4j43zpBFokjHj9+AAMkn93gAetYXwWilbxpd3NwSrGwdVjB4RfMjOPc8c10Hxc3aa+jPYSPal1nDiBjGH/wBXjIHXHOM9MmsX4S6jcax4wure6kkurSOyc5nYupkEkY+UH0BPPvXgu31jTfT8j3Xb607b6X+490yK4z4pO6/DvVDGm98w4GepMyCup/s2x/587f8A79CuW+IcEVj4Iv7m0hjgmUxAPEoVlBkUHBHsTXZUtySv2Z7mBTeKpqLs+Zfmjwnw5Zp/b1iLgeY01zGspI6gsOB6CvX4dM8NTGPwqNMuBDo/l3kQIfYGySCr5yxyTkH19uPLtM1q/GuabD9tmd57qKNI5JGZWJYD5hn7vr7V619l8QHQ9O/0fRv7V85PtuUbyvKyd2zvuxt68dfavi80tzRbm4326a9/krr5n0fEPu1IwstF0d/v8znbHxD9v1GS3uoGtpZy09pvGBNCx3L9HUEBl7HnpXofhb/jzm548z/2UVyep24uBdQJI8G7eivEcMmcjI9x2rX8C2txPo066zbQS3MFw0QmCAiZAqkOB/DnJBHqD2r9Cu1hYq2llY/JMqjRnjnUpuzTldfddr/I5j42Ro82hSEAtGLgKfTPl5/lXF/DCeW6+JGltH8ttGZgWI++fJcYHsPWux+Ma3FlJoa6bO1lE/nmb7MTG0mPL2jK445P+TXN+ANVuLvx/pVhd3U9zHKJS0Mjl1wInOWB4xkD8a8Opy/WO70+R7NVR+trq7r5H0ESDxxXH/FCVI/h5qjuwCr5RJ/7apXTnTLEf8udv/36Fcr8Q7eKy8EX89pEkEymILJEoVlzIoOCOehIrtq29m79mfQYC/1qny78yt63R88RwyXcizzqyopzHGf5n39u1e3xX+gxRweJl0+9E+uNFaOfKcuRyq70zhQMdR7da8mbWdQjVnfUblVXkkzNgD869vitNQ/te982303+zfKT7JtQ+bvx82/tjPpXx2azpWjztpa7aXWmn32fyPpuIacqfs1JLmd7u929tdl8jjIrKTwreSW0JLaCPMI8xizWW0Fup5ZCB9QfrXpHhRlfT5JFdWRnyCDkEYFcnGLgRIt4IhdBQJhDnYH/AItueduc49q3fB+lW8NhdLKWut9yzobn940alV+QMeduckZ6ZxX6C1JYaKburLU/H8rnSqY9u/vJy6Wvt57mL8a7dbrwjZRsTs/tBCwB+8PLk4Pt0rz34bTonxI0e2Ckk+cSFHCDyX5Pp6V6B8X/ADdL8KWkukoLe4e+WPzIvkwpjkJyRzjgceuK4j4cXF5N4z0y0vb64u4n83etxKXDnynPQnHUZx2xXiVuX28bvtoe5Xt9ZjzPqrL9T6EyPUUZHqKq/wBmWP8Az52//foUf2ZY/wDPnb/9+hXeeoWsj1FGR6iqv9mWP/Pnb/8AfoUf2ZYf8+dv/wB+hQB5z4o0p28WvqdhKLe43olyCPlniwuQw/vAZ2t+HStrwDqcGq293NBlGUqksUgw8TjOVYdiKrawkUer3UUQQKjAFUwAp2qeg6dc/jV7wxZW8813JLCshwgAf5gPvdAeB15I64HoK9GomqOm1kfHYSpTlmaUm3JSnbTy1T7rsYnxr88+D7JbdRva/Qbj/CPLk5x3rybwpFFZeJ9FXdgvqEALN1ZjIvX3r1r4uyR6N4Utrq0xaubxELQjazAo/wAvHJyQOPavLvCt/q1z4p0pr2/unSW8hQ25mYpsLjIYZwxPevncR/F10WnzPcxS/fK7stPmfTgIx1Fc543I/sG25/5iunf+lkNbI0yxx/x52/8A36Fc/wCMbK1g0a1kitokcarp2GVACP8ATIa9E9U6uiiigAooooAKKKKACiiigAooooAK5zwR/wAgG5/7Cuo/+lk1dHXOeCP+QDc/9hXUf/SyagDoG6EdzXyGoOoESSKRbA5RD1c+p9vQV9dvwhAPOOK+TyQoJJAA6k15+Oly8tt9f0PruFKSqOrzP3Va6777+R6d4Rk0bXfDtlpMt7Ol3pUovZY4GaPb87ldxxhgQeQPap7/AFzSHns/ENrNPNYaqvktdMWEUTRsVTKsAUDFnBPTIHrmpvB91fL4E0a40iwiuzNctHOXcR7YvMkDMD3x2HvWnrMc813NZXFjANM8pRC2QfNLZ8xSvYDC/XP5fPZK3/bKUXbWW7XZ30tfV2a7LvufH8Wyp+wrylrHm6f4tGmaXhn/AJCn/bI/zFa/i91j8Ga5Ifupp87HHPAjauW8Fx6ja+J7qGZzcWMsTzwzMfmiYsMxn1HJKnsAQe1dZ4sJ/wCER1nH/PjPn/v21fb4t3lr2PHyiChhJK91d7HyzDC9zKtzcLtK8xRH+H3P+1/KvqXwnz4P0X/rxh/9AWvlmSR72RoLclY1OJZR2/2V9/ftX1J4RRY/BuiRoMBbCAAegEa15WEvzO/bY2wN+d37bdkbZ6fhXyv4pnebxdrNtbt84vpvMk7J+8bge/8AKvqY9M9TXzF4iRU8U6ztULuvp2OO5MjEmqxzSimfd8LU5VK84p2Vte++x2/gi30Xw34cs7y5u7mGTV5BZohkdkL73C7QB8pPJJ9eeM1Y1RP7GjtdL0K5nu5NHQm6s52LPKkh3DDkY3ja23tjjjIqz8PZtVl0ART6dAbGFC1nMZgWmk3vuBX+HB4z/PtptLfz6ZZXGq2UdnqDqwmhjcOFweBuHXjn2ya+byZylnSUnd3f2lvZ2030V0/M+W4uao4evypWUtraW5loP8MXUd7qFlcQk7ZBv2sMMuUJAI7HBHFdT4sz/wAIhrP/AF4zf+gGuL0LSzF41tNStpjGJNwu4iMrKAjBWHowOBnuOPSux8XIsngzXEbOH0+dTjg8xtX3ONvpfseDkagsPUcHo5P5aLQ+W5Ha/LRRsRbg4kkHVvYf1NfUvhJFTwZoqqoCrYQAAdh5a18vzTJaxJBBGGkYYjjXgfU+gFfT/hAOPBehhyC40+DcR0J8tc15GC3dtjsy+93bRdP8zaPAr5c8WXCweJtWOC0jX02xB1J8xv096+pD69q+XPEFuF8Ya3MzF3e/uNpP8K+Y2FH+earHW5U2fd8L87rzjDqt+2p13w8trG/0WSHUL24W506+GpukLsgC7Aqg4HzL8jcdePetrU9J0nxNaL4i0zUrzzLvYbedXYJG0YZQyxtj/aBB6gn1zVTwDLqUGgp/ZtjFciTUhHdM8gQxxbVyw/vEenvXS6jJqQ1Ga2ewhi0uNUNvcJKNztg7lKdgP89ePmMFKUs3ir9e626q2+9mvJdTwOK26NPEOD1XzKnhPUhJ4jh026ITUIow8gAIWUFOWjz1UNke2K9LJG04615/o9pbz+I9PuJIg01uztEx6qSjKcfUH/OK9APC9O1ffYu6kr9kfMZC4SoTcFb3nf1stvI+RJp/I229uimVhhVHAUep9AK+ivhZG8Xw40pJHLuPOJY9yZnNfO8UcdhC8sz5c/NJK3Vj/h6Cvoj4WSNN8OdKlZGTd5xCt1x5z4/SvEwfxu21tzowH8R8u1t+7OyFfO/xKdU8e6qzNhV8sknoB5aV9EfjXzh8TIXuPiPq3mAeQhiwo/jPkocn2HpWuNSdNX7n3PDMpxxj5FduL/Nb+Rt/Dy80u00aea/uJrd9WvBp0C5b5/kBUgKPlJLn5j6DpXTP/Y0Fo3hOCeS5ksEQTw3G5jscEjcxGGznt09qyvho142h6iqWkUkUcm+3ZmALy7MFcdgAF5/2j6VuX2oywaJp1xrlvDYX11KIpI0feqyYcqu4eoB79TjnNfLYKUP7YjzbXXVb200teyV0/PtseLxbGp7PEJO8tehjabK2gavpWnNHJJpskqQxXBYs0chkO1H/ANnBVVPtg9a9fI+T8K87shm/txgE+ap5/wB4V6JnCfhX6BjFZpdNT5Th+p7SnOTWul3303PkZEh06BnZiSfmdz95z/noK+iPhZJJL8OdKkeMozGY7T1A858Z98V85wQyXEoubgbdvMUR/g9z/tfyr6O+GMiyfD7TGQhhmYZHqJnBrw8Jb2j6ux2YH+M76u2r+7Q6/wClc3qfjnw7o+oTWF9qPlXMeN6CCRsZAI5CkdCK6TBJ68V83/E6R5PiJqtrbkhgYvMkxwgMScD1Jrrr1JU43j+J9TlOEo4us6dVva6tu3daantFl470HVIr2XTr7z0sU33J8qRPLGCe688KeBnp71XvvFWm6roFpPbS7odSYLattYbyAWIwRxwjdcdK8z+Gh1Cykng0uwjngeeBbt3m2mKMiTLj+8f8+47fWr/VLKHVN+jo+m2qwG1eGQGSUEgSYTttBOB3xgdePnI5piFmUKalaLcdNNtE1a173d99vvOXP8B9XpV6EdWov8VffYzEsLqPxJp1/p8wUedHFdW78I8ZkyWHo43Mc9+hr1gHAA9q820a6gvpLO5tpBJDJIpVl6EbhXpI7Y6Yr7XFpXTXmfKcPTk6UozWqsvPZbny14kty/jTWp5yCV1C4Eajoq+Y3P1PrXrvwXmjn8J3zRncF1B0z2JEcfT1rx/xWXvPGGtwRFlhjv7hZHHBY+Y2VX+pr2L4MosfhG7RAFUXrAAdB+7SvCofxtd9fkduG/3j3t9fkek1znhv/kPeLf8AsKp/6R21dHXOeG/+Q94t/wCwqn/pHbV6J6x0dFFFABRRRQAUUUUAFc54k/5D3hL/ALCr/wDpHc10dc54k/5D3hL/ALCr/wDpHc0AdEea80+NEST+FbFHBwt+j4zw2I36+o/wr0vtXnHxkIHhazJIAF6uSf8Acesa7apSsehlKjLG0lJaXPLvCVpFeeKbCOd3jiVzKWRipGxS45HbKjPtmvTE1nw1GU8ZrqVwbe/VLKNj5nlk7yBiPGQcg847H158r8FXN9L4x0yfT4VlVZSuxzt8xSpDnPYKpZh6kCvbo3vzrcto+m266QkKvFcBwWaTdyuzsB1z/jx8NmnuV43fTVcyWl9VZp6vT7n8vb4jqKpiU1ty6fjqvIxHVZEKOoZGGCCMgiut8IWUGn+G7a0twwijaTarHOAXY4HsM4HoMV5naCXw4zwXU4OjKo8i4lf5oCWVRGx7r8ww3YAg9BXVwfEfwnoEQ0zUtV8i8iyZI/s0r4B+YcqpHQjvX6lVpzq00oRbfZK72PyHIYSpYuyleDi9ej9781fU4j4yWyyeOLOZySI7BNiHoG8yTn60nwbuhceN7yJFLRx2DhpO27zI/lHr3zWN8SfEmn+L/EsE2hXZms0tVimuBG6EMHclAGAOcEc9Oa3fg0scPi+eFAF/4l7kKPQSR/4183KLjibT3vt2Pc0+t66u+nke6A9s15r8allbwlZLCwVjfIGY9QvlyZI969J5z2rzv4x/8ivZnv8AbV/9Aeuyu7U5M+nyqPPjacX1Z4/4egii1nTYRlY/tMYJBIPLDJz1z716zFpmgyRQeD01C+M2lmO9K+c4kxuJG58YYZbp246YFeR6PdSL4m0qG3jWWUXcRYFsKBvHU9ie1e0i78RDQrK6GiWv9qyyql1B9oG2KLccsH74GDj3PXHPxWae0U4NStfbVLXo3fpa/wB57/EsqbqRhDaKt5GTp2oW2qWcd3aPuifjkYZSOqsOxHcV6B4eH/Emh/4F/M15fd2D6dc3Wr6bA0s7oBLaq21ZiGHzD/bChgPXIzXpHhC9g1LwzZ3lsxaKXfjK4Iw5BBHYggg+4r9KxMn7JJ7/APAPx3h+lH6z7Sn8PK/VPm2f6PqedfHOKSdtAjVtsR+0eYR1I/dcD6881m/Bvyo/GE8C4BGnuQo/uiSMf1rS+OVx5H9gqgLzSfaAiev+ryT6AVk/Ba28nxfdSOd8z2L7n/7aR8D0FeBL/eVf+tD3p/70uba6t56HvPeuM+KTmP4d6o4QswMICjqSZkA/nXZZrkPiZn/hANS9Mxf+jFrrq/BL0Z7+ATeLppOz5l+aPBPDsS2+v2N1dSfN9ojZ25wgDA4HsP1r2CLVPDkRj8VLqdyYdX8uziJL7C2SFCpjKnIPJ9D68+T6HKkXiTSgzAF7yFFB7kuMCvcIn1A6xc2z6bbppkMaNbTiQZeTuu3Hy49f8j4bN5e/Fyv96Wl9ldb3t9zPpeJIQp1YQj0Xrq+rOS0+8ihvZ9EZJIZ7ImOJZWy00Knajhv4sgDPoc5r0Dws3+hzDH/LTP8A46K4W8s5NRhjnuoltdTRGKuuG+zyuhVsH+IAk+xwK6vwBcXs+jXC6hbiG6huDE5XlJMKpDp/skH8Dkdq/SW5LCxU9XZan47lMISxzqU9NZXX3beX5HF/HOdo/wCwUiTdNJ9o2g9Bjy8kn0Ga5T4W2qweP9NJO+VzKXc9SfKf8h7V2PxwkSBNFkkYKiifk/8AbOuJ+F8ctx8R9KuZcpGpl8qPoRmFxk++O3avCqf7x2V18z3av+9dldfPbQ+k64/4nsqfD3U2ZgAvlEk/9dUrsK474oIkvw91JHAIJhJHriVD/Su2rbklfsz6DAc31qny78y/NHzkqHUGDyAi2B+RD1c+p9vQV7jDYaDKkPhlNQvTNoTRXbDznD45Zd74ww56D26V40SFGSQAOpNe6LdeIBpGm3A0a2/tGaWNL6H7QAIosncwb+IjjjnqetfF5tOXucrtvbVLXvrvpf5tH1fEtFU/Ztu8ne777fcjlYdRnh1J52la60e/L3VvdsNpgDAybXzjCYyVJ6dD2r0fwqubGY9f3n9BXK30EUrXFvIitC5ZGjI+UqcgjHpitzwDpzaZotxafaJJoVuCYBJy0ce1cJnvg5wT2wO1folmsJBLay+Wh+MZTKnUxzk9JJy+e2vr+e5i/GiVIPB1pK5wq3yD/wAhyV5r8L45JviNpNzMCpBl8uLP3QYX5Puf0r0v4zRpJ4VsdyhtuoIwz2Plyc/rXm/w0uTN8S9LjiUNEhmEjnpnyX4HqfWvEq/7wreR71b/AHpcvldn0hWZrl7Jp2g399CqmWC3eVA/3SVUkZx24rTrD8YDd4L1tAxQtYzgMO3yNzXdLZnr0knUimr6o8eb4z+JWufJt7XTH2n96zxSFVHp/rOTXdJrmjx+Vrh1vUDb648dtbK0spjDkEDy0x+7JxyeORXhsEKW8QijGFH5k+p96+gIJdSbUb2GTTLddPgjjaylEozI+OQVx8uDxn+fb43OsVUtG0mlrs7XWn43s/RM+nzrL6WEVNxik5Xv2VrHJXfh+fSNYSfTb25uGZ0W9+3TtK06cfMWPO9R09QAOwrr/AmoW2p2lxdWrlo2Cg5GCrDOVI7EdxWHFPqFzEJtVtEtL1h+9hSQSKh7YYdeMH8a3PBmn21tfapdxR7JLkRGUhvlJXfzj155PfA9K+8w6n9Qg5O7cY31vd6a3PyLC1YzzW091OdvS2z/AEfyMv4zIr+FbIlQdt+jDPY+XIM/rXjvhiZ7nxnoqwNthj1C33yf3iJF+Vfb1NevfGuFp/B9lEJCqnUEL7epXy5OAe3avJfDc0Vv4t0GBE+ZtQt1VFHRfMXJ+grxa/8AGVtXoe5if94VtXp8j6mHSuc8b/8AIBtv+wrp3/pZDXRjpXOeN/8AkA23/YV07/0shr0T1zo6KKKACiiigAooooAKKKKAK93cJZ2c91ICVhjaRgvUgDJx+VZOg+IZNfhiuE0TUrK1mgWeKe6MG2RWwQAEkZgSDnkCtO/MY065MsD3EXlPvhjXc0gwcqB3J6YriNAsbWPxhaz+HNGvNL0tLSVL/wA21e2jmYlfKAjcAsww53AdDjJzQB6FXOeCP+QDc/8AYV1H/wBLJq0tT0m31eKNLmS8jVDuBtryW3J+pjZSfoa57wPpsEfh6WMPdFY9Sv0BNzISQLuUDJLZJ45J5PU0Adc3KkZ9q+QgTqJB5FoD9DIf8P519ZtYRBGIe4zjj/SZP/iq+Zxqk6gARWgA6D7LF/8AE1wY2SXK+uv6H1fC9OpN1VGzjpdXtfe3fTuei+CEttJ8P21/e63NFDfn7LBbSygRRyeY4Hljsx6/54nu76z0A6boF1qlxe3SBw9zcvvYFzlFkbsWG4Lnrs+lQeCJ/wC3tFhjvdEMlrbZntrrcoillEjj5EGArKRjP1PfJvyW8eq6VDd6jon2O6u1K3FvckSthGOwMT1HOR6ZrwsoS/tde8+a700tezt57Xv57nyXFUqcqFd1Phb6f4unTexk+KPF2oeC9KTU9NitpZ3lWHbcKzLtIJJ+Vgc/KO9cdffGnxJrNpPpFxaaWlvewtBI0UUgcK42kqTIQDgnHBqb4gahq2m6Y0M0UFxC90JLe4e3SRVX5soysCAwyMN3APfNcLFr96LyPZBp7N2UafACTkcZ2cV+qUcJTrYaVSUE2ktW9ep4mWR9nhnGMrq7NCSSOxgSKGPLH5Y4l6sf8PU19Q+ENw8GaFv2+Z/Z8G7b0z5a5xXzdDqF3DGZrkWDS4O5/sUICjrgHb0HvX0R4Wt4bvwro9wXmzNYwSYjldF5jU8KCABz0A4r4nCcvM7a+Z1YDl5pcuvdnRnoa+WfFlw58W6vb22DKb2YljyIxvbk+/oK+m/7Ph/v3P8A4Eyf/FV87a7eSW/iTVo0htVH22XJa1jZj85GSSuSfc8mnjXFRTkfb8NRqyqzjS6rXppfodn4MWz1Dwlpmnwa7LbXOmTG6uUgmAcr5jttk/2Wzk/hUmvXU/2iHxLo99Jqul3EeJLSNtyqqHBeL/aBzle+PUCneGgIPDOmX1ton2q6v7j7PdSWxWErHvcb2xjIUDp71pXES2V4+m22l/Y7G2jUwSK37uQtksFUfd2kDPru/P5/JlF5unCTveW9uzv572t5HzPFLVKhX50uVS23+0SaLqthBNa6nPdwQ2LJ5nnzOI0CsvyklsYzkdfWtDxP4v8ADtz4U1iCz8QaRPcyWUyQxJexku5RgqgBskk4FedeOFvbHRLm8snt/s5CC4gmt0cE7lCuMjk8KuGyMdMEV5Zb+ILlXjd49PVBKNx/s+AYG7r9yv0r+zZYmi617cqf4a/qeBk3s4UKipu6cn0220NKGFLWN5pn3SMMySNwPoPQCvqHwe4k8GaJIucPYQMM9cGNa+aotVvLw+ZJDZi3/gjaxhJb3OV49hX0f4atYp/C+kys0wZ7OFiEmdVBKA8AHAHsOK+TwlueWt2d2BS9pLW7N8jg89q+XvFlxHbeJdXZySTfTAKOST5jcAV9Lf2fBjl7j/wJk/8Aiq+c9dvLiLxVq/mLaPsvpljLWsTMqhyB8xXcSR1JPNVjVHlTkfccMuqq01RV2116a7nT/DR47PRru41LVmt21C6FpbwGQBVk2gjZnq53df8AZHtW3qtqn9jQaBbeIZZtZ011nEs0m+UkhseYP4lIYjHpjvis7wF/xNdNuheaSk62contpVVEUy7eiqMAOMA7v9odMV0CQrc6bBq0+lHT9RucLPHI++QAbsKzd/Uema+awfs5ZtG7d7rTS17aedrXv57nhcTuVOFe72v59r+o3wjqSXWvxWcxWPUIEDXEAPClkzlT/EuSRn1Br0dhkH1xXinjG7n0fQLjWtPcW+pWu1YrlY1LqrOqsoJBwCGPSvOf+Fo+NPOA/t+4xjONiev0r9NhldfFrmi0rWWr73PmMlqUlRm4X1k7+tle3kU443vZFuLhSsanMUR7e7e/t2r6Q+GTK3w90wggjM3T/rq9fP0uuXtxObe1SzBU/vJfscRC+w+Xk/yr3v4eWqXPgXTpWyjN5uVgYxIP3r9FTCj8B15r5TDq1W3lsdWDX73fpt2V0dqea+ePiUQPH2qliAAY8k/9c0r3s6fCB9+4/wDAmT/4qvBPiFc3Mfj7U7VY7c2sRiH763jlaQmJDyzgnAz/AE6CtcYk6au7an2vDdScMW/Zq7cWu3VGt8O3t9V0JnTV7iy/s/UPtUqRyBBNFtUfOP7hKsP+Amuj1CwsdbiuNSXU5dR03UURUtmcNboFBBZB2JPU9c/hjE8GXEh0mN49HF2bq+FpcSW+2ERQ7QdzhQNyjc3HufpW3d3Eem3n9kLpbWOnxmNLSfzAIpnZWYxonYjafyPtn5vBcv8Aa0OV9dna1uvne9reXkeLxSqipV+Z+91a7+Rn6XdtousaZpd48ssMsipb3sh+9J5hxEx/vbdoBP3iD3r1sn5OvavKNale30W9uYiBNBC00TEA7XQFlYZ7ggEfSvJD8UfG3kZ/t6fdnGdieuPSv0j+zquJTcWkopvW+yPl8kq05U5Sje7tfS2ttyrJK93K1vASI1OJZR2/2V9/ftX0f8Lo0h+HOlRxqAi+aAB/11evA5dbls0SOO3s954jiSziGT/3zwPU17r8N4Hu/AemT3Tv57mUv5DNEn+tfgKpAHHtz16mvlsLbm93a39M7cDbn93a337anbkgV88fEgAfEDVSAOTHn3/dJXvh0+D+/cf+BMn/AMVXgfxF1G4tfHWo2VosDunlfPNCkpUGNDkswJJ54yf0rXGR5qaXmfa8N1XSxbkld8r076rbzL/w51GwiOq2NxqK2s935UEPzhX3uJMbc/xen4etdi0VulnDpKa5PdXuk7HuFeYNJKGUhfM7kfMGHuq1ynw+hhvbfU5p9Pt7me02TwiKCOJjLh+QVA+Y4wD2roNSvV03QYtem8PXEFzeFBf7H3ywIAcM5HLgYA9gfbFfKw9is0g1J35o9rX/ADta/wAzi4oVSpLERqKzae2v2dPnsVBHcaVrdlfWskS6esqLeQOwRY0LlmmBPAI3MWz1HuK74eNfCmcf8JNo30+3Rf8AxVcBq1yknhm/urd45ENo7xtgOjDYSODwRXh39vXgnI8nT87cf8g+D1/3K/VqOUyxi507a2+8+IyOt+7knurdLPZbnT+Kb+JvEmpvZtHcfaLyZ4TGwKupckPkcbec5r174JwtD4PvRJIXkfUHZj2z5cfT0HFeN2mqTRWaTypZbigYubKFcDGQOE6CvYvhFI2reFry4uEaLF66oIiYQV8uMglUwM5J98Yr5GnBQryjHo2d+Et7V8vnc9OrnPDf/Ie8W/8AYVT/ANI7atf+zoP79z/4Eyf/ABVYnheNY9Z8WIpYgaon3mLH/jztu55rtPVOnooooAKKKKACiiigArnPEn/Ie8Jf9hV//SO5ro65zxJ/yHvCX/YVf/0juaAOirzP41RCfwrZRMzBBfoxA/iGyTg+3+Fel5rzr4x/8ivZf9fq/wDoD1lXbVOVj0MpjGWNpKWzZ5h4OuILTxXYPPMsEZZoxISAFLIyrj3yQB9a9NTTonsYfDK+KL5tRtCLqWUTj7Q8e8nDn+6cgfTH4+WeBmF741sF8lJrZGdsMoIkZY2KgZ44YA59QK9WXUbwaVb62vhRl1a4dYJrcOnnJFvIyz45UcNj37da+GzNSjiIpb6dVvd2vf536bHtcSVI1MSnHbl+/fYqzwx3ELwzxq8bqVdHGQwPUEV4R4vsI9M8WXVrFLK8UaoFMrbmC7VIXPoBgD2Ar1/T3u9JnNhqEhls0UG3vXYZILBQj/7eWGD/ABD3Bryj4g/8j5ff7qf+i1r9syZp1r210/NH49kkJUsS4c14uLfk9fz1M/SbkW9hIqjfK8zBEHVjgfkPevU/grbtH4xu5piHuJLB9zdgPMj4HtXl2hRRJbz3DBQd7AseyjBr1H4KzSXPjO6lA22xsHCAjlj5kfzew9K+Kx3/ACMKlv5tf8j6CP8AvPu99X+h70M9680+NRlHhOyEAG979FLHoo8uTnHevS+/Fec/GP8A5FezP/T6v/oD1Vd2pyZ9PlUefG043tdnkHhuKO21vTgXIH2qMvIx5++MkmvZIr7TUuf+EjPiJm0+/RLaCJph9nEm4jKD+8SCPwOfbxrRrgL4n0qBI/Md7uLKDHA3DOc/5Ne1xQQnUH0ZvDkSaVaRpPbzbI/JMmc4RMfKwOTn69OM/EZr8cXLrvttfXfre1reZ7/ErpqpGENkrGRaXlvf2kV1ayiWGQbkYdCK888V/ETxT4c1y707SdV+y2kO0pELaJsFlDNyyEnLMTz61181mdEuLrUrKOWS3kXdNZRAHc+5cyIOzbd2QPvYHevIfHd3b33ia+ubWQSQyCMqw6H5Fr9lyynTrOcasU2ot6q/Rao/GsjpcuJ56TfK4v8A9K2f9amrceMNa8TgSa7fi5FoCYiYY49gb733VGc7V6+ldt8Fnmn8Z3czZSD+z3CKRy37yP5j6ewrynSrZbiR2cnYm07OzHnBP0r1n4OXCSeObuBcsyae5YjoP3keAfevnM8pU6WbzhTiklbZWS0R70HfFK2r/LQ93rjPijIsXw81RypYjycAdSTKgH612Wa5D4m5/wCEA1L0Plf+jFrlq/BK/Zn0WATeKpqLs+ZfmjwPw7avL4h0+WdykrXEYQof9UC4+6fX3r2VLCGS0tfDy+J777fprx3NxKJx58iZJ2yHupz+QGffyLR5fJ13TWC73+1RBFBALtuGFGe5PFewpfXaabZ6uvhZxqd9IkF1CGQSxJkjc74+ZRwcf7XbmviM1c3KDXy236b9LX+dj6XiOEIVYRW9nfu/UyLTXLPV728S3JDxykhW/jjJJSRfVGGCD74ruvCwJsZuePM/9lFcNqmkQNcCWzjjgvLRXS1dVwsYKlQpA6oODt9hXU/D+/mvtGuGu7Vra5huDDNGeV3BVOVPdSCCD71+j3thIJ9lb7j8eymEXj3Up7Xlddnp96/I4/4328c8/h9pDxH9oIXsT+7wT9P61yHw1umk+JelQRLvRPO81uy/uXwB6mus+OizOdAigO0OLjfJ3Ufuunua5X4YiG18f6PAuFLGUKO7HyXJrwav+8K+uqPbrf72r66qy7ban0bXIfE7A+H+psSAB5WSf+uiV1+a434oxrN8PNTRskEw5564lQ4ruq25JX7M+iwF/rVPl35l+aPnL5tQbnItFP0Mh/w/nXvsV3p0Vy2ut4jkey1QR29rE0w8lX5A8sf3jg59wc+3h6gLgAAAdAK91hija8l0t/DsS6dp6xy2cpSPy3k5OEXHyFT3/l3+KziSaintr22079b226XPquJaXs/Ztu8ne7+78EcpZy32jakNI1OaW8iZmFtfuMs+0ElJPRsAkN3A9a9I8Lf8eUx/6af+yiuMkX+1LFhfWrQ/aoz51u7ZKbx8ykjHTJGa51viRd/DZDo9xYf2uhImguHufKfyjwFf5GywIPzdxjvX6XRw9arh4wgruyb1XRan4vlU6c8c5rR3lp321X6o6n42RyTeELONJPLzfpvYddvlyZx79K8++GJgt/iBo1umF3GYKo9oXJqHxd8Wz4vsIdMGhtbOsomRhdeZvIBXbjYMD5s5z2qT4WWrR/EHTZpmDzv5uW7KPKfhfQV4WNoVMPivZ1lZprTTf5HvVmniItvS6t5n0eaxfF3/ACKGsf8AXlN/6Aa2u9YfjAM3gvWwjbWNjOFOOh2NzXTL4We1Q0qxfmj5gnuHaT7NbY84jJbqIx6n39BXukVnby29po6+Jrw3mjvFPdOJx5sq4JAl9VIPftjNeIW1ulum1ckk5ZjySfUmvdEu7iOysNSj8Ln7dqMkUN6isgkhTkbpGx84UdvftXxOcPSCh59t/O/S1/nY+v4jjU/dzqPV306Jaaf8EwL2R59a/tvQ7lL2wvnQXMYkypwAnmIexXGGHcL6iuy8EXcF9bTXdrKskMiqVcdD1rHubW3sZ2t7S3it4IwAkUKBFXjPAHArite8UX3w7vBNokNsy6qWeeGdXZFePHzIFZcFt/zeu0e+f0XLMNKtgqVKh1jG1z8Yw1WM81ftPiU5289Nn6dH8jsPjXM8PhCyKRl5H1BFUds+XJ1PYcV5L4QthB4q0iSR988l9Buc/wDXRcAeg9qn1P4oaz4ysBY6rb6fDBDJ54a3jdTkZXks5GMMaqeFQ974w0SeQMsCX9u0aHgsfMXDN/QV5OYYeph66hU0uk/v2PcxEuavpotL/wCR9VDoK53xv/yAbb/sK6d/6WQ10Y6Cuc8b/wDIBtv+wrp3/pZDXSeudHRRRQAUUUUAFFFFABRRRQAUUUUAFc54I/5ANz/2FdR/9LJq6Ouc8Ef8gG5/7Cuo/wDpZNQB0Dfdb6V8hsxvyY0JFsPvuOrn0Ht6mvrtjgEjtXyeiLGiqqhVUYAHQCvPx0uXlfXX9D67hSk6rqxb933b+e+np3PWfCUM154M0i00zV47Ga1n86dFRZGaLzH+QqT8ob19quatqMKazbyNqqTWuox4skRQY1eP7+HHUtuHH+yayvCH9m6T4W0/VI9Imu7rUpTZzS2sXmNt8xxl+eEGME/Sr+p6XpRtj4bh0t7axtUV42ClULOWOY267lK5J7EivnskT/tiPL3lul2d9d97W8j4/i72fsK6l8PN0/xaeRxnxX/5FGL/AK+k/k1eUWzKmoQMxAUEEk9hmvRPiVeXo0c2F9D/AMvYlt54x8jxfMNp9GXcB79fWvO7dVfUIUYAqxAIPcZr9mwjvganov1PAyym6eGal3lsbwB1Jgzgi1U5VTwZD6n/AGfQd6+p/CRz4Q0bP/PjD/6AtfLdxcMZPs1tjziOSRxGPU+/oK+ofCC7fBmhruZtunwLlup/drya/PMJfmfTyO3AX5n0VtEbZ6GvlnxZcMvivVoYVDTtezEAjhR5jcn2/nX1Kckc18v6/bpF4s1x1B3SahOzE8k/vG/QU8c0ops+64XjUlXnGDtdavra/Q9D+Hdread4ajmvNfBtrsGK0gmjRfKl3vkqxPzFjyF/DtUmr3eoaBp+mx3l8urm2WT+0ZlQLMisQUfy1z8oAYHuQM9jUHgt7HWPD9vY3ujXMv8AZbfaop5Yf3ckm9yPLOfmI6EetayyWuo28Wtx6bcWNxfpiVLlNkhEZIXcufc49iK+cyZSecpvR3fRb2fL56q9/PfU+W4t5aWHr3V0pWtd7cyX3+ZzHjiaO48B3s0Lq8UiRujqchgXQgivE7MZkhUgEGZQQe/zV6z46s7yx0G+a1dW02cRLJA3H2cqyhWj/wBk7QCvqcjvXklurOY1VyrGUAMB0O7rX7NgnfAVL/yz/KJ85k8Ixoz5XdOTfpot/NHSTzSSSG2tjh/45OojH9T7V9Q+EFEfgvRIxk7NPgXLdTiNetfL5MOnWwABPOAByzk/zJr6g8IFj4L0NnXa50+AsPQ+WvFfnWD3dtj0sv3fKtPzNojg5FfMHiqVIPEmsO7fKL2b6k+Y3A96+oD/APrNfLPiK3Z/GeszTENtv5xEo6KPMbn6n9KrHJcqbPu+F3NV5qmtWvu13O3+HUV/feHf3Gqpp7wan9ouIRGsheDYo2Nk/Luwfm9j6VueIrPVr121PS/ECvbMY3tbQRqYSyqwYM45ZWyfocHsKxfAktrYaM0r6VcXkuoXosXkgi37E2ggvzwgLNk+9dG72mnyHw9YaXc2ttZKrxy+ViBt2SVVs8nJOfxr5jBKUs3jZdey26673TtbrY8Dit+xp4jW7XfW/qcX41vlvPAWpIcR3USwefAWy0TM8bYPr169ODXjYBM6/wC7j9a9j+JGmQSeGLnUV3R3EQjUshx5iGRflf1AJBHoRXjn/Ldcf3f61+3ZPf2Ur94/qfJZNyewm4fzP5Oy/A6gmHToFSNSSflRB95j/nqa+iPhYZf+FdaV5zL5v74tt6D98/H4dK+dbe3ZGa5uWVp2HJ/hRfQf419FfCyZJ/h3pcqElWM2Dj0mcZr81w1vay6+Z3YD+K7a6as7IjI96+efiT/yUDVPrH/6LSvoUk84Ga+cPicslz8RdWgwUhBi3t0L/ukOB7ep/CtMbG9Nep9zwzU9njG0rtxaS87o6b4YzFtD1CQamsEc9wba2R1UYmCAl1J++TuUbf8AZ9639R06O68OxaJq2opqd3DtaeUBUk3HJV9oOUI7H2rnfh7b6fdaLPHdaXJcHTbkXtu4iyA+3AVOeXGzOP8AaWuixp11bw6+unNY32p4RxcJsmbarYVhnrhSfoPavlsEoPOI3Wl10W9tNd7NXv5ni8WurGniHf3l2OV1bUG07RLrSdSmaWd7GYxXTLtWYjf8p/2woUn1ycV4cebUn3/rX0J4ntoLrwzqS3EayBbd5AGGdpVSVI9wRXz3jFrx/e/rX7RlitSqr+7L9D4/JJxnTlJKz92/bZbdjqre38nfcXDq07DLMeAB6D0Ar6K+Fcyz/DnS5VDBWM2Nwxn98/NfOSBtRYOwK2inKKeDIfU+3oO9fSXwy/5J9pmP+mv/AKNevzvC/wAV33t9x6OB/jO+9vu20OsIFfPHxHQL8QdWYAZZoiSO58pBX0QSO9fOXxQnK/ELVIYgGmbyzjso8tOT7VrjU3TSXc+64XnCnjJSl/K/vutjT+HVvd3Nzdva6r9ijtZYJbpPLVvOjw/ykn7o4PNd1Ok3n3t+2tR3OnXixrZ2qqm1CBlirg5fOCfz9K8++G80Ngbyzm0+5vhqMkNtNJFHvChhJln/ALqY4+ldhqF1pGlWlxYnSLm1tND8p4LhoD5Q8z5CUbPOA7bj259K+TirZrB9Lx6La61vvvbzt5HBxXz1HiNPecXp/wBu6HNeIobrRtHu/sFur6W9rJHJboMNCzbz5i+q5b5h2ABHQ14nn9+T7f1r6E111fw1qTqwZGtJCGByCNpr58bBuWx0x/Wv3XJlam7fzL9T4HJKjnTlzLXS776LfzN6zie7gha4XbCirsj/ALxA+83t6Cvffg26t4UvdpDFb91OOx8uM4/WvAopnmt4ba2Pz+Wu+TqIxj9T7V718FoUtvB13GgwPtzEnqWPlx5JPc1+bP8A3uV+70+Z6eF/j6+dkel1znhv/kPeLf8AsKp/6R21dHXOeG/+Q94t/wCwqn/pHbV2HrnR0UUUAFFFFABRRRQAVzniX/kPeEv+wq//AKR3NdHXOeJP+Q94S/7Cr/8ApHc0AdEOa8z+NURn8J2UW8qpv0L7e42ScZ7dq9MzivOfjIP+KXsz/wBPq/8AoD1jXbVOTR6GVRUsbTjLZs8u8HW0svijTorS4+yMH3CQIGwqqSy4PHzKCvtnNevxyY1R9WbXoH0ieFYYbcbNgk3feEmeSemK8Y8I6h5PjLTilrLdQiRopViTcTvUpwO+N25vQA163Hp2iPP/AMIt/YEq2Fmi3cTtF+43bycK2eWyScfWvhs0javHm7dk9L67632t6s9riOcZYhcmyjby6lC8tIL60ktbqNZIZFwyt0IrwvxfayWPiy7tnuXuTGqASS/eK7V2g+pAwM98Zr2HTLm9s7g6XqhMjRrvgvcYEy5C4b0kBYAjvnIryj4hf8j5ff7qf+i1r9tyazrc3XT80fjuSKpTxLpN3jytrtv0/X8TL0e2a5icSkC3WViUH8TcdfYccV638HZo28cXVuvLLp7scDhf3keAff8AwryTSZ3NvJbQD96ZSS2PlReOT6n0Fes/Ba3S28V3KJkk2Tlmbksd6cmvi8w/5GE+b+bQ+gX+8rm76L9T3ivNPjU8i+ErLykLO1+q+w/dycn2r0vtXnHxk/5Fiz9Ptq/+gPRXdqcmfUZVFyxtKKdtTx7w3beVrmnhZD5r3UZMpAJzuHOPb0r2VLDVG0m00seJwdWtpElubgQJvlj3E7THn5QRgZ/2frXjek3SQeItKRo2lZ7uICNBliN4ycV69HqVilpB4oTw5qIvdRKWkkYt/wB+ibiAZFzwvGc+m2vi80VRzg7ddNE9em/S1/uR7/Evs41Iwh0X9fMhhniuIEnhkWSKRQyOhyGB6EGvDPiDBFb+K9RSGNY0JRtqjAyUUk/iST+Nerm2PhuS5u4GY6Tt3vaohJhcsMugHRMFmK9sZHWvKPiBNHceKr+aGRZI3ETI6nIIMaYINftOTu7qJ78r/JH4zklNwxXNB3g4v/0rZ+auUNNadvNhhG3fjdIeigZ/M88V638F4I7bxVcRxjA+wuTk5LHzI8k+prybS7mO2inZ8knaFVeSx54FeqfBWFx4zuri4P71rBwFB+VB5kfA9T6mvmeIb/2xU6K6+eiPfhf6wr6K/wB7se94rjfilIsPw71ORiQFMPTk/wCtTiuyrkPidg/D/UgQDkw9f+uqVxVbckr9mfRYC7xVPl35l+aPA/DcLS+JtLurnCst1GY0PSP5xyff+Ve5QuyanLqb6/DJpl3HHFa2+E2LJ0yr5+Yk9q8V0VY317TY5VVke6iUq3RgXAx+OcV69HYaNJN/wjf9gSraaYI7qB3i/c78kjY2eWBJz9TXw2bNOcW+3ZOyv0v1vb8T6biOlGlVglq7Nt935mVYXqXHn2sl0095ZyGC6Z02M7rxv29g2Nwxxg15f8VP+RrtP+vFf/Q3r0u8tBfyprlpA9tqHks0ccwKFg6khJQPRiDjsRXkvj3U11TxDbv5MkFxFaCOeGQfNE4ZiRnuMEEEdQRX7BkbftKSnvZH43llOP1yVSlt71/J6fgY2j3K20dwcFnZgFRernJ4FehfCy2ZfiJplzOQ1w3mjjog8p+B/j3rgNBWP/SJWC7kPDHsDnP8q7z4YTSXnxI0qRMpbIZcHHMh8lxn6fzr5zOv+RlLl/u3+5aHtv8A3jTTVXf6H0liuQ+Juf8AhANS9AYv/Ri12Fcb8UYxN8PNUjLlQxhzt4J/epx+PSs6vwSv2Z9HgG1iqbirvmX5o+dGJv2MaEi3HDuOrH0Ht6mvfFstSk0+w05PEy/2jZSxy3kohQvNHk/KyZ+QNxz7V4aiiNVVAFCjAA6AV7XHfWEVva6+nh6/+16w0dtMot8yqvIBkGeFAHX0xXxebczUOVemievnfyv87H1fEtJwVOU3du9/w0XoY0ery/27PZXgRluJZJbC5i5SaLJYLn+8q/mBkV5t8Wf+Q5b/APXsn/obV6vdaba/ZX05I/LtlVoUCHBjTBQbT1BC8Zrxj4hxajBqcVvqMyztFAqxzjhpU3NhmHZuoP0z3r9byS6gktVyafcfiuWezqY1zjZNOV1321X6oxtJKpqLuxGFgJJPb5lr0D4XyTXXxH0qYbkt183aOhk/cuMn29PzrzvTYEuNSCSZ2CMsVzw2GHB9v8K9J+Gtwv8AwsrSbZFLn96WI6IPJfGfr6V4fEf/ACN5230/JHuz/jxstdPkrn0caxfF3/In6x/15Tf+gGtrvWH4w3f8IZrezaH+wz7c9M7DjNc0tme5Q0qxfmj5iuLhlYRQgNOwyAeij1Pt/Ovf4TKl/dXz+IYn06/WOOxh2oFifGMo+fnLHnFeBWtuLdSMlpGPzu3Vj/h7V7jDaaRLMdEOgXC22iiK4tnaL90z4JHlnPzMMnPvXxGcctoped9E9Lrvtrbbpc+x4jVT91Oe7vp22+9nOvZa7oOpxm6v5daS4dI7pzGEaNiAquijjbjaGHtu9a434qTxXEWiTQuskcizMjqchgdnINelRal/a8K35tLm080Z8i6j2SJjjkdumR7EV5T8SdJi0u4sPsrlbWbzWS2/gibKbivoGyDjoCDjrX6vw3GcfYc3ZX20dunSx+K0Z06mZu+klKdvNW6+f9bnHaPbpPP+9+YLltvYkHv612Hhy5Z/GuiW9uoO2/tzKx6KvmLx9T6VxulCdpCkJAZgQXP8AzyQO5/xrs/DCQ2XibQ4s7d+oQKM8lmMi8n1NeTxJ/v0L6+7GyParW9sr6voj6nHSuc8b/8AIBtv+wrp3/pZDXRDgCud8b/8gG2/7Cunf+lkNc57Z0dFFFABRRRQAUUUUAFFFFABRRXL2XjfT76/toUtb2O1u5ngtL+SNRBcSLnKqd27na2CVAOOCaAOornPBP8AyAbn/sK6j/6WTV0dc54J/wCQDc/9hXUf/SyagDoCPkI9q+RJJXupDBDkRg/vJB29h/j2r67bhSfQV8mxRJDGscYAVRgAV5+Oko8r66/ofW8Kwc3Vje0dL93vp/meufDe21S38Ox5uLX+yzGy2kKxnfG/mPuLHuCf8jvdmnu7S20yx1u+t5dVlWVsxLsVwpH3QfQFf1rD8HvofiHw/Z6TdpNLPpMgvjtDqqsJH2kMPvd+P8OLmoWmieLbGPXLRZ0a+Ubbj5kkRomYIyg/dIJbp196+eyaM/7ZUmrO7+z5O2vmrvzaPkOLY0/YV4y0jzdP8S6eRyfxX/5FGH/r7T+TV5NCGN7EqHa5wFbGcHPWvR/iXqUr6KdOu4fKnW8EkLLkpLF8wDA9mGQGHqc9DXnELCO9ikIJC4OFGScHtX7NhHfA1LeX6ng5XSlTwzi+8jpAIdNtSSSecknlnY/zJr6h8HknwXobFNrHT4CVz0PlrxXy7BC8kgubkYf+CPqIx/U+9fUfhLB8IaM2cg2MBBHf5Fr86wtueXVnXgLc8ur6s2G6da+XPFtx5PinVY0G+d72ban/AG0bk+gr6jxj8q+XvEFvHH4v1yUZZ5L+c7m648xsAewq8dZRTZ95wupyrzjDS61fbXp5npfg6DV28B6ElheW6SR3LPdtNGW3xeY5ZVx0PTH0qTxTqOoaPqyXd2YpNBkQKGjU77Z+7P6qcjkdMdOprN8IR6HoPh+01O5inF1rUosnaPe4Y73VeBwowOorVEGk6dGPDOnwusWnxgvHKGZdspYjlvvdGz6dK+byWMnnCce8teVdnfW/R2S8n02PleLXCGHrqSulK2+vxLr36nP+O2V/A1+6MGVljIIOQRvSvD7Z/LaNwpbbIDtXqfm6CvWfG8F7pvh68ghUSaVKkSIg4NpsKAD3UhfqCfevKLP/AF8H/XYf+hV+z4J3wFS/8s/yifOZPT5KNSzunJv8Fv5nRW9uxf7Tc484jgA8Rj0Hv6mvqLwkyt4O0RlwVawgIPqPLWvlpmOpMQhK2oOGYcGQ+g/2fU96+pfCSqvg7RFUYUWEAA9B5a1+dYT4nff8j0sDfnlzb227GyRwa+YfFMiQ+JtYdyAovZuv/XRq+nz+lfLHiOF5vGWsyT8Rpf3AiTqMB25Pv6elVjknFXPu+F5yjXmoK7a+S13Z6B8KTqcuianMXgjtXmK20bKS6ybRlm9iCnHselbesxeIIvC9kWubW41eCYSTKq7I7gYcbBn7uQRg+q+lc14Ft9J1TSpYL6KV5tLvF1FNm8BTtwp+X7xyrfL9K6SKLSNUjHirT45vN1FFjZ5Ny5RNwHyHgdP85r5fB0084i7Nar7PW2ivfqrt+h4PFTdOniL+81ffr8jkfG15HefD7UHAKOFgMkL/AH4izo21h2OCK8YA/wBIX/d/rXr/AMR9Lj/4Ry91KCQwy/u1nVR8s6b12hh6qcEHrjI6GvIOk4/3f61+3ZO37KV+8f1PksnjBUZuHWT+TstDovm1RucrZqfoZT/8T/OvpL4ZKB8PtLAAAHm4A/66vXzjcXBR1trYKZ2HA/hRfU/4V9FfCyIw/DrSkLs7DziWbqSZnJ/nX5vhr+1fRdEd2Bv7TsraL5rU7I8V88/En/koGqfWP/0WlfQ2cZr5v+JrPN8RdWtoyyKhi8yToeYkOB7479qvGR5qa9T7fhmqqWLk7Xbi0l53R0/w9OpXWhI2lXdvHHFqmLsSxli8YRdyqex56/4YO54k0i+1SS5S+uoTphaN7EQqVmt5VU5ff9ensceueZ8Ato+k6LILqKXzdVuxpo8tXIPy5UHH3fvt83Xn2rpUn0nTR/wi2nJMjaasZKyBiu1wzDDn7x/z2OPmMDBvOI2jdX/lW3V38np6M8XiypONLESvaS7dzm9S1GS30O+0vU5l/tE6fM6yKu1JgN4yv+1gKSvbd6V4Xkm1/wCBf1r6A8V2NtfeG777TGH8mF5Yz3RlUkEH/ORkV8/n/j1x7/1r9myxWpVU/wCWX6HyGSSjKnKUVZvlv22Wx1U87GT7Nb4MpHzEjiMep9/QV9E/CyIQ/DnS4wWbHnZZjkkmZyc/jXzuBBp1sSSTzkk8s5P8ya+ifhaZH+HGlNKoRz5xIHb98+P0r87wnxu235npYD+I+Xa33nYnHevnj4jxIvxD1dwBvcxEnucQoBX0OcHivnP4o3Hk/EDUo0G+ZzHtT/tknJ9BWuNTdNJdz7jhicIYyU59Iv8ANbHQfDATNBraW8kaTmOMIXGQGIfaSO4zXXXEGrnQbOK/ubSaZONQKRfLMpVgAo7fMUPTkA9OleefDnRdPmF/qOqJLNLYPFeK6FhhkEnRV6gdhXXXOoeG7W1/4SlDNA2vGKHzZQ4B2g7dwPCDC4z0/PNfJQgv7Wg1r70deVb6aXvta7+XzOHiuU6jxDtZuL06/Dp8zmteE3h/RLm2t7cyaQ9rJEAuWe3kbeQT6odwX/ZwO1eLHH2g46Y/rX0Lr/8AyLmqZ6fZZf8A0E189tj7Q2OmP61+7ZMkqbX95fqfA5JVdSnJta6XffRavzOht3hsNNiIXG5QQFHzMxHb1Ne7fBMT/wDCIXpnK721B22r0UeXHxnvXhGn27LDFPMwZ9gCeiLjt7nua93+Cs8dz4RvpI87BqDoGxw2I4+R7f4V+bf8xc7a6u7+Z6WE/ju2u92emVznhv8A5D3i3/sKp/6R21dHXOeG/wDkPeLf+wqn/pHbV2HsHR0UUUAFFFFABRRWTrWswaFZpc3CTTNJKsMMEC7pJpGPCqMgZ69SAACSaANauc8Sf8h7wl/2FX/9I7mrmja7b62tyqW9xa3NpL5VxbXKhZImIDDOCQQQQQQSDVPxJ/yHvCX/AGFX/wDSO5oA6KvNPjWjy+E7KNH2A3ybz327JM49+lel9K85+Mn/ACK9l/1+r/6A9ZV3anJnoZVFSxtOL2bPNPAESw+LtPSLamBKEJ6A+W+PrXqX2XxQPD9tCdSsP7XWVWuJ/JPlvHuOQF7HbgZ9j0615B4RS21Hxnp9pMjSQRu0spUkbTGpdRxyfmVTj0r1GPWfDkccfjVEugb8JYiTZISRvIAKduR1x/Pn4bM4zeIi0rvT7Ket3ZfPX7ke1xHOnLEpQ2UbeWlyC/soNSspbO5UtDKMHacEEHIIPYggEH1FeGeL4Lm28W3cF3c/aZ0CL5u3BYbV2kj124z75r2LStQulum0rU1xfRR71mVcR3CZA3j0OSAV7E8cGvJ/iF/yPl9/up/6LWv2zJ2pVuZeX5o/HskVWliHSk7rlbX39PUoaRPHbadNIxwPOYAAZJOBgD1Neo/BZJW8aXVzOSrNp7qseeEXzI/zPAya8t0K2VkedyWKyMFB6Dpkj3r1P4MXX2nxveCJcwpYODJ2LeZHwPXvzXxWO/5GNTl/m1Pfh/vPu99X+h7yTgdK80+NUrQ+ErIoheR79EUDp9x+voOK9M7V5x8ZM/8ACMWf/X6v/oD1Vd2pyufT5UnLG00nZ33PHvDNt5fiHTnZg073UWWP+8MAD0HpXu8SaqNbnmkurc6U0CiGERnzFkzyS3cf547+FaTNAniHS4pskS3kSbVzkguM9OelesQ6T4Ym8vwYlvcFNL8u+SMtIAp3Eg78/Nyx49/bj4nNY81SMpX+69lfV7q1nZfM+g4kVOFSMIdF+L7iqyyIrowZGGQQcgivCPHlnb2HifULe2jWKIMjBR0BZVJx6ck16xFG3hdpmaX/AIkYUMqtktbMWA2j/Y+Yn/Zwe1eWfESRX8W6gyMGUiIhgcgjy0r9pyeV3Uvvyv8AJH4zktN08V7rvBxev/b3XzVylosUZkklZQXUAKT2znP8q9R+DFy9x42vCij7OthIA5/jbzI+nsOea8p0yB7hpI/M2wnBkA6t1wM+nXNeufBySJfGlxbqQGGnOwUdlEkYr5viG39sz6vT5aI9+FvrK6v8j3WuO+KLJF8PNTkc4A8r/wBGpXY1x/xPVX+H+pKwBGYTj6SoRXDV+CV+zPosBf61TtvzL80eBaBHNdeItMmO1Ct1EYFYZCtvGGYdz7dvrXuAt/Ev9i6fH/aNh/aiTI15L5J2SRZO4KOxIxzx0PTt4zokiQ65p8kmdq3MZbAJOA46Ada9Wi1Xw5DHD4tRLsf20YrIPskJPJCgp/CODz+XXn4nNeec4csb9tL69vuu/kfS8R0406kNbtp3fcaL22vrq8NvMJDBcSQuB1VlYggj/ORg15J8U1A8VWrADBswT7/O9ej3OhR6Xd/atJjZJbWFoPID/LcqikRq5PcELhuuMivKvH+qQavr9rPBvQrZiOWKQYeJw75Rh2Ir9cyKXv0ovsvmfjmW0UsbKpT+H3r+T00/yZh6PbG581GbEIYF1H8XJwPp1r0f4bXEa/EjSLZQS370kKOFHkvyfT0rzjSZpEE0UK7pZD8pI+VQM5J/PpXo3wstltvH2lgMWdjKXdurHyXr57O/+Rk7/wB233I9qf8AvC5u6sv1Po3Fch8TM/8ACAal6Zi/9GLXYVxvxSQyfDvVIw5XcYQSOoHnJn9Kyq/BL0Z9JgG1iqbS15l+aPnSSV7uQwwkrGDiSQdvYf49q+i4U1Yateyy3dq2myRJ9kiEZ3o+PmLHuCf8jv8AP0UaRII0ACjjivZYtO8NTmPwwsFyRoRivEUmTCnkqQ38XU8f4cfFZvyyUFbRX6X00130d7L5n1fEsJR9nKTvJ39OmiMnT9TvEvn0rXBEupqWZZIuI7pQeWTPQjuvbr0rzn4tf8hy3/69k/8AQ2r1O5FtrtkLmIuizoZIJgNskXmKQGGfuthq8d+Ij6h/acMOpKhnigVBKnCzLuYh8fwk5wR6g9sV+u5LzKKUl9h/lsfiuWxhPGucNNZXX3ary8jn9Paf7fsgC73iI3HooyOcd69M+F0Edr490pFPLNKSWPzM3kvkn1Nea6dcRW160jn/AJZEAdSx3LgAdzXovwuhlk+I2lXVxw/73YmeEBhf8z6mvD4ju82n0V189Ee9O/toX0V183c+kjWL4u/5E/WP+vKb/wBANbXesPxgXHgvWygBcWM+0HoTsOK5ZfCz26DtVi/NHzHcXBi2pGN87/dT+p9BXvot/En9l6XGL+x+3RSob6TyTslj53BB2J454/CvAbW38nLu2+Z/vv8A0HoK9rgvvDkBi8RrFdB/ERhtN22QluCqgr/DwOo+tfEZvG6goK9r9L3emnkrXfyPseI3Ufspz0vfTstPxKmt3N9p3ieSRg91pt5JGg2DLWzlVUfVGOM+hPpXn/xYZXGjOjBlYTEEHII+SvSotIs9CjGmWEbR2sIxGrOWIz8x5PPUmvJPiJpbaVNp0MU5awPmmCFuTCcpuUH+70wO3Nfq3DCUVQUXePLH8v66ux+K0ZQqZo29JKU/np+a/H1OR0i5S1d3bPIKqqjJY54ArsPCVu7eMNGurnBmN7CFUciMeYvA9/U1ymhKpuSzAHarEE9ua6nwvK974y0VomKW8eoQEuvWQiReB/s+p715XEWuOjy/yxuz26n8bTTu/wBD6qHQVzvjf/kA23/YV07/ANLIa6MdBXOeN/8AkA23/YV07/0shrnPaOjooooAKKKKACiiigAooooAaw3KRkjIxkV5hpVpqM2jeFfDD6XfQ3WkXkL3dxJAywCODdhlk+6+/wCXAUk/Mc4xXqNFAGdqek2+rxRpcyXkaodwNteS25P1MbKT9DWNb+AtFtozHBLrEaF2cqms3agsxLMeJepJJJ7k5rqqKAOb/wCEI0n/AJ+tc/8AB5ef/Hay/wDhU3g4f8w24/8ABhcf/F129NP4UnFPcqFScPhbXocpa/Drw9Y2621ompW8K52xxatdIq5OTgCTHUk/jT5PAGhyL8x1ViAcbtXuj/7Vo0/X9a1XUr2Gz0ay+xWd81nJPLqDLIduNzCMQkdDwN34ipfD3itNd1G9tTaG3SLMlrKZNwuoRI8ZkAwMfMh454ZT3qVTjGXMlZkSSmrS1Oe0n4Y6FqfhfSv+Eisb6e+NtE9wk+oXBxNsG75fMwDnPSrI+DXgQMGGjyBh0IvrjI/8fq9Y+K9V1m2Oo6R4eFzpTMwhmkvBFLcKDjckZUjBwcbmXPtmpG8Q65c6/qum6XotjPHpzxo81zqLQly8avwohfpux17Vsqk0rJsShFKyRSPwj8FsCDplwQeCDqFz/wDHK0IfAmi20EcEEmsRQxKESOPWbxVRQMAACXAAHaujiLmNTKFVyBuVWyAe4BwM/lUtZpJbDUUtkc5/whGk/wDP1rn/AIPLz/47WZL8KvCM0ryyWV1JI7Fnd9RuCWJ6knzOTXbUUNJ7lwqTh8LscpB8PtAtYVhtxqcUS/dSPV7pVH0AkpW8A6E/+sOqtjpu1e7OP/ItaeoaybHXdJ0z7Pv/ALRMw8zfjy/LTd0xznp1FUtU8RXMWuDRdJ01b/URCLifzJ/JigjJIXc+1jkkHACnoTxUKnCL5krMmf7y/PrfuYGk/DnSL7Spo9bttQldru5Xy5tRuMGITv5XHmYPyBCD+PWpf+FMeAsY/sWTHp9tn/8Ai60ta8TapoXhW41O50HfeRXEUMdnHdhlmMjogKvtz1fuoOR+NWbfxXb3t3oMdpH5tvrFvNOkxfaYwiqcFcdfmweRgit1VmlZNkxhGOysZQ+EfgpVCrpk4UDAA1C5wP8AyJWjH4F0aKJIoptZjjQBURNavFCgcAAebwK6eis0kthqKWyOc/4QjSf+frXP/B5ef/HazJfhV4SmleWSyupJHYs7vqFwSxPUk+Zya7aihpPcuFScNYuxyNt8OfDtlH5dtHqUMZOSsWq3SAn1wJPYVK3gHQ34kbVWHo2sXZ/9q1peI9Z/4R/w/daoLf7R5AU+UX2bssF64OOvpWV4i8Qa7olzb+Totjc2tzdRWkEj6k8bl5CACyeSwABz0Y8flUKnBO6Wopt1L8+t+5j6V8ONIvtKnj1u21CVmvLgCObUbggxLO/lceZg/IEIPXoetT/8KZ8B5z/Y0mfX7bP/APF1oXHiDxDFq1lpK6Hpz39xbzXLqdTcRokbovDeRlifMH8IxjrV/Q/EDard32n3Vk9jqdgyfaLdnDrtcEo6OPvKcHsDkEECuiNWcdpP7yIwjHZWMNfhD4JQsyaXOrMcsRf3AJ+v7ytC38A6FaW6QWratBEudscWsXaKMnJwBLjqa6qiskktUNRSd0jm/wDhCNJ/5+tc/wDB5ef/AB2qFz8MPCl5OZ7m0vJpnxukl1K5ZjgYGSZM9BXZ0H60NJ7lRnKLvF2ORtfhz4dsozHbJqMKE7isWq3Sgn1wJPYUs3w90C52eeupyeW29N+rXTbWwRkZk4OCRn3NdaK5q28VG48Cz+JvsW0Q208/2fzc58rfxux32dccZ71KpxTulqE2535tbmHY/DzTLm71qHUYdRa0F0EtVfUrja0Jgi3f8tORvMnX3HSn/wDCmPAWMf2LJj0+2z//ABdbOr65q1loY1ex0qzurdbM3Uyz3rQsoC7sKBEwbjPUirXh/UNV1SyW71DTbWzjmiSWAQXrTlgwz8wMabccdM9/x2VSa2bM404R+FWMBvhD4JZlZtLnLL90m/uMj6fvK0bbwDoVpbrBatq0EK52xxaxdqoycnAEuOprqaKzSS2KUUtkc5/whGk/8/Wuf+Dy8/8AjtZtx8LPCV3dtd3NldzXMgAeaTUbh3bAwMsZMniu17UlDSe5UZSi7xdmcfa/DXw1Y7/skN/b78bvJ1S5TdjpnEnPU1NcfD3w/dW7wXA1SaGQYeOTV7tlYehBlwaL3xnDpcuq21/atFeWm1rWCN97XyOdsZj4HzF/kK/wnvgg1Bp/ivW9ZiefTfDcUtvCzRSyyX+wPKhxIsX7s71DArubYCQaj2UL3srjlOU9ZO5nab8N9Ha41i1vLbUPsK3KxWcR1K5CGDyIsgAScjeZBz9OmKm/4Uz4Dzn+xpM+v22f/wCLrTm8SalNrNzpmk6LHcT2cMUl0Lq9EGwyAkKuFfccDk8D3NOvvEWrx63a6RYaNazXUtib2UXN+YRHhlUoCsb7jluvArojVqR2k18zJQjHZGafhD4JMflnSpymMbft9xjHpjzKu2fw68O6dB5Fiup2sOc+XBq12i5xjOBJ6AflWr4c1tfEGjR6gLdoGMkkTxlw4V43ZGww4YZU4I6itisrLcpRS2Rzn/CD6T/z9a5/4PLz/wCO1oaPodjoUVylis/+kS+dK89zJO7vtVclpGJ+6qjr2rUopjCiiigAooooAK5fxhb3O3RtRgtZroabqS3EsMK7nMZjkjJVerEeYGwOeDiuoooA5LwvHcXWv69rb2lxaW9+8EdulzEYpHWJCC5Q8rksQAcHC5xU1z4G0a7uEnnk1ZpI5DLGTq938jEEEqPM+XhmHGOCR0rp6KAOb/4QjSf+frXP/B5ef/HarXfw98P30QivP7TuYw24JPq924B9cGXryfzrrO1J+NDVxxk4u6dmcVa/CrwhYyCWzsbq3kBJDQ6jcoQT15ElaH/CCaL/AM9dY/8ABzd//Has+JdbudEtbNrSyju7i7vI7SOOWcwqC+cEsFY449KzdX8V6poOmxTX+iwPeyyPttbO+aXMMcZkkk3NEvICkbcckqM88Q6cG7tDc5Pdmbq3w70x7/RktodSe2a8IvM6lcMBEIZGUnMnH7xYuRznFT3Hwj8F3VwZ7jS7iWZuskmoXDMfxMmewrY1fxMli+nWunWrajf6lua0hSQIrIqhmkZznagBHOCSSAAaran4k1jSNCvL/UNBhSaB4EiSO+3xTGSQJ9/YGXaWBOU9MZ5xqqk4vRsyjTjHZJGevwf8DohVNJmVTyQL+4AP/kSrNl8MPC2mvusLa+tG27d1vql1GdvpxJ04H5Vu6Xca3NJINV02xtEAGxra+acsfQgxJj8zWrUtXd3uVyrsc5/whGk/8/Wuf+Dy8/8AjtVrv4e+H76Lyrz+07mMNuCT6vduAfXBl68n866ztSfjQ1cqMnF3TsziI/hP4OjuEuI9PuEmTG2Rb+4DLg54PmZHNaX/AAgmi/8APTV//Bzd/wDx2ul59a57T/FFtdeDT4jvY/sdskcssq79+xUZgecDOdvTHfFQ6cXuhynOWrdzC1b4e6Z9s0iO2h1NraS6ZL0f2ncEeT5EpGcycDzBH0+nQmnN8G/Ar/e0eQ8Ac30/bp/HWvp2s+IL37PcP4aWCynKkbr9ftCI38TR7dowDkgOT9TxUWneMEvfG+qeG5bNrdrQgW9wZMrckIjuoGBtKiROMnIJPatlOa2ZlGnGOySM9Pg/4JjB2aVOpPXbf3Az/wCRKsWnww8K6dcPcWNpfWs7rteSDU7pGYehIkyRwK3fDes/8JD4estWNv8AZ/tKb/KD79vJHXAz09K1vxqJNyfNLVlcqvexzf8AwhGk/wDP1rn/AIPLz/47UVz4B0K7t2guW1aeFsbo5dYu3U4ORkGXHUV1VJQUm07o4hfhR4PSRJF0+5V0YOjDULgFWByCD5nBB5zWj/wgmij/AJaax/4Obv8A+O101YVxrU6eIX0a2tI5Zxp7XkbyTFAzB9gQ4U4H+1z9DUOnF7ocqk5P3m2c7r3gHTkso305dVNyby23/wDE0uWPlmdBKeZP+eZfnr6c1Lc/CLwXdTGefTLiaZuskmoXDMfxMlWbDxF4kvNevNLbQNMRrLyWnkGquRtkyQVHkDJAU8HHbmooPGOtTaXc6svhyKXTLeaeNjBf7rgrFIyMwjaNVJ+QnG+tYzlH4XYyjTjF3SRFH8HvBEQPl6TMhPXbf3Az/wCRKmg+FnhK1uUubeyvIZ487JY9SuVZcgg4IkyOCR+NdZYXtvqen21/ayCS3uY1micd1YZB/I1ZqX7z5nuPlje9jm/+EI0n/n61z/weXn/x2ornwDoV3btBctq08LY3Ry6xdupwcjIMuOorqqSgtNp3RxP/AAqbwb/0Drj/AMD7j/4utD/hBdF/566v/wCDm7/+O101ZGt6ydGGnZt/ON5fRWf39uzfn5uhzjHT9azdKD3SKlVqT+KTfzOY17wFp8dlG+nLqhuTeW2//iaXLHyzOglPMn/PMvz19Oamu/hR4OvpA95p1xcSAbQ02oXDkDrjJkrobzWTa+ItL0j7OH+3xTyeaHx5flbOMY5zv9RjHesbUPEfiOy12y0saBpjvfecYHOquBtjAJLD7OcEgjgZ+tbRnKOzsYKnBO6SuUh8GvAqsHGjyBx0YX0+R/4/Vq3+GHhOynE9rZ3sEyZ2yRancqwyMHBEmehrq7ZrhraNrmKOOYqDJGkhdVbHIDEDI98D6VYPtUyfPLmlqyuWO9jnP+EI0n/n61z/AMHl5/8AHaZJ4F0aWJ4pZtZkjcFXR9avGDA8EEebyK6aigpO2qOJ/wCFTeDf+gbcf+B9x/8AF1of8ILov/PXV/8Awc3f/wAdrX1W4urTTLm4s7P7ZcRIXS3Emwy4/hBwecZx746da5a++JGnQRWklhBLqEU0KyyeUcPGZG2RR7SOZHfK7SRgKxJ45h0oPdGkqtSfxSb+ZF4i8BWCeHdVm0xdVfU1tJTbY1S5YmUIdnBkweccGp7r4WeE75Y/tlld3BTO3ztRuG25xnGZOOg/KtKHWtagiluNY0KO0tI4nmaS3vROyBRuwy7F5IH8JbmjQta1nV1tLuXRbe3067jEscyX4kkVSuV3JsA546M2M1pCUoW5Xaxz+zhfmsr+hjL8GvAighdHlAYYIF9ccj/vupofhR4PtXjeDT7qJ4yCjR6hcqVI6EYk4xTLTxzqEtpZandaJbxaZdXwskkivzJMGMxiBMZjUEbhkgMSBzziu6pSfM7y1K5Yvoc5/wAIPpP/AD9a5/4PLz/47Tf+EH0YyQvI+qzeTKkyJPq11Km9GDKSrSEHDAHkdq6aigoKKKKACiiigAooooAKKKKACiiigAooooAKKKKAPN28HTRWXiTUYdBs5fEE9/NJp1y4jMiK+0JIHJ425ZsZB46ZNWIvBeo6HeaDLZapeanb2Q+wSW0ywRBLR1CsQVRSdpWNuSSdpxya9AooA4Xw+niTwxotvoA0FtQFmvk217HdxRxSRg/IXDHepxgHCt04qje+Hkfxlr1/qPgU65DdvA1tOBaNtVYVVhiWRWHzA9q9IooAggybdD5Rhyo/dnGU46cEjj2OKnoooAKKKKAOT8UW+pJ4i8P6nYaVPqMdm1x50cEsSMA8YUH94yg8+9ZyRa9a+IrrxDD4cuJIdRt47e70+S4gE6NEW2Op3mNlIcggsDxmu9ooA8yh8I6gmkaoLPRItOjvNZsbuCwjkjBhiiaDeTtOwH927YBPXuauW/hjVNO+JVtcW0Afw+oublX8wA280wXfGFznaWXeMDgu1eg0UAFFFFABRRRQBzfjjTrzVfBuo2Wn25uLqRU8uIOqliHU4yxAHAPU1l6q+t+If7NiPhq9sRa6na3TvcXFuwKI+WxskY8Dmu4ooA5LW49TtfGmm6vZ6Nc6jbx6fcW0gglhRkd5ImXPmOuRhG6Zp/h7TNRPiDVvEGqQJaS30cMENqsgkaKOPccuw4LEuTgZAAHJrqqKACiiigAooooAK8xsrfxHB8Prvww3hW+8+S1uoFuBdWvlkybyp/1u7HzDtXp1FAHEiXW9R8KXejS+Gb6zlbTJIElmuLZkaTy9oX5JSeT3Ix64rptGgktNDsLeddksVvHG65BwwUAjI960KKACiiigAooooA5nXNHlvvF3hnUUtUkisZbhpZW25jDRFVxnnlsdKzNDt9d8J2k2jQ6E+pWa3Eslncw3MSDZJIz7ZQ7AggsRlQ2Riu5ooA4bxLpj6ncbrnwU2oXKwhYb21vIonjYjJXzCyOoDE8gH1x2rKuvDOoHUNEm17w9/wAJP9n0b7LcOGgbFxuUlv3zrngN8w55969OooA5jwTpl/pGgvbX0fkg3MsltaeZ5n2WBmykW7vtHpkDoOldPRRQAUUUUAFFFFABRRRQAUUUUAFFFFABRRRQBy/jPRH1600q1Nml3bpqUE1zFJt2+UudxIbqOelZKeCpv+EnuZdOkbw/p9pbiCzWxgtysxkw0zlXRgMlY16AnYe1d9RQB5rYeG/EGjDR7uC1N7Lob3NjHFJMiPd2TlTG6n7quoVRhtudp6cVo+J4da8T+D9StG8OyRMz2xitZrmFpJwsytIDhtgG1eMvzz079zRQBy3hixtLK4nFn4MbQN6jfJttgJcHgfuZGPGT1GK6miigAooooAK8xs9J1u68By+Db7w7fW4uI5oDfCe3aKPe7Mr4Eu8gZGRjNenUUAecazpmteJrOwtdQ8KRRana3ED/ANqG4heKMJKjyGM58wbghGNo681YvPDGpzTeIr63iEWoLqceoaTIzLiRkt40KnB4Vtroc44OfSu/ooA5zwPp15pHgrS7HULfyLuGHbLFvDbDknGVJB69q6OiigAooooAK47Vo9XsPHcWr2eh3WpWraYbVvs80KFX83dyJHXjHpXY0UAct4etdQbxPreq3mnS2UV7DaiOOZ42YFBIGB2Mw4yO/esXTU8T6d4dvNFt/Dcv2qW5uzFeTXMC24WWaR1c7XZ8AODjbntXodFAGXoGlLoXh7TtJSTzBZW0cG/GN21QM/jitSiigAooooAK5fxrZahdWmlyadYSX0tnqUF08MciIzImc4Lsozz611FFAHA3114guvE2i6vH4P1IR2MdzFJEbm03nzBHtI/fYx8p71ovDqeq+JfDuqyaVPZx2q3a3Ec8kRaPcqhPuOwOcHoTjviutooAKKKKACiiigArzp/Bl9LYa2ba3t7a9/4SBdWsd5ASbZ5bLvK5IDEOOeRnOK9FooA5+z1TW7oss3hmW1CxsWNxeREO2OFXYWJBPdguB27Vzmm6Dcp4n0+80vww/h2KOR3v2F1H5VwhRhsEUbEE7irbiFI2+9eh0UAePWng/UI9Lt7e38JGx16O+Mo10yW6hFM5ctlHMjZjO3aV5zg17DRRQAUUUUAFFFFABRRRQAUUUUAFFFFABRRRQAUUUUAFFFFABRRRQAUUUUAFFFFABRRRQAUUUUAFFFFABRRRQAUUUUAFFFFABRRRQAUUUUAFFFFABRRRQAUUUUAFFFFABRRRQAUUUUAFFFFABRRRQAUUUUAFFFFABRRRQAUUUUAFFFFABRRRQAUUUUAFFFFABRRRQAUUUUAFFFFABRRRQAUUUUAFFFFABRRRQAUUUUAFFFFABRRRQAUUUUAFFFFABRRRQAUUUUAFFFFABRRRQAUUUUAFFFFABRRRQAUUUUAFFFFABRRRQAUUUUAFFFFABRRRQAUUUUAFFFFABRRRQAUUUUAFFFFABXLeJXNz4j8M6U//AB7z3UlzKP7/AJKbkU/8DKN/wCuprH1nSm1C60u6hkWK6sLoTozDIZCCkiH6ozY9wD2oA5bxL46uNC1O6aG5srq2s5I1nto7K4eRQdu7dOuY0YbiQrDpjJGa15mNl8SrZIziPVNNlMyj+/A8e1vrtmYZ9h6VDqnw/sNVGoxSajqkFpqEvn3FpBMgjMvy/OMoWz8oOM7c9q2E0dm8VS6zO4bZai1towPuKW3SE+7EIPonvQBleINSk0TxZot9Ncypps8Vza3CFz5YcJ5yNjpuxFIM++K4211XWovDdxo91qF2NV1e6sZbeQzN5kEd3guqtnICeXPjHTFeg+KfDFh4u0b+zNQeeOHzFkD27hXBGehIPBBIPsTSXvhbT77xNpuvyGZbrT0ZIo0YCNshgCy45KhmxyMbjQBzVz4g1y80LxdezW+ktpulfboBbzQPIbkRxsRv+cAKeAwwdwz92p9OuNdn+IF1HFqFrHpqaZZTm0a3kYKrGUMExIArEqfm2njaMfLk7x8L2J0XWdK8y48jV3uHuG3LuUzAhtpxgYzxkH8aU+G4k1q31S2vr22nit47aVIihS4jQkqrhkPdm5UqeetAHJ6J8QNR1W7025ismlsL+dYxbx6ZdLJBGxwsjTkeUwHBIAAAJwTjnQ8V+Jll8NST6V/aQlt9Qs0Zfs0ts8ga4QFFMgQNuGQecc88GtWw8JRaVPGLPVdThsIpDJHpyyp5C5Odo+Tftyfu7sdsYrS1fSrfWrJLS5eVI1nhuAY8A7o5FkUcg8ZUZ9vSgDlrnxHfy+NtCjn07VdLtfJu3lS5eLZNtRSOI5GyV5PPrxVTQvHuqateaVMbJpLLUnA8mLTLpHtUZSVdp2HluOgOMDnIJA57O70e3vNXsNSlaTzrJZVjUEbWEgAbcMc9BjkVn6Z4Tj0eWJbPVtUWwgOYdPMiGFB2UHZv2jsCxAoAwh46uI/ElpbfabK9sLq+NkPs1jcL5RO4KfPOYnOQAQMd8ZxVtvFuoLaS2nk239uLrI0xY9reWVYiQSbd2ceQd/XqDU0XgDT4pbLbqWqNa2F4Ly1s2lTyoX3FsAbMkfMfvEkA8EVoN4U09vGC+Ji0/wBsWHyvK3Dys4I8zbjO/aSuc9D0oAybrxdqFtFqNh5Nt/bceqR2NrGVby5ElIaOQjdnAj3lsHrG3Su2rj00KbUPiR/b9zp72sNjaG3gd5FJuJCWxIFUnAVWcDdg/vDxXYUAFFFFABRRRQAUUUUAFFFFABRRRQAUUUUAFFFFABRRRQAUUUUAFFFFABRRRQAUUUUAFFFFABRRRQAUUUUAFFFFABRRRQAUUUUAc944v7jTfBeqXNo5juPK8uOQdY2chA34bs/hXP6laXmneO/D+n6AtrEYtFuYUa5VnSKNZIOdqkFjwBjI657YPYazpkGtaNeaXc5EN1C0TMvVcjGR7jqPpWRdeFG1S503UrvVL221aztGg+0WLKqkvtLttZWByV4ByBnpkAgAw9T1q5vfCUWtTxxw6pourpDKISSjMs4hkCk87XR24PqPSug8cNeW/g6/vdPlljurJVvF8typcRMHZDjqGVSpHfNRt4RhTS9O0qCRvsUF6t5dGZt8lyysZMse5Mu1ifQYx6dHNFHcQSQyqGjkUoynuCMEUAeff8JDKPHJ1n7fL/wj/wDyDPL3nyt/kfafN29M/wAGfwqDw7rXimddG02GW0FxqOnS6tLcX4klMO+YFUChxkBZFULkYx7YO1/wrfR/+ED/AOES+0332Ldv+0+avn53Zzu246fL0+7x71upolpHrcOqxmRJYbQ2SRgjYIyyt0xnPyjv0oA4S/1TV53sxpEtlprf8JVNaSBLd9s2FfDSBZF3ZwSw7naeMc3tW8aarZ6tc6Xa+QbjT4IzcSf2XdzrcTMm7avlZ8pcY5Yseehxk7s3gyxltZIUur2GRtRbU0njdN8U7ZyVypXGCRgg8GlufCiS3ovINY1OzvHhSK5uLd4gboIMBpFKFd3J5VV646YAAJdP8T296LCOWz1C3vbu3ScwPZTYiLJuKNJs2AjkYJHNcro1rf8AiLwN/wAJTLr2pW2q3UMl1CYbplt7fBJRPK+4ygAA7gSeea9DtoBBbRQiSSTy0C75G3M2BjJPc+9czL4CsGiubSHUdUttLuXZ5tNgmVYG3HLgfLvVWJOVVgOTxQBlab4q8Ra7PpVtp0enQNd6HDqUs11G7hJGbBUKrDIPbnj36VHb6xc+INc8H6pDFFDd3GlaiQj5aNJAYB7EruHscV2EOg2dvrS6nDvSRLNbFIVwI1jViwwMZzzjrjHaqOneErDSm0qS3kunbS4LiKBWdfnEzKzbuBzlBjp3zmgChpXi651ibw/bW8ESXN3DLNqSMCfs4i/duo54PnEKM54VuK7OuP8ACGgy2Wq65rl1YtY3OqXAZLZ5FdoYlHcqSoLOXchSR8wrsKACiiigAooooAKKKKACiiigAooooAKKKKACiiigAooooAKKKKACiiigAooooAKKKKACiiigAooooAKKKKACiiigAooooAKKKKACiiigAooooAKKKKACiiigAooooAKKKKACiiigAooooAKKKKACiiigAooooAKKKKACiiigAooooAKKKKACiiigAooooAKKKKACiiigAooooAKKKKACiiigAooooAKKKKACiiigAooooAKKKKACiiigAooooAKKKKACiiigAooooAKKKKACiiigAooooAKKKKACiiigAooooAKKKKACiiigAooooAKKKKACiiigD//Z;" vertex="1" parent="1">
          <mxGeometry x="150" y="142" width="828" height="439" as="geometry" />
        </mxCell>
      </root>
    </mxGraphModel>
  </diagram>
</mxfile>
